<svg fill="none" height="401" viewBox="0 0 651 401" width="651" xmlns="http://www.w3.org/2000/svg" xmlns:xlink="http://www.w3.org/1999/xlink"><clipPath id="a"><path d="m.5.787842h650v400h-650z"/></clipPath><clipPath id="b"><path d="m334.458 201.177h101.536v87.7562h-101.536z"/></clipPath><clipPath id="c"><path d="m317.956 174.343h272.697v68.1742h-272.697z"/></clipPath><clipPath id="d"><path d="m317.974 184.544h228.996v59.6343h-228.996z"/></clipPath><g clip-path="url(#a)"><path d="m472.025 280.067h-4.141v8.283h-4.141v8.282h-4.141v4.142h-16.566v-4.142h-4.141v-16.565h4.141v-4.141h16.565v4.141h-4.14v4.141h-4.142v4.142h-4.142v4.141h-4.14v4.141h4.14v-4.141h4.142v-4.141h4.142v-4.142h4.141v-4.141h4.141v-4.141h4.141v-4.142h4.141zm0 20.707h-8.282v-4.142h4.141v-8.282h4.141zm37.273-28.99h-4.142v4.141h-8.282v-4.141h-4.142v8.283h4.142v4.141h-4.142v8.283h-4.141v.001h-4.141v-16.567h-4.142v-4.141h-4.141v4.142h4.141v16.565h4.142v4.141h-8.283v4.142h-4.141v-33.131h4.141v-4.142h4.141v-4.14h28.99zm41.413 24.848h-4.141v-4.141h-4.142v-4.141h-8.283v-4.142h-4.141v-8.282h4.141v-8.283h4.142v-8.282h12.424zm16.565-28.989h4.141v8.283h4.141v8.282h-4.141v4.142h-8.283v4.141h-4.14v4.141h-4.142v-37.271h12.424zm-66.262 12.424h-4.14v-4.141h4.14zm-37.271-16.566h4.141v-4.14h8.283v4.14h-4.141v4.142h-4.142v4.141h-4.141v4.141h-12.424v-4.141h8.283v-4.141h-8.283v4.141h-8.282v4.141h-4.142v-12.424h4.141v-4.14h20.707zm70.402 4.142h-4.14v4.141h-4.142v4.141h-4.142v-8.282h-4.14v-8.282h16.564zm53.838 0h-4.142v8.282h-4.141v-4.141h-4.141v-8.283h-4.141v-4.14h16.565zm-103.533 0h4.141v4.141h4.141v-8.283h-8.282zm-37.273-8.283h-4.141v-4.141h4.141zm33.131-24.848h4.142v4.142h4.141v12.423h-4.141v4.142h-4.142v4.141h-16.565v-4.141h-16.566v-8.283h8.284v-4.141h4.141v4.141h8.282v4.141h4.141v4.142h4.142v-8.282h-4.141v-16.566h8.282zm20.706 20.707h4.142v4.141h-20.706v-4.141h4.141v-4.142h12.423zm28.991-28.989h8.282v-4.141h12.424v37.271h-8.283v-4.141h4.142v-4.142h-8.283v4.142h-4.142v4.141h-16.564v-4.141h-4.142v-8.283h-4.141v-4.141h4.141v-4.141h4.142v-4.142h4.14v-4.141h-4.14v4.142h-4.142v-4.142h-4.141v-8.282h20.707zm37.271 0h8.282v-4.141h20.707v8.282h-4.141v4.142h-4.141v-4.142h-4.142v4.141h4.142v4.142h4.141v16.565h-4.141v-4.142h-4.142v4.142h4.142v4.141h-16.565v-4.141h-4.142v-4.142h-8.282v4.142h4.14v4.141h-8.282v-37.271h12.424zm-41.413 20.706h-4.142v4.141h4.142v-4.141h4.141v-4.141h-4.141zm53.837 4.141h4.141v-4.141h-4.141zm-107.675-4.14h-4.141v-4.142h-8.282v-4.141h4.141v-4.142h4.141v-4.141h4.141zm95.251-4.142h8.282v4.141h4.142v-4.141h-4.141v-4.141h-8.283zm-57.978 0h-4.141v-4.141h4.141zm28.989-4.141h-8.282v4.141h8.282v-4.141h4.141v-4.141h-4.141zm-33.13 0h-4.142v-4.142h4.142zm57.977 0h4.142v-4.141h-4.142zm-62.119-4.141h-4.141v-4.142h4.141zm-4.141-4.142h-4.142v-4.141h4.142zm24.848 0h8.282v-4.141h-8.282zm53.836 0h8.283v-4.141h-8.283zm-82.826-4.141h-4.141v-4.141h4.141zm-4.141-4.142h-4.141v-4.141h4.141zm53.836-20.707h4.142v4.142h4.142v16.565h-37.272v-8.282h4.142v-8.283h4.14v-4.142h4.142v-4.14h16.564zm37.273 0h4.141v4.142h4.142v8.283h4.141v8.282h-37.272v-16.565h4.142v-4.142h4.14v-4.14h16.566z" fill="#27a463"/><path d="m513.439 284.208h4.141v33.131h-4.141v-28.989h-4.141v-12.424h4.141zm8.282 33.13h-4.14v-20.706h4.14zm-78.684-16.564h-4.142v-4.142h4.142zm111.815 0h-4.142v-86.968h4.142zm-107.675-4.142h-4.14v-4.142h4.14zm78.686 0h-4.142v-12.424h4.142zm-74.544-4.142h-4.142v-4.14h4.142zm4.141-4.14h-4.141v-4.142h4.141zm4.142-4.142h-4.142v-4.141h4.142zm70.401 0h-4.14v-12.424h4.14zm-20.706-4.14h-4.14v-8.284h4.14zm-45.553-.001h-4.142v-4.141h4.142zm4.14-4.142h-4.14v-4.141h4.14zm4.142-4.141h-4.142v-4.141h4.142zm62.119 0h-4.141v-8.282h4.141zm-53.837-8.283h-4.14v4.142h-4.142v-4.142h4.141v-4.14h4.141zm57.979-4.14h-4.142v-4.142h4.142zm-53.837-.001h-4.142v-4.141h4.142zm4.141-4.141h-4.141v-4.142h4.141z" fill="#0adc4d"/><path d="m513.439 317.339h-4.141v-8.282h4.141zm-4.142-8.283h-4.14v-8.282h4.14zm-4.14-8.282h-4.142v-12.424h4.142zm-4.142-12.424h-4.141v-8.283h4.141zm-4.141-12.424h-4.142v-4.142h4.142zm-8.284-49.696h4.142v4.141h4.142v-4.141h-4.141v-4.141h16.565v4.141h16.565v-4.141h4.141v8.282h4.141v12.424h-4.141v-4.141h-8.283v4.141h8.283v4.141h4.141v12.424h-8.282v-4.141h-4.142v4.142h4.142v4.14h4.141v4.142h-16.565v-4.142h-4.141v4.142h-12.424v-4.142h-8.284v-4.14h4.142v-16.566h4.142v-4.141h-4.142v4.141h-4.142v16.566h-8.282v-8.284h-4.14v-4.141h4.14v-8.282h4.142v-4.142h4.14v-4.141h-4.14v4.142h-4.142v4.141h-4.141v8.283h-4.141v-4.142h-4.142v-4.141h-4.14v-8.283h-.001v-4.141h4.141v-4.141h20.706zm16.567 37.271h4.14v-8.282h-4.14zm28.988 0h-4.141v-4.14h4.141zm-33.13-8.282h4.142v-8.282h-4.142zm16.566 0h4.14v-4.142h-4.14zm-8.283-8.283h4.141v4.141h4.141v-4.14h-4.141v-4.142h-4.141zm-4.141-4.141h4.14v-4.141h-4.14zm-8.283-8.283h4.141v4.142h4.142v-4.141h-4.142v-4.142h-4.141zm16.565 4.142h8.282v-4.141h-8.282zm-8.282-8.283h4.14v-4.141h-4.14zm-20.707-8.283h-12.424v-4.141h12.424zm20.707-20.706h4.141v4.142h4.141v4.14h-8.282v4.142h20.706v8.282h-24.849v-4.141h4.142v-4.141h-8.282v8.282h-8.284v-4.14h-4.14v-12.424h4.14v-4.142h4.142v-4.142h12.425zm12.424 12.423h-4.142v-4.141h4.142z" fill="#068940"/><path d="m450.5 186.788h-130.547v7.252h130.547z" fill="#c5b9a1"/><path d="m450.5 194.04h-130.547v7.253h130.547z" fill="#c5b9a1"/><path d="m334.459 201.293h-29.011v7.253h29.011z" fill="#c5b9a1"/><path d="m356.216 201.293h-14.505v7.253h14.505z" fill="#1929f4"/><path d="m435.995 201.293h-72.526v7.253h72.526z" fill="#1929f4"/><path d="m450.5 201.293h-14.505v7.253h14.505z" fill="#c5b9a1"/><path d="m334.458 208.546h-43.515v7.252h43.515z" fill="#c5b9a1"/><path d="m348.963 208.546h-14.505v7.252h14.505z" fill="#1929f4"/><path d="m435.995 208.546h-79.779v7.252h79.779z" fill="#1929f4"/><path d="m450.499 208.546h-14.505v7.252h14.505z" fill="#c5b9a1"/><path d="m334.458 215.798h-43.515v7.253h43.515z" fill="#c5b9a1"/><path d="m356.216 215.798h-14.505v7.253h14.505z" fill="#1929f4"/><path d="m435.994 215.798h-72.525v7.253h72.525z" fill="#1929f4"/><path d="m450.5 215.798h-14.506v7.253h14.506z" fill="#c5b9a1"/><path d="m334.459 223.051h-43.516v7.252h43.516z" fill="#c5b9a1"/><path d="m435.995 223.051h-101.537v7.252h101.537z" fill="#1929f4"/><path d="m450.5 223.051h-14.505v7.252h14.505z" fill="#c5b9a1"/><path d="m334.459 230.303h-43.516v7.253h43.516z" fill="#c5b9a1"/><path d="m435.995 230.303h-101.536v7.253h101.536z" fill="#1929f4"/><path d="m450.5 230.303h-14.505v7.253h14.505z" fill="#c5b9a1"/><path d="m334.458 237.556h-43.515v7.252h43.515z" fill="#c5b9a1"/><path d="m435.994 237.556h-101.536v7.252h101.536z" fill="#1929f4"/><path d="m450.499 237.556h-14.505v7.252h14.505z" fill="#c5b9a1"/><path d="m334.458 244.808h-43.515v7.253h43.515z" fill="#c5b9a1"/><path d="m435.994 244.808h-101.536v7.253h101.536z" fill="#1929f4"/><path d="m450.499 244.808h-14.505v7.253h14.505z" fill="#c5b9a1"/><path d="m305.448 252.061h-14.505v7.253h14.505z" fill="#9d8e6e"/><path d="m334.458 252.061h-29.01v7.253h29.01z" fill="#c5b9a1"/><path d="m435.995 252.061h-101.537v7.253h101.537z" fill="#1929f4"/><path d="m450.5 252.061h-14.505v7.253h14.505z" fill="#c5b9a1"/><path d="m334.459 259.314h-43.516v7.252h43.516z" fill="#c5b9a1"/><path d="m435.995 259.314h-101.536v7.252h101.536z" fill="#1929f4"/><path d="m450.5 259.314h-14.505v7.252h14.505z" fill="#c5b9a1"/><path d="m305.448 266.566h-14.505v7.253h14.505z" fill="#9d8e6e"/><path d="m334.459 266.566h-29.011v7.253h29.011z" fill="#c5b9a1"/><path d="m435.995 266.566h-101.536v7.253h101.536z" fill="#1929f4"/><path d="m450.5 266.566h-14.505v7.253h14.505z" fill="#c5b9a1"/><path d="m334.458 273.819h-43.515v7.252h43.515z" fill="#c5b9a1"/><path d="m435.994 273.819h-101.536v7.252h101.536z" fill="#1929f4"/><path d="m450.499 273.819h-14.505v7.252h14.505z" fill="#c5b9a1"/><path d="m305.448 281.071h-14.505v7.253h14.505z" fill="#9d8e6e"/><path d="m334.458 281.071h-29.01v7.253h29.01z" fill="#c5b9a1"/><path d="m435.994 281.071h-101.536v7.253h101.536z" fill="#1929f4"/><path d="m450.5 281.071h-14.506v7.253h14.506z" fill="#c5b9a1"/><path d="m385.227 288.324h-94.284v7.252h94.284z" fill="#c5b9a1"/><path d="m392.479 288.324h-7.253v7.252h7.253z" fill="#a89a7f"/><path d="m399.732 288.324h-7.253v7.253h7.253z" fill="#c5b9a1"/><path d="m406.984 288.324h-7.253v7.252h7.253z" fill="#a89a7f"/><path d="m450.5 288.324h-43.516v7.252h43.516z" fill="#c5b9a1"/><path d="m377.974 295.577h-72.526v7.252h72.526z" fill="#c5b9a1"/><path d="m385.227 295.577h-7.253v7.252h7.253z" fill="#a89a7f"/><path d="m392.479 295.577h-7.253v7.252h7.253z" fill="#c5b9a1"/><path d="m399.732 295.577h-7.253v7.252h7.253z" fill="#a89a7f"/><path d="m406.984 295.577h-7.252v7.252h7.252z" fill="#c5b9a1"/><path d="m414.237 295.577h-7.253v7.252h7.253z" fill="#a89a7f"/><path d="m450.5 295.577h-36.263v7.252h36.263z" fill="#c5b9a1"/><path d="m450.499 302.829h-130.546v7.253h130.546z" fill="#c5b9a1"/><g clip-path="url(#b)"><path d="m334.458 201.177h101.536v87.7562h-101.536z" fill="#3666ff"/><path d="m272.731 242.517h226.28v46.4165h-226.28z" fill="#dae8ff"/><g clip-path="url(#c)"><g clip-path="url(#d)" opacity=".5"><g fill="#98a6ff"><path d="m0 0h16.6976v9.54149h-16.6976z" transform="matrix(-1 0 0 1 339.442 234.637)"/><path d="m0 0h75.9741v22.661h-75.9741z" transform="matrix(-1 0 0 1 415.416 221.518)"/><path d="m0 0h108.534v22.661h-108.534z" transform="matrix(-1 0 0 1 536.235 228.674)"/><path clip-rule="evenodd" d="m310.818 215.554h1.192v1.193h1.193v1.193h1.193v1.192h1.192v1.193h1.193v1.193h1.193v1.192h1.192v1.193h1.193v1.193h1.193v1.192h1.192v1.193h1.193v1.193h1.193v1.192h1.193v1.193h1.192v1.193h1.193v1.192h1.193v1.193h1.192v1.193h1.193v1.193h1.193v1.192h1.192v1.193h-46.514v-1.193h1.192v-1.192h1.193v-1.193h1.193v-1.193h1.192v-1.193h1.193v-1.192h1.193v-1.193h1.192v-1.193h1.193v-1.192h1.193v-1.193h1.192v-1.193h1.193v-1.192h1.193v-1.193h1.192v-1.193h1.193v-1.192h1.193v-1.193h1.193v-1.193h1.192v-1.192h1.193v-1.193h1.193zm4.77 19.083v-7.156h1.193v1.193h1.193v1.192h1.192v1.193h1.193v1.193h1.193v1.192h1.192v1.193zm-15.505 0v-1.193h1.193v-1.192h1.193v-1.193h1.192v-1.193h1.193v-1.192h1.193v-1.193h1.193v7.156z" fill-rule="evenodd"/><path d="m316.781 227.481h-1.193v7.156h7.156v-1.193h-1.192v-1.192h-1.193v-1.193h-1.193v-1.193h-1.192v-1.192h-1.193z"/><path d="m300.083 233.444v1.193h7.157v-7.156h-1.193v1.193h-1.193v1.192h-1.193v1.193h-1.192v1.193h-1.193v1.192z"/><path clip-rule="evenodd" d="m407.425 196.471h1.193v2.386h1.193v2.385h1.192v2.385h1.193v2.386h1.193v2.385h1.192v2.385h1.193v2.386h1.193v2.385h1.192v2.386h1.193v2.385h1.193v2.385h1.192v2.386h1.193v2.385h1.193v2.385h1.192v2.386h1.193v2.385h1.193v2.386h1.192v2.385h1.193v2.385h1.193v2.386h-46.515v-2.386h1.193v-2.385h1.192v-2.385h1.193v-2.386h1.193v-2.385h1.193v-2.386h1.192v-2.385h1.193v-2.385h1.193v-2.386h1.192v-2.385h1.193v-2.385h1.193v-2.386h1.192v-2.385h1.193v-2.386h1.193v-2.385h1.192v-2.385h1.193v-2.386h1.193v-2.385h1.192v-2.385h1.193zm4.771 38.166v-14.312h1.193v2.385h1.192v2.386h1.193v2.385h1.193v2.385h1.192v2.386h1.193v2.385zm-15.505 0v-2.385h1.193v-2.386h1.192v-2.385h1.193v-2.385h1.193v-2.386h1.192v-2.385h1.193v14.312z" fill-rule="evenodd"/><path d="m413.389 220.325h-1.193v14.312h7.156v-2.385h-1.193v-2.386h-1.192v-2.385h-1.193v-2.385h-1.193v-2.386h-1.192z"/><path d="m396.691 232.252v2.385h7.156v-14.312h-1.193v2.385h-1.192v2.386h-1.193v2.385h-1.193v2.385h-1.192v2.386z"/><path d="m341.827 213.169v2.385h-1.192v2.386h-1.193v2.385h-1.193v2.385h-1.192v2.386h10.734v-2.386h-1.193v-2.385h-1.192v-2.385h-1.193v-2.386h-1.193v-2.385z"/><path d="m337.057 222.71v2.386h-1.193v2.385h-1.193v2.385h-1.192v2.386h-1.193v2.385h10.734v-2.385h-1.193v-2.386h-1.192v-2.385h-1.193v-2.385h-1.193v-2.386z"/><path d="m384.764 203.627v1.193h-1.193v1.193h-1.192v1.192h-1.193v1.193h-1.193v1.193h-1.192v1.192h-1.193v1.193h-1.193v1.193h-1.192v1.192h-1.193v1.193h-1.193v1.193h-1.192v1.193h-1.193v1.192h-1.193v1.193h-1.192v1.193h34.587v-1.193h-1.192v-1.193h-1.193v-1.192h-1.193v-1.193h-1.192v-1.193h-1.193v-1.193h-1.193v-1.192h-1.192v-1.193h-1.193v-1.193h-1.193v-1.192h-1.192v-1.193h-1.193v-1.193h-1.193v-1.192h-1.192v-1.193h-1.193v-1.193z"/><path d="m439.628 216.747v1.193h-1.193v1.192h-1.193v1.193h-1.192v1.193h-1.193v1.192h-1.193v1.193h-1.192v1.193h-1.193v1.192h-1.193v1.193h-1.193v1.193h-1.192v1.192h-1.193v1.193h-1.193v1.193h-1.192v1.193h-1.193v1.192h34.588v-1.192h-1.193v-1.193h-1.192v-1.193h-1.193v-1.193h-1.193v-1.192h-1.192v-1.193h-1.193v-1.193h-1.193v-1.192h-1.193v-1.193h-1.192v-1.193h-1.193v-1.192h-1.193v-1.193h-1.192v-1.193h-1.193v-1.192h-1.193v-1.193z"/><path d="m374.03 214.361v1.193h-1.193v1.193h-1.192v1.193h-1.193v1.192h-1.193v1.193h-1.193v1.193h-1.192v1.192h-1.193v1.193h-1.193v1.193h-1.192v1.192h-1.193v1.193h-1.193v1.193h-1.192v1.192h-1.193v1.193h-1.193v1.193h34.588v-1.193h-1.192v-1.193h-1.193v-1.192h-1.193v-1.193h-1.193v-1.193h-1.192v-1.192h-1.193v-1.193h-1.193v-1.193h-1.192v-1.192h-1.193v-1.193h-1.193v-1.193h-1.192v-1.192h-1.193v-1.193h-1.193v-1.193h-1.192v-1.193z"/><path d="m353.754 214.362v-1.193h1.193v1.193h1.193v1.192h1.192v1.193h1.193v1.193h1.193v1.192h1.192v1.193h1.193v1.193h1.193v1.192h1.192v1.193h1.193v1.193h-22.661v-1.193h1.193v-1.193h1.192v-1.192h1.193v-1.193h1.193v-1.193h1.193v-1.192h1.192v-1.193h1.193v-1.193h1.193v-1.192z"/></g><path clip-rule="evenodd" d="m395.498 210.783h-1.192v2.386h-1.193v2.385h-1.193v2.386h-1.192v2.385h-1.193v2.385h-1.193v2.386h-1.192v2.385h-1.193v2.385h-1.193v2.386h-1.193v2.385h-1.192v2.386h-1.193v2.385h-1.193v2.385h-1.192v2.386h-1.193v2.385h-1.193v2.385h-1.192v2.386h-1.193v2.385h-1.193v2.386h-1.192v2.385h46.514v-2.385h-1.192v-2.386h-1.193v-2.385h-1.193v-2.386h-1.192v-2.385h-1.193v-2.385h-1.193v-2.386h-1.192v-2.385h-1.193v-2.385h-1.193v-2.386h-1.193v-2.385h-1.192v-2.386h-1.193v-2.385h-1.193v-2.385h-1.192v-2.386h-1.193v-2.385h-1.193v-2.385h-1.192v-2.386h-1.193v-2.385h-1.193zm-4.77 38.166v-14.312h-1.193v2.386h-1.193v2.385h-1.192v2.385h-1.193v2.386h-1.193v2.385h-1.193v2.385zm15.504 0v-2.385h-1.192v-2.385h-1.193v-2.386h-1.193v-2.385h-1.192v-2.385h-1.193v-2.386h-1.193v14.312z" fill="#00499c" fill-rule="evenodd"/><path d="m389.535 234.637h1.193v14.312h-7.157v-2.385h1.193v-2.385h1.193v-2.386h1.193v-2.385h1.192v-2.385h1.193z" fill="#00499c"/><path d="m406.232 246.564v2.385h-7.156v-14.312h1.193v2.386h1.193v2.385h1.192v2.385h1.193v2.386h1.193v2.385z" fill="#00499c"/><path d="m317.974 235.83h108.534v22.661h-108.534z" fill="#00499c"/><path clip-rule="evenodd" d="m325.13 211.976h-1.193v1.193h-1.193v1.193h-1.192v1.192h-1.193v1.193h-1.193v1.193h-1.192v1.192h-1.193v1.193h-1.193v1.193h-1.192v1.192h-1.193v1.193h-1.193v1.193h-1.192v1.192h-1.193v1.193h-1.193v1.193h-1.192v1.192h-1.193v1.193h-1.193v1.193h-1.193v1.192h-1.192v1.193h-1.193v1.193h46.515v-1.193h-1.193v-1.193h-1.192v-1.192h-1.193v-1.193h-1.193v-1.193h-1.193v-1.192h-1.192v-1.193h-1.193v-1.193h-1.193v-1.192h-1.192v-1.193h-1.193v-1.193h-1.193v-1.192h-1.192v-1.193h-1.193v-1.193h-1.193v-1.192h-1.192v-1.193h-1.193v-1.193h-1.193v-1.192h-1.192v-1.193h-1.193zm-4.771 19.083v-7.156h-1.193v1.193h-1.192v1.192h-1.193v1.193h-1.193v1.193h-1.192v1.192h-1.193v1.193zm15.505 0v-1.193h-1.193v-1.192h-1.192v-1.193h-1.193v-1.193h-1.193v-1.192h-1.192v-1.193h-1.193v7.156z" fill="#00499c" fill-rule="evenodd"/><path d="m319.166 223.903h1.193v7.156h-7.156v-1.193h1.193v-1.192h1.192v-1.193h1.193v-1.193h1.193v-1.192h1.192z" fill="#00499c"/><path d="m335.864 229.866v1.193h-7.156v-7.156h1.193v1.193h1.192v1.192h1.193v1.193h1.193v1.193h1.192v1.192z" fill="#00499c"/><path clip-rule="evenodd" d="m446.784 203.627h-1.193v2.386h-1.193v2.385h-1.192v2.385h-1.193v2.386h-1.193v2.385h-1.192v2.386h-1.193v2.385h-1.193v2.385h-1.192v2.386h-1.193v2.385h-1.193v2.385h-1.192v2.386h-1.193v2.385h-1.193v2.386h-1.193v2.385h-1.192v2.385h-1.193v2.386h-1.193v2.385h-1.192v2.385h-1.193v2.386h46.515v-2.386h-1.193v-2.385h-1.193v-2.385h-1.192v-2.386h-1.193v-2.385h-1.193v-2.385h-1.192v-2.386h-1.193v-2.385h-1.193v-2.386h-1.192v-2.385h-1.193v-2.385h-1.193v-2.386h-1.192v-2.385h-1.193v-2.385h-1.193v-2.386h-1.192v-2.385h-1.193v-2.386h-1.193v-2.385h-1.193v-2.385h-1.192zm-4.771 38.166v-14.312h-1.193v2.385h-1.192v2.386h-1.193v2.385h-1.193v2.386h-1.192v2.385h-1.193v2.385zm15.505 0v-2.385h-1.193v-2.385h-1.192v-2.386h-1.193v-2.385h-1.193v-2.386h-1.192v-2.385h-1.193v14.312z" fill="#00499c" fill-rule="evenodd"/><path d="m440.82 227.481h1.193v14.312h-7.156v-2.385h1.193v-2.385h1.192v-2.386h1.193v-2.385h1.193v-2.386h1.192z" fill="#00499c"/><path d="m457.518 239.408v2.385h-7.156v-14.312h1.193v2.385h1.192v2.386h1.193v2.385h1.193v2.386h1.192v2.385z" fill="#00499c"/><path d="m381.186 229.866v1.193h1.193v1.193h1.192v1.192h1.193v1.193h1.193v1.193h-10.734v-1.193h1.192v-1.193h1.193v-1.192h1.193v-1.193h1.192v-1.193z" fill="#00499c"/><path d="m360.91 221.518v1.192h1.193v1.193h1.193v1.193h1.193v1.192h1.192v1.193h1.193v1.193h1.193v1.192h1.192v1.193h1.193v1.193h1.193v1.192h1.192v1.193h1.193v1.193h1.193v1.193h1.192v1.192h1.193v1.193h-34.588v-1.193h1.193v-1.192h1.193v-1.193h1.192v-1.193h1.193v-1.193h1.193v-1.192h1.192v-1.193h1.193v-1.193h1.193v-1.192h1.192v-1.193h1.193v-1.193h1.193v-1.192h1.192v-1.193h1.193v-1.193h1.193v-1.192z" fill="#00499c"/><path d="m414.581 223.903v1.193h1.193v1.192h1.193v1.193h1.192v1.193h1.193v1.192h1.193v1.193h1.192v1.193h1.193v1.193h1.193v1.192h1.192v1.193h1.193v1.193h1.193v1.192h1.193v1.193h1.192v1.193h1.193v1.192h-34.588v-1.192h1.193v-1.193h1.192v-1.193h1.193v-1.192h1.193v-1.193h1.192v-1.193h1.193v-1.192h1.193v-1.193h1.192v-1.193h1.193v-1.193h1.193v-1.192h1.193v-1.193h1.192v-1.193h1.193v-1.192h1.193v-1.193z" fill="#00499c"/></g><path d="m387.149 305.006h-15.504v-1.193h-4.771v-1.193h-3.578v-1.192h-2.386v-1.193h-2.385v-1.193h-1.193v-1.193h-2.385v-1.192h-1.193v-1.193h-2.385v-1.193h-1.193v-1.192h-1.193v-1.193h-1.192v-2.385h-1.193v-1.193h-1.193v-2.385h-1.192v-1.193h-1.193v-2.385h-1.193v-2.386h-1.192v-3.578h-1.193v-4.771h-1.193v-15.505h1.193v-4.77h1.193v-3.578h1.192v-2.386h1.193v-2.385h1.193v-1.193h1.192v-2.385h1.193v-1.193h1.193v-2.385h1.192v-1.193h1.193v-1.193h1.193v-1.192h2.385v-1.193h1.193v-1.193h2.385v-1.192h1.193v-1.193h2.385v-1.193h2.386v-1.192h3.578v-1.193h4.771v-1.193h15.504v1.193h4.771v1.193h3.578v1.192h2.386v1.193h2.385v1.193h1.193v1.192h2.385v1.193h1.193v1.193h2.385v1.192h1.193v1.193h1.192v1.193h1.193v2.385h1.193v1.193h1.193v2.385h1.192v1.193h1.193v2.385h1.193v2.386h1.192v3.578h1.193v4.77h1.193v15.505h-1.193v4.771h-1.193v3.578h-1.192v2.386h-1.193v2.385h-1.193v1.193h-1.192v2.385h-1.193v1.193h-1.193v2.385h-1.193v1.193h-1.192v1.192h-1.193v1.193h-2.385v1.193h-1.193v1.192h-2.385v1.193h-1.193v1.193h-2.385v1.193h-2.386v1.192h-3.578v1.193h-4.771z" fill="#068940"/><path d="m584.315 287.589h-1.282v-3.837h-1.28v-2.557h-1.28v-2.557h-1.28v-2.559h-1.281v-2.557h-1.281v-1.279h-1.28v-2.558h-1.281v-2.557l-1.28-.001v-1.278h-1.28v-1.279h-1.281v-2.558h-1.281v-1.279h-1.28v-1.278l-1.28-.001v-1.278h-1.281v-1.28h-1.28v-1.278h-1.281v-1.279h-1.28v-1.279h-1.281v-1.278h-1.28v-1.28h-1.28v-1.279h-1.282v-1.278h-1.28v-1.279h-2.56v-1.279h-1.281v-1.278h-1.28v-1.28h-2.562v-1.279h-2.56v-1.278h-1.28v-1.279h-2.562v-1.279h-2.561v-1.279h-2.561v-1.279h-2.561v-1.279h-3.842v-1.278h-2.56v-1.279h-3.841v-1.279h-5.122v-1.279h-6.403v-1.279h-8.963v-1.279h-15.366v1.279h-8.963v1.279h-6.402v1.279h-5.123v1.279h-3.84v1.279h-2.562v1.278h-3.841v1.279h-2.561v1.279h-2.561v1.279h-2.561v1.279h-2.561v1.279h-1.28v1.278h-2.561v1.279h-2.562v1.28h-1.28v1.278h-1.28v1.279h-2.561v1.279h-1.281v1.278h-1.28v1.279h-1.281v1.28h-1.28v1.278h-1.28v1.279h-1.28v1.279h-1.282v1.278h-1.28v1.28h-1.28v1.278h-1.281v1.279h-1.28v1.279h-1.281v2.558h-1.28v1.279h-1.281v1.278h-1.28v2.558h-1.28v2.558h-1.282v1.279h-1.28v2.557h-1.28v2.558h-1.28v2.558h-1.281v2.557h-1.281v3.837h-1.28v2.557h-1.281v3.837h-1.28v5.116h-1.28v6.394h-1.281v8.952h-1.281v15.346h1.281v8.951l1.281.001v6.394h1.28v5.115l1.28.001v3.836h1.281v2.558h1.28v3.837h1.281v2.557h1.281v2.557h1.28v2.559h1.28v2.557h1.28v1.279h1.282v2.558h1.28v2.557h1.28v1.279h1.281v1.279h1.28v2.558h1.281v1.279h1.28v1.278h1.281v1.279h1.28v1.28h1.28v1.278h1.282v1.279h1.28v1.279h1.28v1.278h1.28v1.28h1.281v1.279h1.28v1.278h1.281v1.279h2.561v1.279h1.28v1.278h1.28v1.28h2.562v1.278h2.561v1.279h1.28v1.279h2.561v1.278h2.561v1.28h2.561v1.279h2.561v1.278h3.841v1.279h2.562v1.279h3.84v1.278h5.123v1.28h6.402v1.279h8.963v1.278h15.366v-1.278h8.963v-1.279h6.403v-1.28h5.122v-1.278h3.841v-1.279h2.56v-1.279h3.842v-1.278h2.561v-1.279h2.561v-1.28h2.561v-1.278h2.562v-1.279h1.28v-1.279h2.56v-1.278h2.562v-1.28h1.28v-1.278h1.281v-1.279h2.56v-1.279h1.28v-1.278h1.282v-1.279h1.28v-1.28h1.28v-1.278h1.281v-1.279h1.28v-1.279h1.281v-1.278h1.28v-1.28h1.281v-1.279h1.28v-1.278h1.28v-1.279h1.281v-2.558h1.281v-1.279h1.28v-1.279h1.28v-2.557h1.281v-2.558h1.28v-1.279h1.281v-2.557h1.281v-2.559h1.28v-2.557h1.28v-2.557h1.28v-3.837h1.282v-2.558h1.28v-3.836h1.28v-5.116h1.281v-6.394h1.28v-8.952h1.281v-15.346h-1.281v-8.952h-1.28v-6.394h-1.281v-5.116h-1.28v-3.837h-1.28z" fill="#068940"/><path d="m385.957 238.216h1.192v1.192h-8.348v-1.192h1.192v-1.194h1.193v-1.192h-1.193v-1.192h1.193v-1.194h1.193v-1.192h1.192v1.192h1.194v1.194h1.192v1.192h-1.192v1.192h1.192z" fill="#0b5027"/><path d="m387.149 239.408h-1.192v-1.193h-1.193v-1.192h-2.386v-1.193h-2.385v-1.193h-2.386v-1.193h-2.385v-1.192h-3.578v-1.193h-2.385v-1.192h-3.578v-1.193h-4.771v-1.193h-5.963v-1.193h-8.349v-1.192h-14.312v1.192h-8.349v1.193h-5.963v1.193 75.239h166.976 1.192 60.827v-75.239h-4.771v1.193h-3.577v1.192h-2.386v1.193h-3.578v1.192h-2.386v1.193h-2.385v1.193h-2.385v1.193h-2.385v1.192h-1.193v1.193h-2.385v1.192h-2.386v1.194h-1.192v1.192h-1.193v1.193h-2.385-.001v1.192h-1.192v1.193h-1.193v1.192h-1.192l-.001.001v1.192h-1.192v1.193h-1.192-.001v1.193h-1.192-1.193v1.192h-2.386v1.193h-4.77v1.193h-5.964v-1.193h-5.963v-1.193h-4.771v-1.192h-3.578v-1.193h-2.386v-1.192h-3.577v-1.193-.001h-2.386v-1.192h-2.385v-1.193h-1.193v-1.192h-1.192-1.194v-1.193h-1.192-1.193v-1.192-.001h-2.385v-1.192h-.001v-.001h-2.385v-1.192h-3.578v-1.193h-2.385v-1.192h-3.578v-1.193h-4.771v-1.193h-5.963v-1.193h-8.349v-1.192h-14.312v1.192h-8.349v1.193h-5.963v1.193h-4.771v1.193h-3.578v1.192h-2.386z" fill="#8dd122"/><path d="m350.176 220.324h1.193v1.194h1.193v1.192h-1.193v1.192h1.193v1.194h1.192v1.192h-8.349v-1.192h1.193v-1.194h1.193v-1.192h-1.193v-1.192h1.193v-1.194h1.192v-1.192h1.193zm-11.927-1.192h1.193v1.193h1.193v1.193h-1.193v1.192h1.193v1.193h1.192v1.193h-8.348v-1.193h1.192v-1.193h1.193v-1.192h-1.193v-1.193h1.193v-1.193h1.193v-1.192h1.192z" fill="#068940"/><path d="m431.278 227.48h1.194v1.194h1.192v1.192h-1.192v1.193h1.192v1.193h1.192v1.192h-8.348v-1.192h1.192v-1.193h1.193v-1.193h-1.193v-1.192h1.193v-1.194h1.193v-1.192h1.192zm-13.119-1.192h1.193v1.193h1.193v1.193h-1.193v1.192h1.193v1.194h1.192v1.192h-8.348v-1.192h1.192v-1.194h1.193v-1.192h-1.193v-1.193h1.193v-1.193h1.193v-1.192h1.192z" fill="#068940"/><g fill="#0b5027"><path d="m369.259 221.517h-1.193v2.386h3.579v-1.192h-1.193v-2.386h-1.193z"/><path d="m383.572 220.325h1.192v1.193h1.193v1.192h-4.771v-1.192h1.192v-2.386h1.194z"/><path d="m379.994 220.325h1.192v2.385h-3.578v-1.192h1.192v-2.386h1.194z"/></g></g><path d="m378.334 246.272h.002v-.001h24.961v11.505h-19.201v1.917h-5.76v-1.917h-.002v1.917h-1.92v-1.917h-7.68v-1.917h-1.92v-9.588h11.52zm51.846 11.504h-1.92v1.917h-7.681v-1.917h-7.679v-11.505h17.28zm-17.281 0h-9.6v-11.505h9.6zm24.964-9.587h1.92v1.917h1.92v3.835h1.919v3.835h-13.44v-11.505h7.681zm-59.529 7.67h.002v-1.918h-.002zm0-5.753h.002v-1.917h-.002zm-5.76-15.341h1.92v1.918h1.92v1.917h1.92v1.917h-7.68v.001h7.68v5.752h-11.52v-5.752h1.92v-.001h-1.92v-1.917h-1.92v-5.752h7.68zm30.723 11.505h-24.961v-5.752h24.961zm9.602 0h-9.6v-5.752h9.6zm13.441-3.835h3.84v3.835h-17.28v-5.752h13.44zm7.682 1.917h1.92v1.918h-5.76v-3.835h3.84zm-30.725-3.835h-24.961v-1.917h3.84v-1.917h5.76v-1.918h5.761v-1.917h9.6zm7.682-5.752h1.92v5.752h-9.6v-7.669h7.68zm3.841 1.918h3.84v1.917h3.839v1.917h-9.599v-5.752h1.92z" fill="#ec3530"/><path d="m434.022 252.025h-1.92v1.917h1.92z" fill="#ec3530"/><path d="m434.022 250.107h-1.92v1.918h1.92z" fill="#ec3530"/><path d="m434.022 248.19h-1.92v1.917h1.92z" fill="#ec3530"/><path d="m434.022 246.272h-1.92v1.918h1.92z" fill="#ec3530"/><path d="m434.022 244.353h-1.92v1.918h1.92z" fill="#ededed"/><path d="m435.942 252.025h-1.92v1.917h1.92z" fill="#ec3530"/><path d="m434.022 253.942h-1.92v1.917h1.92z" fill="#c00"/><path d="m435.942 253.942h-1.92v1.917h1.92z" fill="#c00"/><path d="m434.022 255.859h-1.92v1.918h1.92z" fill="#c00"/><path d="m432.102 255.859h-1.92v1.918h1.92z" fill="#c00"/><path d="m435.942 255.859h-1.92v1.918h1.92z" fill="#c00"/><path d="m437.862 255.859h-1.92v1.918h1.92z" fill="#c00"/><path d="m414.819 253.942h-1.92v1.917h1.92z" fill="#c00"/><path d="m416.74 253.942h-1.921v1.917h1.921z" fill="#c00"/><path d="m414.819 255.859h-1.92v1.918h1.92z" fill="#c00"/><path d="m416.74 255.859h-1.921v1.918h1.921z" fill="#c00"/><path d="m418.66 255.859h-1.92v1.918h1.92z" fill="#c00"/><path d="m410.979 253.942h-1.92v1.917h1.92z" fill="#c00"/><path d="m412.899 253.942h-1.92v1.917h1.92z" fill="#c00"/><path d="m410.979 255.859h-1.92v1.918h1.92z" fill="#c00"/><path d="m412.899 255.859h-1.92v1.918h1.92z" fill="#c00"/><path d="m407.139 253.942h-1.92v1.917h1.92z" fill="#c00"/><path d="m409.059 253.942h-1.92v1.917h1.92z" fill="#c00"/><path d="m407.139 255.859h-1.92v1.918h1.92z" fill="#c00"/><path d="m409.059 255.859h-1.92v1.918h1.92z" fill="#c00"/><path d="m403.297 253.942h-1.92v1.917h1.92z" fill="#c00"/><path d="m405.219 253.942h-1.92v1.917h1.92z" fill="#c00"/><path d="m403.297 255.859h-1.92v1.918h1.92z" fill="#c00"/><path d="m405.219 255.859h-1.92v1.918h1.92z" fill="#c00"/><path d="m399.457 253.942h-1.92v1.917h1.92z" fill="#c00"/><path d="m401.377 253.942h-1.92v1.917h1.92z" fill="#c00"/><path d="m399.457 255.859h-1.92v1.918h1.92z" fill="#c00"/><path d="m401.377 255.859h-1.92v1.918h1.92z" fill="#c00"/><path d="m395.617 253.942h-1.92v1.917h1.92z" fill="#c00"/><path d="m397.537 253.942h-1.92v1.917h1.92z" fill="#c00"/><path d="m395.617 255.859h-1.92v1.918h1.92z" fill="#c00"/><path d="m397.537 255.859h-1.92v1.918h1.92z" fill="#c00"/><path d="m391.777 253.942h-1.921v1.917h1.921z" fill="#c00"/><path d="m393.697 253.942h-1.92v1.917h1.92z" fill="#c00"/><path d="m391.777 255.859h-1.921v1.918h1.921z" fill="#c00"/><path d="m393.697 255.859h-1.92v1.918h1.92z" fill="#c00"/><path d="m387.936 253.942h-1.92v1.917h1.92z" fill="#c00"/><path d="m389.856 253.942h-1.92v1.917h1.92z" fill="#c00"/><path d="m387.936 255.859h-1.92v1.918h1.92z" fill="#c00"/><path d="m389.856 255.859h-1.92v1.918h1.92z" fill="#c00"/><path d="m384.096 253.942h-1.92v1.917h1.92z" fill="#c00"/><path d="m386.016 253.942h-1.92v1.917h1.92z" fill="#c00"/><path d="m384.096 255.859h-1.92v1.918h1.92z" fill="#c00"/><path d="m386.016 255.859h-1.92v1.918h1.92z" fill="#c00"/><path d="m380.256 253.942h-1.92v1.917h1.92z" fill="#c00"/><path d="m382.176 253.942h-1.92v1.917h1.92z" fill="#c00"/><path d="m380.256 255.859h-1.92v1.918h1.92z" fill="#c00"/><path d="m378.334 253.942h-1.92v1.917h1.92z" fill="#c00"/><path d="m378.334 255.859h-1.92v1.918h1.92z" fill="#c00"/><path d="m376.414 253.942h-1.92v1.917h1.92z" fill="#c00"/><path d="m376.414 255.859h-1.92v1.918h1.92z" fill="#c00"/><path d="m372.574 253.942h-1.92v1.917h1.92z" fill="#c00"/><path d="m372.574 255.859h-1.92v1.918h1.92z" fill="#c00"/><path d="m370.654 253.942h-1.92v1.917h1.92z" fill="#c00"/><path d="m370.654 255.859h-1.92v1.918h1.92z" fill="#c00"/><path d="m382.176 255.859h-1.92v1.918h1.92z" fill="#c00"/><path d="m435.942 250.107h-1.92v1.918h1.92z" fill="#ec3530"/><path d="m435.942 248.19h-1.92v1.917h1.92z" fill="#ec3530"/><path d="m435.942 246.272h-1.92v1.918h1.92z" fill="#ededed"/><path d="m437.862 252.025h-1.92v1.917h1.92z" fill="#ec3530"/><path d="m437.862 253.942h-1.92v1.917h1.92z" fill="#c00"/><path d="m437.862 250.107h-1.92v1.918h1.92z" fill="#ec3530"/><path d="m437.862 248.19h-1.92v1.917h1.92z" fill="#ededed"/><path d="m437.862 246.272h-1.92v1.918h1.92z" fill="#ec3530"/><path d="m435.942 244.353h-1.92v1.918h1.92z" fill="#ec3530"/><path d="m432.102 252.025h-1.92v1.917h1.92z" fill="#ec3530"/><path d="m432.102 250.107h-1.92v1.918h1.92z" fill="#ec3530"/><path d="m432.102 248.19h-1.92v1.917h1.92z" fill="#ec3530"/><path d="m432.102 246.272h-1.92v1.918h1.92z" fill="#ec3530"/><path d="m432.102 244.353h-1.92v1.918h1.92z" fill="#ec3530"/><path d="m374.494 240.518h-1.92v1.918h1.92z" fill="#ec3530"/><path d="m372.574 236.684h-1.92v1.917h1.92z" fill="#ec3530"/><path d="m374.494 236.684h-1.92v1.917h1.92z" fill="#ec3530"/><path d="m372.574 240.518h-1.92v1.918h1.92z" fill="#ec3530"/><path d="m370.654 236.684h-1.92v1.917h1.92z" fill="#ec3530"/><path d="m370.654 240.518h-1.92v1.918h1.92z" fill="#bc0000"/><path d="m368.734 236.684h-1.92v1.917h1.92z" fill="#ec3530"/><path d="m374.494 238.601h-1.92v1.917h1.92z" fill="#bc0000"/><path d="m376.414 238.601h-1.92v1.917h1.92z" fill="#bc0000"/><path d="m372.574 238.601h-1.92v1.917h1.92z" fill="#bc0000"/><path d="m370.654 238.601h-1.92v1.917h1.92z" fill="#bc0000"/><path d="m368.734 238.601h-1.92v1.917h1.92z" fill="#bc0000"/><path d="m368.734 240.518h-1.92v1.918h1.92z" fill="#bc0000"/><path d="m366.814 236.684h-1.92v1.917h1.92z" fill="#ec3530"/><path d="m368.734 234.766h-1.92v1.918h1.92z" fill="#ec3530"/><path d="m366.814 234.766h-1.92v1.918h1.92z" fill="#ec3530"/><path d="m370.654 234.766h-1.92v1.918h1.92z" fill="#ec3530"/><path d="m372.574 234.766h-1.92v1.918h1.92z" fill="#ec3530"/><path d="m370.654 232.849h-1.92v1.917h1.92z" fill="#ec3530"/><path d="m376.414 236.684h-1.92v1.917h1.92z" fill="#ec3530"/><path d="m374.494 234.766h-1.92v1.918h1.92z" fill="#ec3530"/><path d="m372.574 232.849h-1.92v1.917h1.92z" fill="#ec3530"/><path d="m368.734 232.849h-1.92v1.917h1.92z" fill="#ec3530"/><path d="m366.814 232.849h-1.92v1.917h1.92z" fill="#ec3530"/><path d="m368.734 242.436h-1.92v1.917h1.92z" fill="#ff941f"/><path d="m368.734 244.353h-1.92v1.918h1.92z" fill="#ffc431"/><path d="m368.734 246.272h-1.92v1.918h1.92z" fill="#ff941f"/><path d="m370.654 246.272h-1.92v1.918h1.92z" fill="#ff941f"/><path d="m368.734 248.19h-1.92v1.917h1.92z" fill="#ec3530"/><path d="m368.734 250.107h-1.92v1.918h1.92z" fill="#ec3530"/><path d="m368.734 252.025h-1.92v1.917h1.92z" fill="#c00"/><path d="m368.734 253.942h-1.92v1.917h1.92z" fill="#c00"/><path d="m430.18 252.025h-1.92v1.917h1.92z" fill="#ec3530"/><path d="m430.18 250.107h-1.92v1.918h1.92z" fill="#ec3530"/><path d="m430.18 248.19h-1.92v1.917h1.92z" fill="#ec3530"/><path d="m430.18 246.272h-1.92v1.918h1.92z" fill="#ec3530"/><path d="m430.18 244.353h-1.92v1.918h1.92z" fill="#ec3530"/><path d="m430.18 242.436h-1.92v1.917h1.92z" fill="#ec3530"/><path d="m428.26 252.025h-1.92v1.917h1.92z" fill="#ec3530"/><path d="m428.26 250.107h-1.92v1.918h1.92z" fill="#ec3530"/><path d="m428.26 248.19h-1.92v1.917h1.92z" fill="#ec3530"/><path d="m428.26 246.272h-1.92v1.918h1.92z" fill="#ec3530"/><path d="m428.26 244.353h-1.92v1.918h1.92z" fill="#ec3530"/><path d="m428.26 242.436h-1.92v1.917h1.92z" fill="#ec3530"/><path d="m432.102 242.436h-1.92v1.917h1.92z" fill="#ec3530"/><path d="m434.022 242.436h-1.92v1.917h1.92z" fill="#ec3530"/><path d="m426.34 252.025h-1.92v1.917h1.92z" fill="#ec3530"/><path d="m426.34 250.107h-1.92v1.918h1.92z" fill="#ec3530"/><path d="m426.34 248.19h-1.92v1.917h1.92z" fill="#ec3530"/><path d="m426.34 246.272h-1.92v1.918h1.92z" fill="#ec3530"/><path d="m426.34 244.353h-1.92v1.918h1.92z" fill="#ec3530"/><path d="m426.34 242.436h-1.92v1.917h1.92z" fill="#ec3530"/><path d="m424.42 252.025h-1.92v1.917h1.92z" fill="#ec3530"/><path d="m424.42 250.107h-1.92v1.918h1.92z" fill="#ec3530"/><path d="m424.42 248.19h-1.92v1.917h1.92z" fill="#ec3530"/><path d="m424.42 246.272h-1.92v1.918h1.92z" fill="#ec3530"/><path d="m424.42 244.353h-1.92v1.918h1.92z" fill="#ec3530"/><path d="m424.42 242.436h-1.92v1.917h1.92z" fill="#ec3530"/><path d="m422.5 252.025h-1.92v1.917h1.92z" fill="#ec3530"/><path d="m422.5 250.107h-1.92v1.918h1.92z" fill="#ec3530"/><path d="m422.5 248.19h-1.92v1.917h1.92z" fill="#ec3530"/><path d="m422.5 246.272h-1.92v1.918h1.92z" fill="#ec3530"/><path d="m422.5 244.353h-1.92v1.918h1.92z" fill="#ec3530"/><path d="m422.5 242.436h-1.92v1.917h1.92z" fill="#ec3530"/><path d="m420.58 252.025h-1.92v1.917h1.92z" fill="#ec3530"/><path d="m420.58 250.107h-1.92v1.918h1.92z" fill="#ec3530"/><path d="m420.58 248.19h-1.92v1.917h1.92z" fill="#ec3530"/><path d="m420.58 246.272h-1.92v1.918h1.92z" fill="#ec3530"/><path d="m420.58 244.353h-1.92v1.918h1.92z" fill="#ec3530"/><path d="m420.58 242.436h-1.92v1.917h1.92z" fill="#ec3530"/><path d="m418.66 252.025h-1.92v1.917h1.92z" fill="#ec3530"/><path d="m418.66 250.107h-1.92v1.918h1.92z" fill="#ec3530"/><path d="m418.66 248.19h-1.92v1.917h1.92z" fill="#ec3530"/><path d="m418.66 246.272h-1.92v1.918h1.92z" fill="#ec3530"/><path d="m418.66 244.353h-1.92v1.918h1.92z" fill="#ec3530"/><path d="m418.66 242.436h-1.92v1.917h1.92z" fill="#ec3530"/><path d="m418.66 236.684h-1.92v1.917h1.92z" fill="#23b6d8"/><path d="m420.58 238.601h-1.92v1.917h1.92z" fill="#23b6d8"/><path d="m422.5 238.601h-1.92v1.917h1.92z" fill="#23b6d8"/><path d="m424.42 240.518h-1.92v1.918h1.92z" fill="#23b6d8"/><path d="m426.34 240.518h-1.92v1.918h1.92z" fill="#23b6d8"/><path d="m416.74 236.684h-1.921v1.917h1.921z" fill="#23b6d8"/><path d="m414.819 234.766h-1.92v1.918h1.92z" fill="#23b6d8"/><path d="m412.899 234.766h-1.92v1.918h1.92z" fill="#23b6d8"/><path d="m410.979 232.849h-1.92v1.917h1.92z" fill="#ec3530"/><path d="m416.74 240.518h-1.921v1.918h1.921z" fill="#c00"/><path d="m414.819 238.601h-1.92v1.917h1.92z" fill="#8aeeff"/><path d="m418.66 238.601h-1.92v1.917h1.92z" fill="#dcfcff"/><path d="m418.66 240.518h-1.92v1.918h1.92z" fill="#8aeeff"/><path d="m420.58 240.518h-1.92v1.918h1.92z" fill="#dcfcff"/><path d="m422.5 240.518h-1.92v1.918h1.92z" fill="#dcfcff"/><path d="m416.74 238.601h-1.921v1.917h1.921z" fill="#dcfcff"/><path d="m412.899 236.684h-1.92v1.917h1.92z" fill="#dcfcff"/><path d="m414.819 236.684h-1.92v1.917h1.92z" fill="#dcfcff"/><path d="m410.979 234.766h-1.92v1.918h1.92z" fill="#dcfcff"/><path d="m414.819 240.518h-1.92v1.918h1.92z" fill="#8aeeff"/><path d="m412.899 238.601h-1.92v1.917h1.92z" fill="#8aeeff"/><path d="m410.979 236.684h-1.92v1.917h1.92z" fill="#8aeeff"/><path d="m409.059 234.766h-1.92v1.918h1.92z" fill="#dcfcff"/><path d="m412.899 240.518h-1.92v1.918h1.92z" fill="#8aeeff"/><path d="m410.979 238.601h-1.92v1.917h1.92z" fill="#8aeeff"/><path d="m409.059 236.684h-1.92v1.917h1.92z" fill="#8aeeff"/><path d="m407.139 234.766h-1.92v1.918h1.92z" fill="#dcfcff"/><path d="m410.979 240.518h-1.92v1.918h1.92z" fill="#8aeeff"/><path d="m409.059 238.601h-1.92v1.917h1.92z" fill="#8aeeff"/><path d="m407.139 236.684h-1.92v1.917h1.92z" fill="#8aeeff"/><path d="m405.219 234.766h-1.92v1.918h1.92z" fill="#dcfcff"/><path d="m409.059 240.518h-1.92v1.918h1.92z" fill="#3dd2f4"/><path d="m407.139 240.518h-1.92v1.918h1.92z" fill="#8aeeff"/><path d="m405.219 240.518h-1.92v1.918h1.92z" fill="#3dd2f4"/><path d="m403.297 240.518h-1.92v1.918h1.92z" fill="#3dd2f4"/><path d="m401.377 240.518h-1.92v1.918h1.92z" fill="#3dd2f4"/><path d="m407.139 238.601h-1.92v1.917h1.92z" fill="#3dd2f4"/><path d="m405.219 238.601h-1.92v1.917h1.92z" fill="#8aeeff"/><path d="m403.297 238.601h-1.92v1.917h1.92z" fill="#3dd2f4"/><path d="m401.377 238.601h-1.92v1.917h1.92z" fill="#3dd2f4"/><path d="m405.219 236.684h-1.92v1.917h1.92z" fill="#3dd2f4"/><path d="m403.297 236.684h-1.92v1.917h1.92z" fill="#8aeeff"/><path d="m401.377 236.684h-1.92v1.917h1.92z" fill="#3dd2f4"/><path d="m403.297 234.766h-1.92v1.918h1.92z" fill="#dcfcff"/><path d="m401.377 234.766h-1.92v1.918h1.92z" fill="#dcfcff"/><path d="m409.059 232.849h-1.92v1.917h1.92z" fill="#ec3530"/><path d="m407.139 232.849h-1.92v1.917h1.92z" fill="#ec3530"/><path d="m405.219 232.849h-1.92v1.917h1.92z" fill="#ec3530"/><path d="m403.297 232.849h-1.92v1.917h1.92z" fill="#ec3530"/><path d="m401.377 232.849h-1.92v1.917h1.92z" fill="#ec3530"/><path d="m399.457 232.849h-1.92v1.917h1.92z" fill="#ec3530"/><path d="m399.457 234.766h-1.92v1.918h1.92z" fill="#dcfcff"/><path d="m399.457 236.684h-1.92v1.917h1.92z" fill="#3dd2f4"/><path d="m399.457 238.601h-1.92v1.917h1.92z" fill="#3dd2f4"/><path d="m399.457 240.518h-1.92v1.918h1.92z" fill="#3dd2f4"/><path d="m397.537 232.849h-1.92v1.917h1.92z" fill="#ec3530"/><path d="m395.617 234.766h-1.92v1.918h1.92z" fill="#ec3530"/><path d="m393.697 234.766h-1.92v1.918h1.92z" fill="#ec3530"/><path d="m395.617 232.849h-1.92v1.917h1.92z" fill="#ec3530"/><path d="m391.777 234.766h-1.921v1.918h1.921z" fill="#ec3530"/><path d="m389.856 234.766h-1.92v1.918h1.92z" fill="#ec3530"/><path d="m395.617 236.684h-1.92v1.917h1.92z" fill="#ec3530"/><path d="m393.697 236.684h-1.92v1.917h1.92z" fill="#ec3530"/><path d="m391.777 236.684h-1.921v1.917h1.921z" fill="#ec3530"/><path d="m389.856 236.684h-1.92v1.917h1.92z" fill="#ec3530"/><path d="m387.936 236.684h-1.92v1.917h1.92z" fill="#ec3530"/><path d="m395.617 238.601h-1.92v1.917h1.92z" fill="#ec3530"/><path d="m393.697 238.601h-1.92v1.917h1.92z" fill="#ec3530"/><path d="m391.777 238.601h-1.921v1.917h1.921z" fill="#ec3530"/><path d="m389.856 238.601h-1.92v1.917h1.92z" fill="#ec3530"/><path d="m387.936 238.601h-1.92v1.917h1.92z" fill="#ec3530"/><path d="m386.016 238.601h-1.92v1.917h1.92z" fill="#ec3530"/><path d="m395.617 240.518h-1.92v1.918h1.92z" fill="#ec3530"/><path d="m393.697 240.518h-1.92v1.918h1.92z" fill="#c00"/><path d="m391.777 240.518h-1.921v1.918h1.921z" fill="#c00"/><path d="m389.856 240.518h-1.92v1.918h1.92z" fill="#ec3530"/><path d="m387.936 240.518h-1.92v1.918h1.92z" fill="#ec3530"/><path d="m386.016 240.518h-1.92v1.918h1.92z" fill="#ec3530"/><path d="m384.096 240.518h-1.92v1.918h1.92z" fill="#ec3530"/><path d="m397.537 234.766h-1.92v1.918h1.92z" fill="#dcfcff"/><path d="m397.537 236.684h-1.92v1.917h1.92z" fill="#3dd2f4"/><path d="m397.537 238.601h-1.92v1.917h1.92z" fill="#3dd2f4"/><path d="m397.537 240.518h-1.92v1.918h1.92z" fill="#ec3530"/><path d="m395.617 232.849h-1.92v1.917h1.92z" fill="#ec3530"/><path d="m386.016 236.684h-1.92v1.917h1.92z" fill="#ec3530"/><path d="m384.096 238.601h-1.92v1.917h1.92z" fill="#ec3530"/><path d="m382.176 240.518h-1.92v1.918h1.92z" fill="#ec3530"/><path d="m380.256 238.601h-1.92v1.917h1.92z" fill="#ec3530"/><path d="m378.334 240.518h-1.92v1.918h1.92z" fill="#ec3530"/><path d="m378.334 238.601h-1.92v1.917h1.92z" fill="#ec3530"/><path d="m376.414 240.518h-1.92v1.918h1.92z" fill="#ec3530"/><path d="m384.096 236.684h-1.92v1.917h1.92z" fill="#ec3530"/><path d="m382.176 238.601h-1.92v1.917h1.92z" fill="#ec3530"/><path d="m380.256 240.518h-1.92v1.918h1.92z" fill="#ec3530"/><path d="m416.74 252.025h-1.921v1.917h1.921z" fill="#ec3530"/><path d="m416.74 250.107h-1.921v1.918h1.921z" fill="#ec3530"/><path d="m416.74 248.19h-1.921v1.917h1.921z" fill="#ec3530"/><path d="m416.74 246.272h-1.921v1.918h1.921z" fill="#ec3530"/><path d="m416.74 244.353h-1.921v1.918h1.921z" fill="#ec3530"/><path d="m416.74 242.436h-1.921v1.917h1.921z" fill="#c00"/><g fill="#ec3530"><path d="m414.819 252.025h-1.92v1.917h1.92z"/><path d="m414.819 250.107h-1.92v1.918h1.92z"/><path d="m414.819 248.19h-1.92v1.917h1.92z"/><path d="m414.819 246.272h-1.92v1.918h1.92z"/><path d="m414.819 244.353h-1.92v1.918h1.92z"/><path d="m414.819 242.436h-1.92v1.917h1.92z"/><path d="m412.899 252.025h-1.92v1.917h1.92z"/><path d="m412.899 250.107h-1.92v1.918h1.92z"/><path d="m412.899 248.19h-1.92v1.917h1.92z"/><path d="m412.899 246.272h-1.92v1.918h1.92z"/><path d="m412.899 244.353h-1.92v1.918h1.92z"/><path d="m412.899 242.436h-1.92v1.917h1.92z"/><path d="m410.979 252.025h-1.92v1.917h1.92z"/><path d="m410.979 250.107h-1.92v1.918h1.92z"/><path d="m410.979 248.19h-1.92v1.917h1.92z"/><path d="m410.979 246.272h-1.92v1.918h1.92z"/><path d="m410.979 244.353h-1.92v1.918h1.92z"/><path d="m410.979 242.436h-1.92v1.917h1.92z"/><path d="m409.059 252.025h-1.92v1.917h1.92z"/><path d="m409.059 250.107h-1.92v1.918h1.92z"/><path d="m409.059 248.19h-1.92v1.917h1.92z"/><path d="m409.059 246.272h-1.92v1.918h1.92z"/><path d="m409.059 244.353h-1.92v1.918h1.92z"/><path d="m409.059 242.436h-1.92v1.917h1.92z"/><path d="m407.139 252.025h-1.92v1.917h1.92z"/><path d="m407.139 250.107h-1.92v1.918h1.92z"/><path d="m407.139 248.19h-1.92v1.917h1.92z"/><path d="m407.139 246.272h-1.92v1.918h1.92z"/><path d="m407.139 244.353h-1.92v1.918h1.92z"/><path d="m407.139 242.436h-1.92v1.917h1.92z"/><path d="m405.219 252.025h-1.92v1.917h1.92z"/><path d="m405.219 250.107h-1.92v1.918h1.92z"/><path d="m405.219 248.19h-1.92v1.917h1.92z"/><path d="m405.219 246.272h-1.92v1.918h1.92z"/><path d="m405.219 244.353h-1.92v1.918h1.92z"/><path d="m405.219 242.436h-1.92v1.917h1.92z"/><path d="m403.297 252.025h-1.92v1.917h1.92z"/><path d="m403.297 250.107h-1.92v1.918h1.92z"/><path d="m403.297 248.19h-1.92v1.917h1.92z"/><path d="m403.297 246.272h-1.92v1.918h1.92z"/><path d="m403.297 244.353h-1.92v1.918h1.92z"/><path d="m403.297 242.436h-1.92v1.917h1.92z"/><path d="m401.377 252.025h-1.92v1.917h1.92z"/><path d="m401.377 250.107h-1.92v1.918h1.92z"/><path d="m401.377 248.19h-1.92v1.917h1.92z"/><path d="m401.377 246.272h-1.92v1.918h1.92z"/><path d="m401.377 244.353h-1.92v1.918h1.92z"/><path d="m401.377 242.436h-1.92v1.917h1.92z"/><path d="m399.457 252.025h-1.92v1.917h1.92z"/><path d="m399.457 250.107h-1.92v1.918h1.92z"/><path d="m399.457 248.19h-1.92v1.917h1.92z"/><path d="m399.457 246.272h-1.92v1.918h1.92z"/><path d="m399.457 244.353h-1.92v1.918h1.92z"/><path d="m399.457 242.436h-1.92v1.917h1.92z"/><path d="m397.537 252.025h-1.92v1.917h1.92z"/><path d="m397.537 250.107h-1.92v1.918h1.92z"/><path d="m397.537 248.19h-1.92v1.917h1.92z"/><path d="m397.537 246.272h-1.92v1.918h1.92z"/></g><path d="m397.537 244.353h-1.92v1.918h1.92z" fill="#c00"/><path d="m399.457 244.353h-1.92v1.918h1.92z" fill="#c00"/><path d="m401.377 244.353h-1.92v1.918h1.92z" fill="#c00"/><path d="m403.297 244.353h-1.92v1.918h1.92z" fill="#c00"/><path d="m405.219 244.353h-1.92v1.918h1.92z" fill="#c00"/><path d="m407.139 244.353h-1.92v1.918h1.92z" fill="#c00"/><path d="m409.059 244.353h-1.92v1.918h1.92z" fill="#c00"/><path d="m410.979 244.353h-1.92v1.918h1.92z" fill="#c00"/><path d="m412.899 244.353h-1.92v1.918h1.92z" fill="#c00"/><path d="m414.819 244.353h-1.92v1.918h1.92z" fill="#c00"/><path d="m416.74 244.353h-1.921v1.918h1.921z" fill="#c00"/><path d="m418.66 244.353h-1.92v1.918h1.92z" fill="#c00"/><path d="m420.58 244.353h-1.92v1.918h1.92z" fill="#c00"/><path d="m397.537 242.436h-1.92v1.917h1.92z" fill="#ec3530"/><path d="m395.617 252.025h-1.92v1.917h1.92z" fill="#ec3530"/><path d="m395.617 250.107h-1.92v1.918h1.92z" fill="#ec3530"/><path d="m395.617 248.19h-1.92v1.917h1.92z" fill="#ec3530"/><path d="m395.617 246.272h-1.92v1.918h1.92z" fill="#ec3530"/><path d="m395.617 244.353h-1.92v1.918h1.92z" fill="#c00"/><path d="m395.617 242.436h-1.92v1.917h1.92z" fill="#c00"/><path d="m393.697 252.025h-1.92v1.917h1.92z" fill="#ec3530"/><path d="m393.697 250.107h-1.92v1.918h1.92z" fill="#ec3530"/><path d="m393.697 248.19h-1.92v1.917h1.92z" fill="#ec3530"/><path d="m393.697 246.272h-1.92v1.918h1.92z" fill="#ec3530"/><path d="m393.697 244.353h-1.92v1.918h1.92z" fill="#ec3530"/><path d="m393.697 242.436h-1.92v1.917h1.92z" fill="#c00"/><path d="m391.777 252.025h-1.921v1.917h1.921z" fill="#ec3530"/><path d="m391.777 250.107h-1.921v1.918h1.921z" fill="#ec3530"/><path d="m391.777 248.19h-1.921v1.917h1.921z" fill="#ec3530"/><path d="m391.777 246.272h-1.921v1.918h1.921z" fill="#ec3530"/><path d="m391.777 244.353h-1.921v1.918h1.921z" fill="#ec3530"/><path d="m391.777 242.436h-1.921v1.917h1.921z" fill="#ec3530"/><path d="m389.856 252.025h-1.92v1.917h1.92z" fill="#c00"/><path d="m389.856 250.107h-1.92v1.918h1.92z" fill="#ec3530"/><path d="m389.856 248.19h-1.92v1.917h1.92z" fill="#ec3530"/><path d="m389.856 246.272h-1.92v1.918h1.92z" fill="#ec3530"/><path d="m389.856 244.353h-1.92v1.918h1.92z" fill="#ec3530"/><path d="m389.856 242.436h-1.92v1.917h1.92z" fill="#ec3530"/><path d="m387.936 252.025h-1.92v1.917h1.92z" fill="#ec3530"/><path d="m387.936 250.107h-1.92v1.918h1.92z" fill="#ec3530"/><path d="m387.936 248.19h-1.92v1.917h1.92z" fill="#ec3530"/><path d="m387.936 246.272h-1.92v1.918h1.92z" fill="#ec3530"/><path d="m387.936 244.353h-1.92v1.918h1.92z" fill="#ec3530"/><path d="m387.936 242.436h-1.92v1.917h1.92z" fill="#ec3530"/><path d="m386.016 252.025h-1.92v1.917h1.92z" fill="#ec3530"/><path d="m386.016 250.107h-1.92v1.918h1.92z" fill="#ec3530"/><path d="m386.016 248.19h-1.92v1.917h1.92z" fill="#ec3530"/><path d="m386.016 246.272h-1.92v1.918h1.92z" fill="#ec3530"/><path d="m386.016 244.353h-1.92v1.918h1.92z" fill="#ec3530"/><path d="m386.016 242.436h-1.92v1.917h1.92z" fill="#ec3530"/><path d="m384.096 252.025h-1.92v1.917h1.92z" fill="#ec3530"/><path d="m384.096 250.107h-1.92v1.918h1.92z" fill="#ec3530"/><path d="m384.096 248.19h-1.92v1.917h1.92z" fill="#ec3530"/><path d="m384.096 246.272h-1.92v1.918h1.92z" fill="#ec3530"/><path d="m384.096 244.353h-1.92v1.918h1.92z" fill="#ec3530"/><path d="m384.096 242.436h-1.92v1.917h1.92z" fill="#ec3530"/><path d="m382.176 252.025h-1.92v1.917h1.92z" fill="#ec3530"/><path d="m382.176 250.107h-1.92v1.918h1.92z" fill="#ec3530"/><path d="m382.176 248.19h-1.92v1.917h1.92z" fill="#ec3530"/><path d="m382.176 246.272h-1.92v1.918h1.92z" fill="#ec3530"/><path d="m382.176 244.353h-1.92v1.918h1.92z" fill="#ec3530"/><path d="m382.176 242.436h-1.92v1.917h1.92z" fill="#ec3530"/><path d="m380.256 252.025h-1.92v1.917h1.92z" fill="#ec3530"/><path d="m380.256 250.107h-1.92v1.918h1.92z" fill="#ec3530"/><path d="m380.256 248.19h-1.92v1.917h1.92z" fill="#ec3530"/><path d="m380.256 246.272h-1.92v1.918h1.92z" fill="#ec3530"/><path d="m380.256 244.353h-1.92v1.918h1.92z" fill="#ec3530"/><path d="m380.256 242.436h-1.92v1.917h1.92z" fill="#ec3530"/><path d="m378.334 252.025h-1.92v1.917h1.92z" fill="#ec3530"/><path d="m378.334 250.107h-1.92v1.918h1.92z" fill="#ec3530"/><path d="m378.334 248.19h-1.92v1.917h1.92z" fill="#ec3530"/><path d="m378.334 246.272h-1.92v1.918h1.92z" fill="#ec3530"/><path d="m378.334 244.353h-1.92v1.918h1.92z" fill="#ec3530"/><path d="m378.334 242.436h-1.92v1.917h1.92z" fill="#ec3530"/><path d="m376.414 252.025h-1.92v1.917h1.92z" fill="#ec3530"/><path d="m376.414 250.107h-1.92v1.918h1.92z" fill="#ec3530"/><path d="m376.414 248.19h-1.92v1.917h1.92z" fill="#ec3530"/><path d="m376.414 246.272h-1.92v1.918h1.92z" fill="#ec3530"/><path d="m376.414 244.353h-1.92v1.918h1.92z" fill="#ec3530"/><path d="m376.414 242.436h-1.92v1.917h1.92z" fill="#ec3530"/><path d="m374.494 253.942h-1.92v1.917h1.92z" fill="#c00"/><path d="m374.494 255.859h-1.92v1.918h1.92z" fill="#c00"/><path d="m374.494 252.025h-1.92v1.917h1.92z" fill="#ec3530"/><path d="m374.494 250.107h-1.92v1.918h1.92z" fill="#ec3530"/><path d="m374.494 248.19h-1.92v1.917h1.92z" fill="#ec3530"/><path d="m374.494 246.272h-1.92v1.918h1.92z" fill="#ec3530"/><path d="m374.494 244.353h-1.92v1.918h1.92z" fill="#ec3530"/><path d="m374.494 242.436h-1.92v1.917h1.92z" fill="#ec3530"/><path d="m372.574 252.025h-1.92v1.917h1.92z" fill="#ec3530"/><path d="m372.574 250.107h-1.92v1.918h1.92z" fill="#ec3530"/><path d="m372.574 248.19h-1.92v1.917h1.92z" fill="#ec3530"/><path d="m372.574 246.272h-1.92v1.918h1.92z" fill="#ec3530"/><path d="m372.574 244.353h-1.92v1.918h1.92z" fill="#ec3530"/><path d="m372.574 242.436h-1.92v1.917h1.92z" fill="#ec3530"/><path d="m370.654 252.025h-1.92v1.917h1.92z" fill="#ec3530"/><path d="m370.654 250.107h-1.92v1.918h1.92z" fill="#ec3530"/><path d="m370.654 248.19h-1.92v1.917h1.92z" fill="#ec3530"/><path d="m370.654 244.353h-1.92v1.918h1.92z" fill="#ffc431"/><path d="m370.654 242.436h-1.92v1.917h1.92z" fill="#ff941f"/><path d="m389.856 240.518h-1.92v1.918h1.92z" fill="#c00"/><path d="m387.936 240.518h-1.92v1.918h1.92z" fill="#c00"/><path d="m386.016 240.518h-1.92v1.918h1.92z" fill="#c00"/><path d="m384.096 240.518h-1.92v1.918h1.92z" fill="#c00"/><path d="m382.176 240.518h-1.92v1.918h1.92z" fill="#c00"/><path d="m380.256 240.518h-1.92v1.918h1.92z" fill="#c00"/><path d="m378.334 240.518h-1.92v1.918h1.92z" fill="#c00"/><path d="m376.414 240.518h-1.92v1.918h1.92z" fill="#c00"/><path d="m374.494 240.518h-1.92v1.918h1.92z" fill="#c00"/><path d="m372.574 240.518h-1.92v1.918h1.92z" fill="#c00"/><path d="m418.66 248.19v7.669h1.92v1.918h7.68v-1.918h1.92v-7.669h-1.92v-1.918h-7.68v1.918zm1.92 1.917h1.92v-1.917h3.84v1.917h1.92v3.835h-1.92v1.917h-3.84v-1.917h-1.92z" fill="#6d6d6d"/><path d="m422.5 250.107h-1.92v3.835h1.92v1.917h3.84v-1.917h1.92v-3.835h-1.92v-1.917h-3.84z" fill="#adadad"/><path d="m428.26 244.353h-1.92v1.918h1.92z" fill="#161616"/><path d="m430.18 246.272h-1.92v1.918h1.92z" fill="#161616"/><path d="m430.18 255.859h-1.92v1.918h1.92z" fill="#161616"/><path d="m426.34 248.19h-1.92v1.917h1.92z" fill="#ccc"/><path d="m424.42 248.19h-1.92v1.917h1.92z" fill="#ccc"/><path d="m422.5 250.107h-1.92v1.918h1.92z" fill="#ccc"/><path d="m422.5 252.025h-1.92v1.917h1.92z" fill="#ccc"/><path d="m424.42 253.942h-1.92v1.917h1.92z" fill="#ccc"/><path d="m426.34 253.942h-1.92v1.917h1.92z" fill="#ccc"/><path d="m428.26 252.025h-1.92v1.917h1.92z" fill="#ccc"/><path d="m428.26 250.107h-1.92v1.918h1.92z" fill="#ccc"/><path d="m432.102 248.19h-1.92v1.917h1.92z" fill="#161616"/><path d="m432.102 250.107h-1.92v1.918h1.92z" fill="#161616"/><path d="m432.102 252.025h-1.92v1.917h1.92z" fill="#161616"/><path d="m432.102 253.942h-1.92v1.917h1.92z" fill="#161616"/><path d="m428.26 257.777h-1.92v1.917h1.92z" fill="#161616"/><path d="m426.34 257.777h-1.92v1.917h1.92z" fill="#161616"/><path d="m424.42 257.777h-1.92v1.917h1.92z" fill="#161616"/><path d="m418.66 252.025h-1.92v1.917h1.92z" fill="#161616"/><path d="m418.66 253.942h-1.92v1.917h1.92z" fill="#161616"/><path d="m420.58 255.859h-1.92v1.918h1.92z" fill="#161616"/><path d="m422.5 257.777h-1.92v1.917h1.92z" fill="#161616"/><path d="m418.66 250.107h-1.92v1.918h1.92z" fill="#161616"/><path d="m418.66 248.19h-1.92v1.917h1.92z" fill="#161616"/><path d="m420.58 246.272h-1.92v1.918h1.92z" fill="#161616"/><path d="m422.5 244.353h-1.92v1.918h1.92z" fill="#161616"/><path d="m426.34 244.353h-1.92v1.918h1.92z" fill="#161616"/><path d="m424.42 244.353h-1.92v1.918h1.92z" fill="#161616"/><path d="m374.494 248.19v7.669h1.92v1.918h7.681v-1.918h1.92v-7.669h-1.92v-1.918h-7.681v1.918zm1.92 1.917h1.92v-1.917h3.84v1.917h1.921v3.835h-1.921v1.917h-3.84v-1.917h-1.92z" fill="#6d6d6d"/><path d="m378.336 250.107h-1.922v3.835h1.922v1.917h3.84v-1.917h1.92v-3.835h-1.92v-1.917h-3.84z" fill="#adadad"/><path d="m384.096 244.353h-1.92v1.918h1.92z" fill="#161616"/><path d="m386.016 246.272h-1.92v1.918h1.92z" fill="#161616"/><path d="m386.016 255.859h-1.92v1.918h1.92z" fill="#161616"/><path d="m382.176 248.19h-1.92v1.917h1.92z" fill="#ccc"/><path d="m380.256 248.19h-1.92v1.917h1.92z" fill="#ccc"/><path d="m378.334 250.107h-1.92v1.918h1.92z" fill="#ccc"/><path d="m378.334 252.025h-1.92v1.917h1.92z" fill="#ccc"/><path d="m380.256 253.942h-1.92v1.917h1.92z" fill="#ccc"/><path d="m382.176 253.942h-1.92v1.917h1.92z" fill="#ccc"/><path d="m384.096 252.025h-1.92v1.917h1.92z" fill="#ccc"/><path d="m384.096 250.107h-1.92v1.918h1.92z" fill="#ccc"/><path d="m387.936 248.19h-1.92v1.917h1.92z" fill="#161616"/><path d="m387.936 250.107h-1.92v1.918h1.92z" fill="#161616"/><path d="m387.936 252.025h-1.92v1.917h1.92z" fill="#161616"/><path d="m387.936 253.942h-1.92v1.917h1.92z" fill="#161616"/><path d="m384.096 257.777h-1.92v1.917h1.92z" fill="#161616"/><path d="m382.176 257.777h-1.92v1.917h1.92z" fill="#161616"/><path d="m380.256 257.777h-1.92v1.917h1.92z" fill="#161616"/><path d="m374.494 252.025h-1.92v1.917h1.92z" fill="#161616"/><path d="m374.494 253.942h-1.92v1.917h1.92z" fill="#161616"/><path d="m376.414 255.859h-1.92v1.918h1.92z" fill="#161616"/><path d="m378.334 257.777h-1.92v1.917h1.92z" fill="#161616"/><path d="m374.494 250.107h-1.92v1.918h1.92z" fill="#161616"/><path d="m374.494 248.19h-1.92v1.917h1.92z" fill="#161616"/><path d="m376.414 246.272h-1.92v1.918h1.92z" fill="#161616"/><path d="m378.334 244.353h-1.92v1.918h1.92z" fill="#161616"/><path d="m382.176 244.353h-1.92v1.918h1.92z" fill="#161616"/><path d="m380.256 244.353h-1.92v1.918h1.92z" fill="#161616"/><path d="m452.046 219.392h-15.162v-.843h-1.685v-.841h-.842v-1.685h-.842v-3.369h.842v-1.685h.842v-.842h1.685v-.842h1.684v-.843h.843v-.842h.842v-.842h.843v-.842h1.684v-.843h4.211v.843h1.686v.842h.842v.842h.842v.842h.842v1.685h.843v3.369h.842v.843h.842v3.369h-.842v.841h-.842z" fill="#fff" opacity=".8"/><path d="m338.02 262.951h-9.893v1.71h9.893z" fill="#fff"/><path d="m357.125 262.951h-9.893v1.71h9.893z" fill="#fff"/><path d="m376.23 262.951h-9.893v1.71h9.893z" fill="#fff"/><path d="m395.335 262.951h-9.893v1.71h9.893z" fill="#fff"/><path d="m414.441 262.951h-9.894v1.71h9.894z" fill="#fff"/><path d="m433.546 262.951h-9.894v1.71h9.894z" fill="#fff"/><path d="m356.873 281.939h-19.201v1.917h-5.76v-1.917h-.002v1.917h-1.92v-1.917h-7.681v-1.917h-1.92v-9.588h36.484zm26.883 0h-1.92v1.917h-7.681v-1.917h-17.28v-11.505h26.881zm7.682-9.587h1.92v1.917h1.92v3.835h1.92v3.835h-13.44v-11.505h7.68zm-59.528 7.67h.002v-1.918h-.002zm0-5.753h.002v-1.917h-.002zm-5.761-15.341h1.92v1.918h1.921v1.917h1.92v7.67h-11.521v-7.67h-1.919v-5.752h7.679zm30.724 11.505h-24.961v-7.67h3.84v-1.917h5.76v-1.918h5.76v-1.917h9.601zm7.682-11.505h3.84v1.918h3.84v1.917h3.84v1.918h3.841v1.917h3.84v3.835h-26.881v-13.422h7.68zm23.043 9.587h1.919v1.918h-5.759v-3.835h3.84z" fill="#41dd73"/><path d="m387.598 276.187h-1.92v1.917h1.92z" fill="#41dd73"/><path d="m387.598 274.27h-1.92v1.917h1.92z" fill="#41dd73"/><path d="m387.598 272.352h-1.92v1.918h1.92z" fill="#41dd73"/><path d="m387.598 270.435h-1.92v1.917h1.92z" fill="#41dd73"/><path d="m387.598 268.516h-1.92v1.917h1.92z" fill="#ededed"/><path d="m389.518 276.187h-1.92v1.917h1.92z" fill="#41dd73"/><path d="m387.598 278.104h-1.92v1.918h1.92z" fill="#19cc52"/><path d="m389.518 278.104h-1.92v1.918h1.92z" fill="#19cc52"/><path d="m387.598 280.022h-1.92v1.917h1.92z" fill="#19cc52"/><path d="m385.678 280.022h-1.921v1.917h1.921z" fill="#19cc52"/><path d="m389.518 280.022h-1.92v1.917h1.92z" fill="#19cc52"/><path d="m391.438 280.022h-1.92v1.917h1.92z" fill="#19cc52"/><path d="m368.395 278.104h-1.92v1.918h1.92z" fill="#19cc52"/><path d="m370.315 278.104h-1.92v1.918h1.92z" fill="#19cc52"/><path d="m368.395 280.022h-1.92v1.917h1.92z" fill="#19cc52"/><path d="m370.315 280.022h-1.92v1.917h1.92z" fill="#19cc52"/><path d="m372.235 280.022h-1.92v1.917h1.92z" fill="#19cc52"/><path d="m364.555 278.104h-1.92v1.918h1.92z" fill="#19cc52"/><path d="m366.475 278.104h-1.92v1.918h1.92z" fill="#19cc52"/><path d="m364.555 280.022h-1.92v1.917h1.92z" fill="#19cc52"/><path d="m366.475 280.022h-1.92v1.917h1.92z" fill="#19cc52"/><path d="m360.715 278.104h-1.92v1.918h1.92z" fill="#19cc52"/><path d="m362.635 278.104h-1.92v1.918h1.92z" fill="#19cc52"/><path d="m360.715 280.022h-1.92v1.917h1.92z" fill="#19cc52"/><path d="m362.635 280.022h-1.92v1.917h1.92z" fill="#19cc52"/><path d="m356.873 278.104h-1.92v1.918h1.92z" fill="#19cc52"/><path d="m358.795 278.104h-1.921v1.918h1.921z" fill="#19cc52"/><path d="m356.873 280.022h-1.92v1.917h1.92z" fill="#19cc52"/><path d="m358.795 280.022h-1.921v1.917h1.921z" fill="#19cc52"/><path d="m353.033 278.104h-1.92v1.918h1.92z" fill="#19cc52"/><path d="m354.953 278.104h-1.92v1.918h1.92z" fill="#19cc52"/><path d="m353.033 280.022h-1.92v1.917h1.92z" fill="#19cc52"/><path d="m354.953 280.022h-1.92v1.917h1.92z" fill="#19cc52"/><path d="m349.192 278.104h-1.92v1.918h1.92z" fill="#19cc52"/><path d="m351.112 278.104h-1.92v1.918h1.92z" fill="#19cc52"/><path d="m349.192 280.022h-1.92v1.917h1.92z" fill="#19cc52"/><path d="m351.112 280.022h-1.92v1.917h1.92z" fill="#19cc52"/><path d="m345.352 278.104h-1.92v1.918h1.92z" fill="#19cc52"/><path d="m347.272 278.104h-1.92v1.918h1.92z" fill="#19cc52"/><path d="m345.352 280.022h-1.92v1.917h1.92z" fill="#19cc52"/><path d="m347.272 280.022h-1.92v1.917h1.92z" fill="#19cc52"/><path d="m341.512 278.104h-1.92v1.918h1.92z" fill="#19cc52"/><path d="m343.432 278.104h-1.92v1.918h1.92z" fill="#19cc52"/><path d="m341.512 280.022h-1.92v1.917h1.92z" fill="#19cc52"/><path d="m343.432 280.022h-1.92v1.917h1.92z" fill="#19cc52"/><path d="m337.672 278.104h-1.92v1.918h1.92z" fill="#19cc52"/><path d="m339.592 278.104h-1.92v1.918h1.92z" fill="#19cc52"/><path d="m337.672 280.022h-1.92v1.917h1.92z" fill="#19cc52"/><path d="m339.592 280.022h-1.92v1.917h1.92z" fill="#19cc52"/><path d="m335.752 278.104h-1.92v1.918h1.92z" fill="#19cc52"/><path d="m335.752 280.022h-1.92v1.917h1.92z" fill="#19cc52"/><path d="m389.518 274.27h-1.92v1.917h1.92z" fill="#41dd73"/><path d="m389.518 272.352h-1.92v1.918h1.92z" fill="#41dd73"/><path d="m389.518 270.435h-1.92v1.917h1.92z" fill="#ededed"/><path d="m391.438 276.187h-1.92v1.917h1.92z" fill="#41dd73"/><path d="m393.358 276.187h-1.92v1.917h1.92z" fill="#41dd73"/><path d="m391.438 278.104h-1.92v1.918h1.92z" fill="#19cc52"/><path d="m393.358 280.022h-1.92v1.917h1.92z" fill="#19cc52"/><path d="m393.358 278.104h-1.92v1.918h1.92z" fill="#19cc52"/><path d="m391.438 274.27h-1.92v1.917h1.92z" fill="#41dd73"/><path d="m393.358 274.27h-1.92v1.917h1.92z" fill="#41dd73"/><path d="m395.278 276.187h-1.92v1.917h1.92z" fill="#41dd73"/><path d="m395.278 280.022h-1.92v1.917h1.92z" fill="#19cc52"/><path d="m395.278 278.104h-1.92v1.918h1.92z" fill="#19cc52"/><path d="m397.198 280.022h-1.92v1.917h1.92z" fill="#19cc52"/><path d="m397.198 278.104h-1.92v1.918h1.92z" fill="#19cc52"/><path d="m395.278 274.27h-1.92v1.917h1.92z" fill="#41dd73"/><path d="m393.358 272.352h-1.92v1.918h1.92z" fill="#41dd73"/><path d="m391.438 272.352h-1.92v1.918h1.92z" fill="#ededed"/><path d="m391.438 270.435h-1.92v1.917h1.92z" fill="#41dd73"/><path d="m389.518 268.516h-1.92v1.917h1.92z" fill="#41dd73"/><path d="m385.678 276.187h-1.921v1.917h1.921z" fill="#41dd73"/><path d="m385.678 274.27h-1.921v1.917h1.921z" fill="#41dd73"/><path d="m385.678 272.352h-1.921v1.918h1.921z" fill="#41dd73"/><path d="m385.678 270.435h-1.921v1.917h1.921z" fill="#41dd73"/><path d="m385.678 268.516h-1.921v1.917h1.921z" fill="#41dd73"/><path d="m383.756 276.187h-1.92v1.917h1.92z" fill="#41dd73"/><path d="m383.756 274.27h-1.92v1.917h1.92z" fill="#41dd73"/><path d="m383.756 272.352h-1.92v1.918h1.92z" fill="#41dd73"/><path d="m383.756 270.435h-1.92v1.917h1.92z" fill="#41dd73"/><path d="m383.756 268.516h-1.92v1.917h1.92z" fill="#41dd73"/><path d="m383.756 266.598h-1.92v1.918h1.92z" fill="#41dd73"/><path d="m381.836 276.187h-1.92v1.917h1.92z" fill="#41dd73"/><path d="m381.836 274.27h-1.92v1.917h1.92z" fill="#41dd73"/><path d="m381.836 272.352h-1.92v1.918h1.92z" fill="#41dd73"/><path d="m381.836 270.435h-1.92v1.917h1.92z" fill="#41dd73"/><path d="m381.836 268.516h-1.92v1.917h1.92z" fill="#41dd73"/><path d="m381.836 266.598h-1.92v1.918h1.92z" fill="#41dd73"/><path d="m385.678 266.598h-1.921v1.918h1.921z" fill="#41dd73"/><path d="m387.598 266.598h-1.92v1.918h1.92z" fill="#41dd73"/><path d="m379.916 276.187h-1.92v1.917h1.92z" fill="#41dd73"/><path d="m379.916 274.27h-1.92v1.917h1.92z" fill="#41dd73"/><path d="m379.916 272.352h-1.92v1.918h1.92z" fill="#41dd73"/><path d="m379.916 270.435h-1.92v1.917h1.92z" fill="#41dd73"/><path d="m379.916 268.516h-1.92v1.917h1.92z" fill="#41dd73"/><path d="m379.916 266.598h-1.92v1.918h1.92z" fill="#41dd73"/><path d="m377.996 276.187h-1.921v1.917h1.921z" fill="#41dd73"/><path d="m377.996 274.27h-1.921v1.917h1.921z" fill="#41dd73"/><path d="m377.996 272.352h-1.921v1.918h1.921z" fill="#41dd73"/><path d="m377.996 270.435h-1.921v1.917h1.921z" fill="#41dd73"/><path d="m377.996 268.516h-1.921v1.917h1.921z" fill="#41dd73"/><path d="m377.996 266.598h-1.921v1.918h1.921z" fill="#41dd73"/><path d="m376.075 276.187h-1.92v1.917h1.92z" fill="#41dd73"/><path d="m376.075 274.27h-1.92v1.917h1.92z" fill="#41dd73"/><path d="m376.075 272.352h-1.92v1.918h1.92z" fill="#41dd73"/><path d="m376.075 270.435h-1.92v1.917h1.92z" fill="#41dd73"/><path d="m376.075 268.516h-1.92v1.917h1.92z" fill="#41dd73"/><path d="m376.075 266.598h-1.92v1.918h1.92z" fill="#41dd73"/><path d="m374.155 276.187h-1.92v1.917h1.92z" fill="#41dd73"/><path d="m374.155 274.27h-1.92v1.917h1.92z" fill="#41dd73"/><path d="m374.155 272.352h-1.92v1.918h1.92z" fill="#41dd73"/><path d="m374.155 270.435h-1.92v1.917h1.92z" fill="#41dd73"/><path d="m374.155 268.516h-1.92v1.917h1.92z" fill="#41dd73"/><path d="m374.155 266.598h-1.92v1.918h1.92z" fill="#41dd73"/><path d="m372.235 276.187h-1.92v1.917h1.92z" fill="#41dd73"/><path d="m372.235 274.27h-1.92v1.917h1.92z" fill="#41dd73"/><path d="m372.235 272.352h-1.92v1.918h1.92z" fill="#41dd73"/><path d="m372.235 270.435h-1.92v1.917h1.92z" fill="#41dd73"/><path d="m372.235 268.516h-1.92v1.917h1.92z" fill="#41dd73"/><path d="m372.235 266.598h-1.92v1.918h1.92z" fill="#41dd73"/><path d="m372.235 260.846h-1.92v1.917h1.92z" fill="#23b6d8"/><path d="m374.155 262.763h-1.92v1.918h1.92z" fill="#23b6d8"/><path d="m376.075 262.763h-1.92v1.918h1.92z" fill="#23b6d8"/><path d="m377.996 264.681h-1.921v1.917h1.921z" fill="#23b6d8"/><path d="m379.916 264.681h-1.92v1.917h1.92z" fill="#23b6d8"/><path d="m370.315 260.846h-1.92v1.917h1.92z" fill="#23b6d8"/><path d="m368.395 258.929h-1.92v1.917h1.92z" fill="#23b6d8"/><path d="m366.475 258.929h-1.92v1.917h1.92z" fill="#23b6d8"/><path d="m364.555 257.011h-1.92v1.918h1.92z" fill="#41dd73"/><path d="m370.315 264.681h-1.92v1.917h1.92z" fill="#19cc52"/><path d="m368.395 262.763h-1.92v1.918h1.92z" fill="#8aeeff"/><path d="m372.235 262.763h-1.92v1.918h1.92z" fill="#dcfcff"/><path d="m372.235 264.681h-1.92v1.917h1.92z" fill="#8aeeff"/><path d="m374.155 264.681h-1.92v1.917h1.92z" fill="#dcfcff"/><path d="m376.075 264.681h-1.92v1.917h1.92z" fill="#dcfcff"/><path d="m370.315 262.763h-1.92v1.918h1.92z" fill="#dcfcff"/><path d="m366.475 260.846h-1.92v1.917h1.92z" fill="#dcfcff"/><path d="m368.395 260.846h-1.92v1.917h1.92z" fill="#dcfcff"/><path d="m364.555 258.929h-1.92v1.917h1.92z" fill="#dcfcff"/><path d="m368.395 264.681h-1.92v1.917h1.92z" fill="#8aeeff"/><path d="m366.475 262.763h-1.92v1.918h1.92z" fill="#8aeeff"/><path d="m364.555 260.846h-1.92v1.917h1.92z" fill="#8aeeff"/><path d="m362.635 258.929h-1.92v1.917h1.92z" fill="#dcfcff"/><path d="m366.475 264.681h-1.92v1.917h1.92z" fill="#8aeeff"/><path d="m364.555 262.763h-1.92v1.918h1.92z" fill="#8aeeff"/><path d="m362.635 260.846h-1.92v1.917h1.92z" fill="#8aeeff"/><path d="m360.715 258.929h-1.92v1.917h1.92z" fill="#dcfcff"/><path d="m364.555 264.681h-1.92v1.917h1.92z" fill="#8aeeff"/><path d="m362.635 262.763h-1.92v1.918h1.92z" fill="#8aeeff"/><path d="m360.715 260.846h-1.92v1.917h1.92z" fill="#8aeeff"/><path d="m358.795 258.929h-1.921v1.917h1.921z" fill="#dcfcff"/><path d="m362.635 264.681h-1.92v1.917h1.92z" fill="#3dd2f4"/><path d="m360.715 264.681h-1.92v1.917h1.92z" fill="#8aeeff"/><path d="m358.795 264.681h-1.921v1.917h1.921z" fill="#3dd2f4"/><path d="m356.873 264.681h-1.92v1.917h1.92z" fill="#3dd2f4"/><path d="m354.953 264.681h-1.92v1.917h1.92z" fill="#3dd2f4"/><path d="m360.715 262.763h-1.92v1.918h1.92z" fill="#3dd2f4"/><path d="m358.795 262.763h-1.921v1.918h1.921z" fill="#8aeeff"/><path d="m356.873 262.763h-1.92v1.918h1.92z" fill="#3dd2f4"/><path d="m354.953 262.763h-1.92v1.918h1.92z" fill="#3dd2f4"/><path d="m358.795 260.846h-1.921v1.917h1.921z" fill="#3dd2f4"/><path d="m356.873 260.846h-1.92v1.917h1.92z" fill="#8aeeff"/><path d="m354.953 260.846h-1.92v1.917h1.92z" fill="#3dd2f4"/><path d="m356.873 258.929h-1.92v1.917h1.92z" fill="#dcfcff"/><path d="m354.953 258.929h-1.92v1.917h1.92z" fill="#dcfcff"/><path d="m362.635 257.011h-1.92v1.918h1.92z" fill="#41dd73"/><path d="m360.715 257.011h-1.92v1.918h1.92z" fill="#41dd73"/><path d="m358.795 257.011h-1.921v1.918h1.921z" fill="#41dd73"/><path d="m356.873 257.011h-1.92v1.918h1.92z" fill="#41dd73"/><path d="m354.953 257.011h-1.92v1.918h1.92z" fill="#41dd73"/><path d="m353.033 257.011h-1.92v1.918h1.92z" fill="#41dd73"/><path d="m353.033 258.929h-1.92v1.917h1.92z" fill="#dcfcff"/><path d="m353.033 260.846h-1.92v1.917h1.92z" fill="#3dd2f4"/><path d="m353.033 262.763h-1.92v1.918h1.92z" fill="#3dd2f4"/><path d="m353.033 264.681h-1.92v1.917h1.92z" fill="#3dd2f4"/><path d="m351.112 257.011h-1.92v1.918h1.92z" fill="#41dd73"/><path d="m349.192 258.929h-1.92v1.917h1.92z" fill="#41dd73"/><path d="m347.272 258.929h-1.92v1.917h1.92z" fill="#41dd73"/><path d="m349.192 257.011h-1.92v1.918h1.92z" fill="#41dd73"/><path d="m345.352 258.929h-1.92v1.917h1.92z" fill="#41dd73"/><path d="m343.432 258.929h-1.92v1.917h1.92z" fill="#41dd73"/><path d="m349.192 260.846h-1.92v1.917h1.92z" fill="#41dd73"/><path d="m347.272 260.846h-1.92v1.917h1.92z" fill="#41dd73"/><path d="m345.352 260.846h-1.92v1.917h1.92z" fill="#41dd73"/><path d="m343.432 260.846h-1.92v1.917h1.92z" fill="#41dd73"/><path d="m341.512 260.846h-1.92v1.917h1.92z" fill="#41dd73"/><path d="m349.192 262.763h-1.92v1.918h1.92z" fill="#41dd73"/><path d="m347.272 262.763h-1.92v1.918h1.92z" fill="#41dd73"/><path d="m345.352 262.763h-1.92v1.918h1.92z" fill="#41dd73"/><path d="m343.432 262.763h-1.92v1.918h1.92z" fill="#41dd73"/><path d="m341.512 262.763h-1.92v1.918h1.92z" fill="#41dd73"/><path d="m339.592 262.763h-1.92v1.918h1.92z" fill="#41dd73"/><path d="m349.192 264.681h-1.92v1.917h1.92z" fill="#41dd73"/><path d="m347.272 264.681h-1.92v1.917h1.92z" fill="#19cc52"/><path d="m345.352 264.681h-1.92v1.917h1.92z" fill="#19cc52"/><path d="m343.432 264.681h-1.92v1.917h1.92z" fill="#41dd73"/><path d="m341.512 264.681h-1.92v1.917h1.92z" fill="#41dd73"/><path d="m339.592 264.681h-1.92v1.917h1.92z" fill="#41dd73"/><path d="m337.672 264.681h-1.92v1.917h1.92z" fill="#41dd73"/><path d="m351.112 258.929h-1.92v1.917h1.92z" fill="#dcfcff"/><path d="m351.112 260.846h-1.92v1.917h1.92z" fill="#3dd2f4"/><path d="m351.112 262.763h-1.92v1.918h1.92z" fill="#3dd2f4"/><path d="m351.112 264.681h-1.92v1.917h1.92z" fill="#41dd73"/><path d="m349.192 257.011h-1.92v1.918h1.92z" fill="#41dd73"/><path d="m339.592 260.846h-1.92v1.917h1.92z" fill="#41dd73"/><path d="m337.672 262.763h-1.92v1.918h1.92z" fill="#41dd73"/><path d="m335.752 264.681h-1.92v1.917h1.92z" fill="#41dd73"/><path d="m337.672 260.846h-1.92v1.917h1.92z" fill="#41dd73"/><path d="m335.752 262.763h-1.92v1.918h1.92z" fill="#41dd73"/><path d="m370.315 276.187h-1.92v1.917h1.92z" fill="#41dd73"/><path d="m370.315 274.27h-1.92v1.917h1.92z" fill="#41dd73"/><path d="m370.315 272.352h-1.92v1.918h1.92z" fill="#41dd73"/><path d="m370.315 270.435h-1.92v1.917h1.92z" fill="#41dd73"/><path d="m370.315 268.516h-1.92v1.917h1.92z" fill="#41dd73"/><path d="m370.315 266.598h-1.92v1.918h1.92z" fill="#19cc52"/><path d="m368.395 276.187h-1.92v1.917h1.92z" fill="#41dd73"/><path d="m368.395 274.27h-1.92v1.917h1.92z" fill="#41dd73"/><path d="m368.395 272.352h-1.92v1.918h1.92z" fill="#41dd73"/><path d="m368.395 270.435h-1.92v1.917h1.92z" fill="#41dd73"/><path d="m368.395 268.516h-1.92v1.917h1.92z" fill="#41dd73"/><path d="m368.395 266.598h-1.92v1.918h1.92z" fill="#41dd73"/><path d="m366.475 276.187h-1.92v1.917h1.92z" fill="#41dd73"/><path d="m366.475 274.27h-1.92v1.917h1.92z" fill="#41dd73"/><path d="m366.475 272.352h-1.92v1.918h1.92z" fill="#41dd73"/><path d="m366.475 270.435h-1.92v1.917h1.92z" fill="#41dd73"/><path d="m366.475 268.516h-1.92v1.917h1.92z" fill="#41dd73"/><path d="m366.475 266.598h-1.92v1.918h1.92z" fill="#41dd73"/><path d="m364.555 276.187h-1.92v1.917h1.92z" fill="#41dd73"/><path d="m364.555 274.27h-1.92v1.917h1.92z" fill="#41dd73"/><path d="m364.555 272.352h-1.92v1.918h1.92z" fill="#41dd73"/><path d="m364.555 270.435h-1.92v1.917h1.92z" fill="#41dd73"/><path d="m364.555 268.516h-1.92v1.917h1.92z" fill="#41dd73"/><path d="m364.555 266.598h-1.92v1.918h1.92z" fill="#41dd73"/><path d="m362.635 276.187h-1.92v1.917h1.92z" fill="#41dd73"/><path d="m362.635 274.27h-1.92v1.917h1.92z" fill="#41dd73"/><path d="m362.635 272.352h-1.92v1.918h1.92z" fill="#41dd73"/><path d="m362.635 270.435h-1.92v1.917h1.92z" fill="#41dd73"/><path d="m362.635 268.516h-1.92v1.917h1.92z" fill="#41dd73"/><path d="m362.635 266.598h-1.92v1.918h1.92z" fill="#41dd73"/><path d="m360.715 276.187h-1.92v1.917h1.92z" fill="#41dd73"/><path d="m360.715 274.27h-1.92v1.917h1.92z" fill="#41dd73"/><path d="m360.715 272.352h-1.92v1.918h1.92z" fill="#41dd73"/><path d="m360.715 270.435h-1.92v1.917h1.92z" fill="#41dd73"/><path d="m360.715 268.516h-1.92v1.917h1.92z" fill="#41dd73"/><path d="m360.715 266.598h-1.92v1.918h1.92z" fill="#41dd73"/><path d="m358.795 276.187h-1.921v1.917h1.921z" fill="#41dd73"/><path d="m358.795 274.27h-1.921v1.917h1.921z" fill="#41dd73"/><path d="m358.795 272.352h-1.921v1.918h1.921z" fill="#41dd73"/><path d="m358.795 270.435h-1.921v1.917h1.921z" fill="#41dd73"/><path d="m358.795 268.516h-1.921v1.917h1.921z" fill="#41dd73"/><path d="m358.795 266.598h-1.921v1.918h1.921z" fill="#41dd73"/><path d="m356.873 276.187h-1.92v1.917h1.92z" fill="#41dd73"/><path d="m356.873 274.27h-1.92v1.917h1.92z" fill="#41dd73"/><path d="m356.873 272.352h-1.92v1.918h1.92z" fill="#41dd73"/><path d="m356.873 270.435h-1.92v1.917h1.92z" fill="#41dd73"/><path d="m356.873 268.516h-1.92v1.917h1.92z" fill="#41dd73"/><path d="m356.873 266.598h-1.92v1.918h1.92z" fill="#41dd73"/><path d="m354.953 276.187h-1.92v1.917h1.92z" fill="#41dd73"/><path d="m354.953 274.27h-1.92v1.917h1.92z" fill="#41dd73"/><path d="m354.953 272.352h-1.92v1.918h1.92z" fill="#41dd73"/><path d="m354.953 270.435h-1.92v1.917h1.92z" fill="#41dd73"/><path d="m354.953 268.516h-1.92v1.917h1.92z" fill="#41dd73"/><path d="m354.953 266.598h-1.92v1.918h1.92z" fill="#41dd73"/><path d="m353.033 276.187h-1.92v1.917h1.92z" fill="#41dd73"/><path d="m353.033 274.27h-1.92v1.917h1.92z" fill="#41dd73"/><path d="m353.033 272.352h-1.92v1.918h1.92z" fill="#41dd73"/><path d="m353.033 270.435h-1.92v1.917h1.92z" fill="#41dd73"/><path d="m353.033 268.516h-1.92v1.917h1.92z" fill="#41dd73"/><path d="m353.033 266.598h-1.92v1.918h1.92z" fill="#41dd73"/><path d="m351.112 276.187h-1.92v1.917h1.92z" fill="#41dd73"/><path d="m351.112 274.27h-1.92v1.917h1.92z" fill="#41dd73"/><path d="m351.112 272.352h-1.92v1.918h1.92z" fill="#41dd73"/><path d="m351.112 270.435h-1.92v1.917h1.92z" fill="#41dd73"/><path d="m351.112 268.516h-1.92v1.917h1.92z" fill="#19cc52"/><path d="m353.033 268.516h-1.92v1.917h1.92z" fill="#19cc52"/><path d="m354.953 268.516h-1.92v1.917h1.92z" fill="#19cc52"/><path d="m356.873 268.516h-1.92v1.917h1.92z" fill="#19cc52"/><path d="m358.795 268.516h-1.921v1.917h1.921z" fill="#19cc52"/><path d="m360.715 268.516h-1.92v1.917h1.92z" fill="#19cc52"/><path d="m362.635 268.516h-1.92v1.917h1.92z" fill="#19cc52"/><path d="m364.555 268.516h-1.92v1.917h1.92z" fill="#19cc52"/><path d="m366.475 268.516h-1.92v1.917h1.92z" fill="#19cc52"/><path d="m368.395 268.516h-1.92v1.917h1.92z" fill="#19cc52"/><path d="m370.315 268.516h-1.92v1.917h1.92z" fill="#19cc52"/><path d="m372.235 268.516h-1.92v1.917h1.92z" fill="#19cc52"/><path d="m374.155 268.516h-1.92v1.917h1.92z" fill="#19cc52"/><path d="m351.112 266.598h-1.92v1.918h1.92z" fill="#41dd73"/><path d="m349.192 276.187h-1.92v1.917h1.92z" fill="#41dd73"/><path d="m349.192 274.27h-1.92v1.917h1.92z" fill="#41dd73"/><path d="m349.192 272.352h-1.92v1.918h1.92z" fill="#41dd73"/><path d="m349.192 270.435h-1.92v1.917h1.92z" fill="#41dd73"/><path d="m349.192 268.516h-1.92v1.917h1.92z" fill="#19cc52"/><path d="m349.192 266.598h-1.92v1.918h1.92z" fill="#19cc52"/><path d="m347.272 276.187h-1.92v1.917h1.92z" fill="#41dd73"/><path d="m347.272 274.27h-1.92v1.917h1.92z" fill="#41dd73"/><path d="m347.272 272.352h-1.92v1.918h1.92z" fill="#41dd73"/><path d="m347.272 270.435h-1.92v1.917h1.92z" fill="#41dd73"/><path d="m347.272 268.516h-1.92v1.917h1.92z" fill="#41dd73"/><path d="m347.272 266.598h-1.92v1.918h1.92z" fill="#19cc52"/><path d="m345.352 276.187h-1.92v1.917h1.92z" fill="#41dd73"/><path d="m345.352 274.27h-1.92v1.917h1.92z" fill="#41dd73"/><path d="m345.352 272.352h-1.92v1.918h1.92z" fill="#41dd73"/><path d="m345.352 270.435h-1.92v1.917h1.92z" fill="#41dd73"/><path d="m345.352 268.516h-1.92v1.917h1.92z" fill="#41dd73"/><path d="m345.352 266.598h-1.92v1.918h1.92z" fill="#41dd73"/><path d="m343.432 276.187h-1.92v1.917h1.92z" fill="#19cc52"/><path d="m343.432 274.27h-1.92v1.917h1.92z" fill="#41dd73"/><path d="m343.432 272.352h-1.92v1.918h1.92z" fill="#41dd73"/><path d="m343.432 270.435h-1.92v1.917h1.92z" fill="#41dd73"/><path d="m343.432 268.516h-1.92v1.917h1.92z" fill="#41dd73"/><path d="m343.432 266.598h-1.92v1.918h1.92z" fill="#41dd73"/><path d="m341.512 276.187h-1.92v1.917h1.92z" fill="#41dd73"/><path d="m341.512 274.27h-1.92v1.917h1.92z" fill="#41dd73"/><path d="m341.512 272.352h-1.92v1.918h1.92z" fill="#41dd73"/><path d="m341.512 270.435h-1.92v1.917h1.92z" fill="#41dd73"/><path d="m341.512 268.516h-1.92v1.917h1.92z" fill="#41dd73"/><path d="m341.512 266.598h-1.92v1.918h1.92z" fill="#41dd73"/><path d="m339.592 276.187h-1.92v1.917h1.92z" fill="#41dd73"/><path d="m339.592 274.27h-1.92v1.917h1.92z" fill="#41dd73"/><path d="m339.592 272.352h-1.92v1.918h1.92z" fill="#41dd73"/><path d="m339.592 270.435h-1.92v1.917h1.92z" fill="#41dd73"/><path d="m339.592 268.516h-1.92v1.917h1.92z" fill="#41dd73"/><path d="m339.592 266.598h-1.92v1.918h1.92z" fill="#41dd73"/><path d="m337.672 276.187h-1.92v1.917h1.92z" fill="#41dd73"/><path d="m337.672 274.27h-1.92v1.917h1.92z" fill="#41dd73"/><path d="m337.672 272.352h-1.92v1.918h1.92z" fill="#41dd73"/><path d="m337.672 270.435h-1.92v1.917h1.92z" fill="#41dd73"/><path d="m337.672 268.516h-1.92v1.917h1.92z" fill="#41dd73"/><path d="m337.672 266.598h-1.92v1.918h1.92z" fill="#41dd73"/><path d="m335.752 276.187h-1.92v1.917h1.92z" fill="#41dd73"/><path d="m335.752 274.27h-1.92v1.917h1.92z" fill="#41dd73"/><path d="m335.752 272.352h-1.92v1.918h1.92z" fill="#41dd73"/><path d="m335.752 270.435h-1.92v1.917h1.92z" fill="#41dd73"/><path d="m335.752 268.516h-1.92v1.917h1.92z" fill="#41dd73"/><path d="m335.752 266.598h-1.92v1.918h1.92z" fill="#41dd73"/><path d="m343.432 264.681h-1.92v1.917h1.92z" fill="#19cc52"/><path d="m341.512 264.681h-1.92v1.917h1.92z" fill="#19cc52"/><path d="m339.592 264.681h-1.92v1.917h1.92z" fill="#19cc52"/><path d="m337.672 264.681h-1.92v1.917h1.92z" fill="#19cc52"/><path d="m335.752 264.681h-1.92v1.917h1.92z" fill="#19cc52"/><path d="m372.235 272.352v7.67h1.92v1.917h7.681v-1.917h1.92v-7.67h-1.92v-1.917h-7.681v1.917zm1.92 1.918h1.92v-1.918h3.841v1.918h1.92v3.834h-1.92v1.918h-3.841v-1.918h-1.92z" fill="#6d6d6d"/><path d="m376.075 274.27h-1.92v3.834h1.92v1.918h3.841v-1.918h1.92v-3.834h-1.92v-1.918h-3.841z" fill="#adadad"/><path d="m381.836 268.516h-1.92v1.917h1.92z" fill="#161616"/><path d="m383.756 270.435h-1.92v1.917h1.92z" fill="#161616"/><path d="m383.756 280.022h-1.92v1.917h1.92z" fill="#161616"/><path d="m379.916 272.352h-1.92v1.918h1.92z" fill="#ccc"/><path d="m377.996 272.352h-1.921v1.918h1.921z" fill="#ccc"/><path d="m376.075 274.27h-1.92v1.917h1.92z" fill="#ccc"/><path d="m376.075 276.187h-1.92v1.917h1.92z" fill="#ccc"/><path d="m377.996 278.104h-1.921v1.918h1.921z" fill="#ccc"/><path d="m379.916 278.104h-1.92v1.918h1.92z" fill="#ccc"/><path d="m381.836 276.187h-1.92v1.917h1.92z" fill="#ccc"/><path d="m381.836 274.27h-1.92v1.917h1.92z" fill="#ccc"/><path d="m385.678 272.352h-1.921v1.918h1.921z" fill="#161616"/><path d="m385.678 274.27h-1.921v1.917h1.921z" fill="#161616"/><path d="m385.678 276.187h-1.921v1.917h1.921z" fill="#161616"/><path d="m385.678 278.104h-1.921v1.918h1.921z" fill="#161616"/><path d="m381.836 281.939h-1.92v1.918h1.92z" fill="#161616"/><path d="m379.916 281.939h-1.92v1.918h1.92z" fill="#161616"/><path d="m377.996 281.939h-1.921v1.918h1.921z" fill="#161616"/><path d="m372.235 276.187h-1.92v1.917h1.92z" fill="#161616"/><path d="m372.235 278.104h-1.92v1.918h1.92z" fill="#161616"/><path d="m374.155 280.022h-1.92v1.917h1.92z" fill="#161616"/><path d="m376.075 281.939h-1.92v1.918h1.92z" fill="#161616"/><path d="m372.235 274.27h-1.92v1.917h1.92z" fill="#161616"/><path d="m372.235 272.352h-1.92v1.918h1.92z" fill="#161616"/><path d="m374.155 270.435h-1.92v1.917h1.92z" fill="#161616"/><path d="m376.075 268.516h-1.92v1.917h1.92z" fill="#161616"/><path d="m379.916 268.516h-1.92v1.917h1.92z" fill="#161616"/><path d="m377.996 268.516h-1.921v1.917h1.921z" fill="#161616"/><path d="m328.07 272.352v7.67h1.92v1.917h7.68v-1.917h1.92v-7.67h-1.92v-1.917h-7.68v1.917zm1.92 1.918h1.92v-1.918h3.84v1.918h1.92v3.834h-1.92v1.918h-3.84v-1.918h-1.92z" fill="#6d6d6d"/><path d="m331.912 274.27h-1.922v3.834h1.922v1.918h3.84v-1.918h1.92v-3.834h-1.92v-1.918h-3.84z" fill="#adadad"/><path d="m337.672 268.516h-1.92v1.917h1.92z" fill="#161616"/><path d="m339.592 270.435h-1.92v1.917h1.92z" fill="#161616"/><path d="m339.592 280.022h-1.92v1.917h1.92z" fill="#161616"/><path d="m335.752 272.352h-1.92v1.918h1.92z" fill="#ccc"/><path d="m335.752 278.104h-1.92v1.918h1.92z" fill="#ccc"/><path d="m337.672 276.187h-1.92v1.917h1.92z" fill="#ccc"/><path d="m337.672 274.27h-1.92v1.917h1.92z" fill="#ccc"/><path d="m341.512 272.352h-1.92v1.918h1.92z" fill="#161616"/><path d="m341.512 274.27h-1.92v1.917h1.92z" fill="#161616"/><path d="m341.512 276.187h-1.92v1.917h1.92z" fill="#161616"/><path d="m341.512 278.104h-1.92v1.918h1.92z" fill="#161616"/><path d="m337.672 281.939h-1.92v1.918h1.92z" fill="#161616"/><path d="m335.752 281.939h-1.92v1.918h1.92z" fill="#161616"/><path d="m335.752 268.516h-1.92v1.917h1.92z" fill="#161616"/></g><path d="m335.958 202.677h98.5361v84.7562h-98.5361z" stroke="#000" stroke-width="3"/><path d="m342.627 204.202h-5.175v5.175h5.175z" fill="#fdf8ff"/><path d="m358.154 204.202h-5.176v5.175h5.176z" fill="#fdf8ff"/><path d="m352.978 209.377h-5.176v5.176h5.176z" fill="#fdf8ff"/><path d="m342.627 214.553h-5.176v5.176h5.176z" fill="#fdf8ff"/><path d="m358.154 214.553h-5.176v5.176h5.176z" fill="#fdf8ff"/><path d="m294.129 310.313h169.613v14.9326h-169.613z" fill="#4bea69"/><path d="m301.839 325.245h154.194v7.46632h-154.194z" fill="#068940"/><path d="m301.839 332.712h154.194v119.461h-154.194z" fill="#34ac80"/><path d="m363.516 340.178h28.9766v7.46632h-28.9766z" fill="#000"/><path d="m19.44 17.0938h38.614c11.696 0 21.242 9.632 21.242 21.328 0 12.556-9.546 22.102-21.242 22.102h-9.46v18.318c0 .516-.43.946-.946.946h-28.208c-.516 0-.86-.258-.86-.774v-60.974c0-.516.258-.946.86-.946zm28.208 19.264v5.332h1.462c1.548 0 2.752-1.118 2.752-2.666 0-1.462-1.204-2.666-2.752-2.666zm84.688 21.07 14.62 21.07c.172.258.172.602 0 .86s-.43.43-.774.43h-28.466c-.258 0-.516-.086-.688-.344l-5.074-7.138v6.622c0 .516-.344.86-.86.86h-25.3702c-.516 0-.86-.344-.86-.86v-60.974c0-.516.344-.86.86-.86h37.7542c12.47 0 21.5 8.514 21.5 20.984 0 8.342-5.074 16.082-12.642 19.35zm-20.124-22.016v5.332h1.462c1.548 0 2.838-1.204 2.838-2.666s-1.29-2.666-2.838-2.666zm41.287-18.318h59.684c.516 0 .86.258.86.86v17.114c0 .602-.344.86-.86.86h-31.648v3.096h20.382c.516 0 .774.258.774.86v17.2c0 .602-.258.86-.774.86h-20.382v3.096h31.648c.516 0 .86.258.86.774v17.114c0 .602-.344.86-.86.86h-59.684c-.516 0-.86-.344-.86-.774v-61.06c0-.43.344-.86.86-.86zm67.02 0h28.638c17.2 0 31.218 14.104 31.218 31.39 0 17.2-14.018 31.304-31.304 31.304h-28.552c-.516 0-.86-.344-.86-.774v-61.06c0-.43.344-.86.86-.86zm26.832 28.208v6.106h1.72c1.72 0 3.096-1.29 3.096-3.01s-1.376-3.096-3.096-3.096zm53.275 2.236c-8.514 0-15.48-6.88-15.48-15.394s6.966-15.05 15.48-15.05c8.6 0 15.48 6.536 15.48 15.05s-6.88 15.394-15.48 15.394zm-14.19 1.806h28.38c.43 0 .86.43.86.86v28.724c0 .516-.43.86-.86.86h-28.38c-.43 0-.86-.344-.86-.86v-28.724c0-.43.43-.86.86-.86zm97.002-3.096c0 .43-.344.86-.86.86h-26.746c-.258 0-.516-.172-.688-.43-.688-1.032-1.72-1.634-2.924-1.634-1.892 0-3.44 1.548-3.44 3.44s1.548 3.44 3.44 3.44c1.204 0 2.236-.688 2.924-1.72.172-.258.43-.344.688-.344h26.746c.516 0 .86.43.86.86 0 16.254-14.878 29.068-31.218 29.068-17.286 0-31.39-14.018-31.39-31.304s14.104-31.39 31.39-31.39c16.254 0 31.218 12.9 31.218 29.154zm5.101-29.154h60.888c.43 0 .774.344.774.774v30.186c0 .43-.344.774-.774.774h-15.652v30.186c0 .43-.43.774-.86.774h-27.95c-.43 0-.774-.344-.774-.774v-30.186h-15.652c-.43 0-.774-.344-.774-.774v-30.186c0-.43.344-.774.774-.774zm81.904 30.444c-8.514 0-15.48-6.88-15.48-15.394s6.966-15.05 15.48-15.05c8.6 0 15.48 6.536 15.48 15.05s-6.88 15.394-15.48 15.394zm-14.19 1.806h28.38c.43 0 .86.43.86.86v28.724c0 .516-.43.86-.86.86h-28.38c-.43 0-.86-.344-.86-.86v-28.724c0-.43.43-.86.86-.86zm65.955-32.25c17.458 0 31.562 13.932 31.562 31.39s-14.104 31.304-31.562 31.304-31.562-13.846-31.562-31.304 14.104-31.39 31.562-31.39zm0 34.4c1.634 0 3.01-1.29 3.01-3.01 0-1.634-1.376-3.01-3.01-3.01s-3.01 1.376-3.01 3.01c0 1.72 1.376 3.01 3.01 3.01zm66.836-3.268v30.788c0 .43-.43.774-.86.774h-27.95c-.43 0-.774-.344-.774-.774v-61.06c0-.516.344-.86.774-.86h28.122c.516 0 .86.258.946.774l3.87 30.1c0 .172.172.172.172 0v-30.014c0-.516.344-.86.774-.86h27.95c.43 0 .86.344.86.86v61.06c0 .43-.43.774-.86.774h-28.208c-.344-.086-.602-.43-.688-.774l-3.956-30.788c0-.172-.172-.172-.172 0zm-496.6832 109.5622h-28.9679c-.4926 0-.5911 0-.7882-.591l-7.8824-25.421c-.1971-.69-.6897-.985-1.1824-.985-.5911 0-.9853.591-.9853 1.083v25.027c0 .493-.3941.887-.8867.887h-31.7267c-.4927 0-.8868-.394-.8868-.887v-69.9562c0-.5912.3941-.9853.8868-.9853h51.5312c.4926 0 .6897.2956.8868.9853l4.5323 15.7652c.1971.591.5912.788 1.0839.788.4926 0 .8867-.197 1.0838-.788l4.3353-15.7652c.1971-.6897.3941-.9853.8868-.9853h51.5307c.493 0 .887.3941.887.9853v69.9562c0 .493-.394.887-.887.887h-31.726c-.493 0-.887-.394-.887-.887v-25.027c0-.492-.394-1.083-.985-1.083-.493 0-.986.295-1.183.985l-7.882 25.421c-.1971.591-.2956.591-.7882.591zm107.1872-71.2374 23.942 69.9564c.296.788-.098 1.281-.886 1.281h-32.22c-.689 0-.985-.394-1.182-.985l-1.872-5.617h-8.868l-1.872 5.617c-.197.591-.493.985-1.182.985h-32.318c-.788 0-1.183-.493-.887-1.281l24.14-69.9564c.197-.3941.493-.5911.985-.5911h31.333c.394 0 .788.197.887.5911zm-19.706 60.4974h6.108l-3.054-9.459zm104.538-14.878 16.75 24.14c.197.295.197.69 0 .985-.197.296-.493.493-.887.493h-32.614c-.295 0-.591-.099-.788-.394l-5.813-8.178v7.587c0 .591-.394.985-.985.985h-29.067c-.591 0-.985-.394-.985-.985v-69.8582c0-.5912.394-.9853.985-.9853h43.255c14.287 0 24.632 9.7544 24.632 24.0415 0 9.557-5.813 18.425-14.483 22.169zm-23.056-25.224v6.109h1.675c1.773 0 3.251-1.379 3.251-3.054s-1.478-3.055-3.251-3.055zm46.317-20.9865h32.515c.591 0 .985.4926.985.9853v24.2382h2.562l10.149-24.2382c.295-.5912.492-.9853 1.281-.9853h33.303c.689 0 .886.2956.492 1.1823l-14.582 34.8792 14.582 34.584c.394.887.197 1.183-.492 1.183h-33.402c-.788 0-.985-.394-1.281-.985l-9.853-23.549h-2.759v23.549c0 .591-.394.985-.985.985h-32.515c-.591 0-.985-.394-.985-.985v-69.8582c0-.6897.394-.9853.985-.9853zm88.835 0h68.38c.591 0 .985.2956.985.9853v19.6072c0 .69-.394.986-.985.986h-36.259v3.547h23.351c.591 0 .887.295.887.985v19.706c0 .69-.296.985-.887.985h-23.351v3.547h36.259c.591 0 .985.296.985.887v19.608c0 .689-.394.985-.985.985h-68.38c-.591 0-.985-.394-.985-.887v-69.9562c0-.4927.394-.9853.985-.9853zm76.17 0h69.759c.493 0 .887.3941.887.8867v34.5838c0 .493-.394.887-.887.887h-17.932v34.584c0 .493-.493.887-.986.887h-32.022c-.493 0-.887-.394-.887-.887v-34.584h-17.932c-.493 0-.887-.394-.887-.887v-34.5838c0-.4926.394-.8867.887-.8867zm111.079 48.6735c0 1.774 1.084 2.661 2.858 2.661 1.478 0 2.66-1.084 2.66-2.365 0-1.774-1.478-2.857-3.744-2.857-21.972-.099-37.245-7.193-37.245-22.367 0-13.8925 18.13-23.7455 37.54-23.7455 19.312 0 36.456 7.8824 36.456 22.6615 0 .592-.492 1.084-1.182 1.084h-31.628c-.788 0-1.379-.492-1.379-1.379 0-1.38-1.281-2.266-2.759-2.266-1.577 0-2.858 1.083-2.858 2.364 0 .69.197 2.464 2.759 2.464 24.731 0 37.737 8.966 37.737 24.041 0 14.09-13.006 22.859-37.638 22.859-19.509 0-36.555-8.08-36.555-23.155 0-.591.493-1.084 1.182-1.084h32.614c.69 0 1.182.493 1.182 1.084z" fill="#8cd9da"/><path d="m148.333 310.313h166.801v14.8016h-166.801z" fill="#ff9729"/><path d="m155.914 325.114h151.637v7.40082h-151.637z" fill="#b4521c"/><path d="m155.914 332.515h151.637v118.413h-151.637z" fill="#f97932"/><path d="m216.569 339.915h30.3274v7.40082h-30.3274z" fill="#000"/><path d="m0 0h6.97946v62.8151h-6.97946z" fill="#fff" transform="matrix(0 -1 -1 0 255.895 310.313)"/><path d="m186.1 303.333h13.9589v76.774h-13.9589z" fill="#5a423f" transform="matrix(0 -1 1 0 -117.233 489.433)"/><path d="m0 0h6.97946v62.8151h-6.97946z" fill="#e4a499" transform="matrix(0 -1 -1 0 241.936 310.313)"/><path d="m200.059 261.456h-6.98v6.98h-6.979v6.979h-6.98v6.98h-6.979v6.979h-6.98v6.98h-6.979v6.979h6.979v6.98h6.98v-6.98h6.979v-6.979h6.98v-6.98h6.979v-6.979h6.98v-6.98h6.979v-6.979h6.98v-6.98h-6.98v-6.979h-6.979z" fill="#34ac80"/><path d="m0 0h34.8973v13.9589h-34.8973z" fill="#5648ed" transform="matrix(-1 0 0 1 234.956 275.415)"/><path d="m0 0h6.97946v13.9589h-6.97946z" fill="#fff" transform="matrix(-1 0 0 1 241.936 275.415)"/><path d="m151.079 145.825v4.378h8.758v4.379h4.379v4.38h4.38v8.758h4.378v30.374h-4.378v8.758h-4.38v4.379h-4.379v4.38h-8.758v4.379h-30.374v-4.379h-8.758v-4.38h-4.38v-4.379h-4.379v-8.758h-4.3786v-30.374h4.3786v-8.758h4.379v-4.38h4.38v-4.379h8.758v-4.378z" stroke="#000" stroke-opacity=".1" stroke-width="4.09964"/><path d="m151.079 141.445v4.379h8.758v4.379h4.379v4.38h4.379v8.758h4.379v30.374h-4.379v8.758h-4.379v4.379h-4.379v4.379h-8.758v4.379h-30.374v-4.379h-8.758v-4.379h-4.38v-4.379h-4.379v-8.758h-4.3787v-30.374h4.3787v-8.758h4.379v-4.38h4.38v-4.379h8.758v-4.379z" fill="#fff" stroke="#3a085b" stroke-width="4.09964"/><path d="m135.892 165.39h4.37908v13.1372h-4.37908z" fill="#000"/><path d="m135.892 165.39h4.37908v13.1372h-4.37908z" fill="#000"/><path d="m140.271 152.253h4.37908v13.1372h-4.37908z" fill="#000"/><path d="m140.271 152.253h4.37908v13.1372h-4.37908z" fill="#000"/><path d="m131.513 178.527h4.37908v4.37908h-4.37908z" fill="#000"/><path d="m127.134 178.527h4.37908v4.37908h-4.37908z" fill="#000"/><path d="m118.376 182.907h8.75816v4.37908h-8.75816z" fill="#000"/><path d="m236.007 290.223h-4.965v-9.934h79.471v9.934h-4.967v4.967h-69.539zm14.902-39.736h4.967v-4.966h24.835v4.966h4.967v4.967h4.967v-4.967h4.967v-4.966h14.901v4.966h4.967v29.801h-89.406v-29.801h4.968v-4.966h19.867zm9.934 9.934h4.967v-4.967h-4.967zm-9.934-19.868h-4.967v4.967h-14.9v-4.967h4.965v-4.967h14.902zm4.967 4.967h-4.967v-4.967h4.967zm49.67-4.967h4.967v4.967h-19.868v-4.967h-4.968v4.967h-24.835v-4.967h-4.966v-4.967h49.67zm-9.934-9.935h4.967v4.967h-19.869v-4.966h-4.965v4.966h-34.77v-4.967h4.967v-4.966h49.67zm-9.934-4.967h-29.802v-4.966h29.802z" fill="#410d66"/><path d="m236.008 295.19h-4.966v-4.967h4.966zm74.505-4.967v4.967h-4.967v-4.967zm-79.472 0h-4.967v-9.934h4.967zm84.439 0h-4.967v-9.934h4.967zm-89.406-9.935h-4.967v-29.801h4.967zm94.374 0h-4.968v-29.801h4.968zm-54.638-19.867h-4.968v-4.967h4.968zm29.802-9.934h-4.967v4.967h-4.967v-4.967h-4.968v-4.966h14.902zm-64.571 0h-4.967v-4.966h4.967zm24.835 0h-4.967v-4.966h4.967zm59.604 0h-4.967v-4.966h4.967zm-84.439-4.967h-4.967v-4.967h4.967zm19.868 0h-4.967v-4.967h4.967zm9.934 0h-4.967v-4.967h4.967zm29.802 0h-4.967v-4.967h4.967zm24.835 0h-4.967v-4.967h4.967zm-79.472-4.967h-4.966v-4.967h4.966zm19.868 0h-4.967v-4.967h4.967zm54.637 0h-4.967v-4.967h4.967zm-69.538-4.968h-4.968v-4.967h4.968zm39.736 0h-4.967v-4.967h4.967zm24.835 0h-4.966v-4.967h4.966zm-59.604-4.966h-4.967v-4.967h4.967zm54.638 0h-4.968v-4.967h4.968zm-14.902-9.934h-29.802v4.966h-9.934v-4.966h9.934v-4.967h29.802zm9.934 4.966h-9.934v-4.966h9.934z" fill="#f938d8"/><path d="m310.513 295.19h-79.472v4.967h79.472z" fill="#552d1d"/><path d="m255.876 300.157h-24.835v4.967h24.835z" fill="#552d1d"/><path d="m310.513 300.157h-59.604v4.967h59.604z" fill="#552d1d"/><path d="m310.513 305.124h-79.472v4.967h79.472z" fill="#552d1d"/><path d="m306.538 310.281h4.019v-15.114h-4.019z" fill="#000"/><path d="m231.055 310.281h4.019v-15.114h-4.019z" fill="#000"/><path d="m230.978 306.24v4.073h79.539v-4.073z" fill="#000"/><path d="m230.978 295.191v4.073h79.539v-4.073z" fill="#000"/><path d="m120.199 328.857h-14.505v4.835h14.505z" fill="#f78a18"/><path d="m105.694 333.692h-4.835v4.835h4.835z" fill="#f78a18"/><path d="m120.199 333.692h-14.505v4.835h14.505z" fill="#ffd067"/><path d="m125.034 333.692h-4.835v4.835h4.835z" fill="#f78a18"/><path d="m158.879 333.692h-9.67v4.835h9.67z" fill="#d233b7"/><path d="m105.694 338.527h-4.835v4.835h4.835z" fill="#ffae1a"/><path d="m120.199 338.527h-14.505v4.835h14.505z" fill="#ffd067"/><path d="m125.034 338.527h-4.835v4.835h4.835z" fill="#ffae1a"/><g fill="#d233b7"><path d="m149.209 338.527h-4.835v4.835h4.835z"/><path d="m158.879 338.527h-4.835v4.835h4.835z"/><path d="m86.3542 343.362h-9.67v4.835h9.67z"/><path d="m134.72 338.513h-9.67v4.866h9.67z"/><path d="m100.893 338.529h-14.6093v4.835h14.6093z"/><path d="m100.86 343.362h-4.8352v4.835h4.8352z"/><path d="m125.034 343.362h-24.175v4.835h24.175z"/><path d="m129.869 343.362h-4.835v4.835h4.835z"/><path d="m144.374 343.362h-9.697v4.835h9.697z"/><path d="m158.879 343.362h-4.835v4.835h4.835z"/><path d="m76.6844 348.197h-4.835v4.835h4.835z"/><path d="m158.879 348.197h-4.835v4.835h4.835z"/><path d="m62.1796 353.032h-4.835v4.835h4.835z"/></g><path d="m86.3545 353.032h-4.835v4.835h4.835z" fill="#fff"/><path d="m163.714 353.032h-4.835v4.835h4.835z" fill="#d233b7"/><path d="m57.3446 357.866h-4.835v4.835h4.835z" fill="#d233b7"/><path d="m168.548 357.866h-4.835v4.835h4.835z" fill="#d233b7"/><path d="m57.3446 362.702h-4.835v4.834h4.835z" fill="#d233b7"/><path d="m158.879 362.702h-4.835v4.834h4.835z" fill="#9f21a0"/><path d="m178.218 362.702h-14.505v4.834h14.505z" fill="#d233b7"/><path d="m57.3446 367.537h-4.835v4.835h4.835z" fill="#d233b7"/><path d="m67.0146 362.711h-4.835v9.661h4.835z" fill="#d233b7"/><path d="m178.219 367.537h-4.835v4.835h4.835z" fill="#d233b7"/><path d="m67.0146 372.372h-9.67v4.835h9.67z" fill="#d233b7"/><path d="m178.219 372.372h-4.835v4.835h4.835z" fill="#d233b7"/><path d="m67.0146 377.207h-4.835v4.835h4.835z" fill="#d233b7"/><path d="m178.218 377.207h-14.505v4.835h14.505z" fill="#d233b7"/><path d="m71.8496 382.041h-9.67v4.835h9.67z" fill="#d233b7"/><path d="m178.219 382.041h-4.835v4.835h4.835z" fill="#d233b7"/><path d="m71.8499 386.877h-4.835v4.835h4.835z" fill="#d233b7"/><path d="m173.384 386.877h-4.835v4.835h4.835z" fill="#d233b7"/><path d="m81.5198 391.712h-14.5049v4.835h14.5049z" fill="#d233b7"/><path d="m81.5193 391.712h-9.6699v-4.835h96.6996v4.835h-9.67v4.835h-77.3597zm91.8657-14.505h-9.67v4.834h9.669v4.835h-101.5346v-4.834h-4.834v-14.505h106.3696zm-77.3598-29.01h33.8438v-4.835h9.67v4.835h4.835v-4.835h9.67v9.67h4.836v4.834h4.835v9.67h-4.835v-4.835h-4.836v4.835h-91.8646v-4.835h4.836v-9.669h9.6689v-4.835h9.6709v-4.835h9.67zm-14.5049 9.669h4.8349v-4.834h-4.8349zm19.3397-14.505h-14.5048v-4.835h14.5048zm33.844 0h-9.67v-4.835h9.67zm19.34 0h-4.835v-4.835h4.835z" fill="#fa6fe2"/><path d="m168.549 391.712h-9.67v4.835h9.67z" fill="#d233b7"/><path d="m163.714 396.547h-92.1188v4.834h92.1188z" fill="#d233b7"/><path d="m71.8536 353.052h-4.8349v9.709h4.8349z" fill="#d233b7"/><path d="m461.172 352.885h-30v-6h6v-6h6v-12h6v-6h6v-6h18v12h-6v12h-6z" fill="#7e5243"/><path d="m503.172 382.885h60.0001v6.00001h-60.0001z" fill="#c5b9a1"/><path d="m503.172 388.885h60.0001v6.00001h-60.0001z" fill="#c5b9a1"/><path d="m503.172 394.885h60.0001v6.00001h-60.0001z" fill="#c5b9a1"/><path d="m473.172 406.885h-18v-18h12v-18h-12v-18h6v-12h6v-12h6v12h-.001v12h.001zm96-78h5.999v18h6.001v12h-18v-42h6z" fill="#5a423f"/><path d="m563.172 406.885h-90v-90h90v66h-60v18h60zm-96.001-18h-11.999v-18h11.999z" fill="#8f785e"/><path d="m576.667 374.587v4.355h4.355v-4.355zm-17.421-8.711h-4.355v4.355h4.355v4.356h4.355v-4.356h4.356v-4.355h-4.356v-4.355h-4.355zm30.487 4.355h4.355v-4.355h-4.355zm30.486-26.13h-8.711v4.354h4.356v8.711h4.355v-4.355h4.356v4.355h4.354v-8.711h4.356v-4.354h-8.71v-4.356h-4.356zm-39.197 13.065h4.355v-4.355h-4.355zm4.355-4.355h4.356v-4.356h-4.356zm-8.71 0h4.355v-4.356h-4.355zm-8.71 0h4.354v-4.356h-4.354zm13.065-4.356h4.355v-4.354h-4.355zm13.065-13.065h-4.354v4.355h4.354v4.356h4.356v-4.356h4.355v-4.355h-4.355v-4.356h-4.356z" fill="#ffc925"/><path d="m550.536 387.653v4.355h60.972v-4.355zm-4.356-.001h60.974v-4.354h-60.974zm39.197-56.618h-8.71v4.356h-4.355v4.355h-4.355v4.356h-4.356v4.354h-4.355v4.356h-4.355v4.355h-4.355v8.71h-4.356v17.421h56.618v-4.355h-4.355v-17.421h-4.355v-8.71h4.355v-4.356h4.355v-4.354h4.356v-4.356h4.354v-4.355h8.711v4.355h4.356v-8.711h-4.356v-4.354h-34.842zm-4.355 47.908h-4.355v-4.355h4.355zm-17.421-13.066h4.356v4.355h-4.356v4.356h-4.355v-4.356h-4.356v-4.355h4.356v-4.355h4.355zm30.486 4.355h-4.354v-4.355h4.354zm-8.71-21.776h4.355v4.356h-4.355v4.355h-4.355v-4.355h-4.355v-4.356h4.355v-4.354h4.355zm-4.355 4.356h4.355v-4.356h-4.355zm-8.71 0h-4.355v-4.356h4.355zm26.131-17.421h4.354v4.355h-4.354v4.356h-4.355v-4.356h-4.355v-4.355h4.355v-4.355h4.355z" fill="#305ade"/><path d="m628.93 396.363h-8.711v-4.355h-78.394v4.355h-8.71v4.356h95.815z" fill="#00499c"/></g></svg>