<svg fill="none" height="152" viewBox="0 0 3368 152" width="3368" xmlns="http://www.w3.org/2000/svg"><path d="m22.22 74.042h1860.87v8.78552h-1860.87z" fill="#606ccf"/><path d="m76.2071 82.0936h7.63904v39.2998h-7.63904z" fill="#606ccf"/><path d="m152.371 82.0936h7.63904v39.2998h-7.63904z" fill="#606ccf"/><path d="m228.535 82.0936h7.63904v39.2998h-7.63904z" fill="#606ccf"/><path d="m304.699 82.0936h7.63904v39.2998h-7.63904z" fill="#606ccf"/><path d="m380.863 82.0936h7.63904v39.2998h-7.63904z" fill="#606ccf"/><path d="m457.027 82.0936h7.63904v39.2998h-7.63904z" fill="#606ccf"/><path d="m533.191 82.0936h7.63904v39.2998h-7.63904z" fill="#606ccf"/><path d="m609.355 82.0936h7.63904v39.2998h-7.63904z" fill="#606ccf"/><path d="m685.519 82.0936h7.63904v39.2998h-7.63904z" fill="#606ccf"/><path d="m761.683 82.0936h7.63904v39.2998h-7.63904z" fill="#606ccf"/><path d="m837.846 82.0936h7.63904v39.2998h-7.63904z" fill="#606ccf"/><path d="m914.01 82.0936h7.63904v39.2998h-7.63904z" fill="#606ccf"/><path d="m990.175 82.0936h7.63904v39.2998h-7.63904z" fill="#606ccf"/><path d="m1066.34 82.0936h7.63904v39.2998h-7.63904z" fill="#606ccf"/><path d="m1142.5 82.0936h7.63904v39.2998h-7.63904z" fill="#606ccf"/><path d="m1218.67 82.0936h7.63904v39.2998h-7.63904z" fill="#606ccf"/><path d="m1294.83 82.0936h7.63904v39.2998h-7.63904z" fill="#606ccf"/><path d="m1370.99 82.0936h7.63904v39.2998h-7.63904z" fill="#606ccf"/><path d="m1447.16 82.0936h7.63904v39.2998h-7.63904z" fill="#606ccf"/><path d="m1523.32 82.0936h7.63904v39.2998h-7.63904z" fill="#606ccf"/><path d="m1599.49 82.0936h7.63904v39.2998h-7.63904z" fill="#606ccf"/><path d="m1675.65 82.0936h7.63904v39.2998h-7.63904z" fill="#606ccf"/><path d="m1751.82 82.0936h7.63904v39.2998h-7.63904z" fill="#606ccf"/><path d="m1827.98 82.0936h7.63904v39.2998h-7.63904z" fill="#606ccf"/><path d="m87.6855 82.0936h7.63904v39.2998h-7.63904z" fill="#606ccf"/><path d="m163.849 82.0936h7.63904v39.2998h-7.63904z" fill="#606ccf"/><path d="m240.013 82.0936h7.63904v39.2998h-7.63904z" fill="#606ccf"/><path d="m316.177 82.0936h7.63904v39.2998h-7.63904z" fill="#606ccf"/><path d="m392.341 82.0936h7.63904v39.2998h-7.63904z" fill="#606ccf"/><path d="m468.505 82.0936h7.63904v39.2998h-7.63904z" fill="#606ccf"/><path d="m544.669 82.0936h7.63904v39.2998h-7.63904z" fill="#606ccf"/><path d="m620.833 82.0936h7.63904v39.2998h-7.63904z" fill="#606ccf"/><path d="m696.997 82.0936h7.63904v39.2998h-7.63904z" fill="#606ccf"/><path d="m773.161 82.0936h7.63904v39.2998h-7.63904z" fill="#606ccf"/><path d="m849.325 82.0936h7.63904v39.2998h-7.63904z" fill="#606ccf"/><path d="m925.489 82.0936h7.63904v39.2998h-7.63904z" fill="#606ccf"/><path d="m1001.65 82.0936h7.63904v39.2998h-7.63904z" fill="#606ccf"/><path d="m1077.82 82.0936h7.63904v39.2998h-7.63904z" fill="#606ccf"/><path d="m1153.98 82.0936h7.63904v39.2998h-7.63904z" fill="#606ccf"/><path d="m1230.15 82.0936h7.63904v39.2998h-7.63904z" fill="#606ccf"/><path d="m1306.31 82.0936h7.63904v39.2998h-7.63904z" fill="#606ccf"/><path d="m1382.47 82.0936h7.63904v39.2998h-7.63904z" fill="#606ccf"/><path d="m1458.64 82.0936h7.63904v39.2998h-7.63904z" fill="#606ccf"/><path d="m1534.8 82.0936h7.63904v39.2998h-7.63904z" fill="#606ccf"/><path d="m1610.97 82.0936h7.63904v39.2998h-7.63904z" fill="#606ccf"/><path d="m1687.13 82.0936h7.63904v39.2998h-7.63904z" fill="#606ccf"/><path d="m1763.29 82.0936h7.63904v39.2998h-7.63904z" fill="#606ccf"/><path d="m1839.46 82.0936h7.63904v39.2998h-7.63904z" fill="#606ccf"/><g fill="#99a4f8"><path d="m59.0934 68.439h19.5408v5.60303h-19.5408z"/><path d="m86.6984 68.439h19.5408v5.60303h-19.5408z"/><path d="m112.693 68.439h19.5408v5.60303h-19.5408z"/><path d="m140.298 68.439h19.5408v5.60303h-19.5408z"/><path d="m167.528 68.439h19.5408v5.60303h-19.5408z"/><path d="m195.133 68.439h19.5408v5.60303h-19.5408z"/><path d="m221.128 68.439h19.5408v5.60303h-19.5408z"/><path d="m248.733 68.439h19.5408v5.60303h-19.5408z"/><path d="m275.963 68.439h19.5408v5.60303h-19.5408z"/><path d="m303.568 68.439h19.5408v5.60303h-19.5408z"/><path d="m329.563 68.439h19.5408v5.60303h-19.5408z"/><path d="m357.168 68.439h19.5408v5.60303h-19.5408z"/><path d="m384.398 68.439h19.5408v5.60303h-19.5408z"/><path d="m412.003 68.439h19.5408v5.60303h-19.5408z"/><path d="m437.998 68.439h19.5408v5.60303h-19.5408z"/><path d="m465.603 68.439h19.5408v5.60303h-19.5408z"/><path d="m492.833 68.439h19.5408v5.60303h-19.5408z"/><path d="m520.438 68.439h19.5408v5.60303h-19.5408z"/><path d="m546.433 68.439h19.5408v5.60303h-19.5408z"/><path d="m574.038 68.439h19.5408v5.60303h-19.5408z"/><path d="m601.268 68.439h19.5408v5.60303h-19.5408z"/><path d="m628.873 68.439h19.5408v5.60303h-19.5408z"/><path d="m654.868 68.439h19.5408v5.60303h-19.5408z"/><path d="m682.473 68.439h19.5408v5.60303h-19.5408z"/><path d="m709.703 68.439h19.5408v5.60303h-19.5408z"/><path d="m737.308 68.439h19.5408v5.60303h-19.5408z"/><path d="m763.303 68.439h19.5408v5.60303h-19.5408z"/><path d="m790.908 68.439h19.5408v5.60303h-19.5408z"/><path d="m818.138 68.439h19.5408v5.60303h-19.5408z"/><path d="m845.743 68.439h19.5408v5.60303h-19.5408z"/><path d="m871.738 68.439h19.5408v5.60303h-19.5408z"/><path d="m899.342 68.439h19.5408v5.60303h-19.5408z"/><path d="m926.573 68.439h19.5408v5.60303h-19.5408z"/><path d="m954.178 68.439h19.5408v5.60303h-19.5408z"/><path d="m980.172 68.439h19.5408v5.60303h-19.5408z"/><path d="m1007.78 68.439h19.5408v5.60303h-19.5408z"/><path d="m1035.01 68.439h19.5408v5.60303h-19.5408z"/><path d="m1062.61 68.439h19.5408v5.60303h-19.5408z"/><path d="m1088.61 68.439h19.5408v5.60303h-19.5408z"/><path d="m1116.21 68.439h19.5408v5.60303h-19.5408z"/><path d="m1143.44 68.439h19.5408v5.60303h-19.5408z"/><path d="m1171.05 68.439h19.5408v5.60303h-19.5408z"/><path d="m1197.04 68.439h19.5408v5.60303h-19.5408z"/><path d="m1224.65 68.439h19.5408v5.60303h-19.5408z"/><path d="m1251.88 68.439h19.5408v5.60303h-19.5408z"/><path d="m1279.48 68.439h19.5408v5.60303h-19.5408z"/><path d="m1305.48 68.439h19.5408v5.60303h-19.5408z"/><path d="m1333.08 68.439h19.5408v5.60303h-19.5408z"/><path d="m1360.31 68.439h19.5408v5.60303h-19.5408z"/><path d="m1387.92 68.439h19.5408v5.60303h-19.5408z"/><path d="m1413.91 68.439h19.5408v5.60303h-19.5408z"/><path d="m1441.52 68.439h19.5408v5.60303h-19.5408z"/><path d="m1468.75 68.439h19.5408v5.60303h-19.5408z"/><path d="m1496.35 68.439h19.5408v5.60303h-19.5408z"/><path d="m1522.35 68.439h19.5408v5.60303h-19.5408z"/><path d="m1549.95 68.439h19.5408v5.60303h-19.5408z"/><path d="m1577.18 68.439h19.5408v5.60303h-19.5408z"/><path d="m1604.79 68.439h19.5408v5.60303h-19.5408z"/><path d="m1630.78 68.439h19.5408v5.60303h-19.5408z"/><path d="m1658.39 68.439h19.5408v5.60303h-19.5408z"/><path d="m1685.62 68.439h19.5408v5.60303h-19.5408z"/><path d="m1713.22 68.439h19.5408v5.60303h-19.5408z"/><path d="m1739.22 68.439h19.5408v5.60303h-19.5408z"/><path d="m1766.82 68.439h19.5408v5.60303h-19.5408z"/><path d="m1794.05 68.439h19.5408v5.60303h-19.5408z"/><path d="m1821.66 68.439h19.5408v5.60303h-19.5408z"/><path d="m1847.65 68.439h19.5408v5.60303h-19.5408z"/><path d="m1875.26 68.439h19.5408v5.60303h-19.5408z"/></g><path d="m1481.59 99.2632h-49.5v3.5098h-10.62v10.62h11.07 49.05z" fill="#7e89e6"/><path d="m1421.47 106.373h7.02v3.51h3.6v-3.51-3.6h-10.62z" fill="#c9cfff"/><path d="m1481.59 99.2632h-12.42v-3.51h-10.62v3.51h-15.84v-3.51h-10.62v3.51 3.5098h7.02v3.6h3.6v-3.6h3.51v3.6h10.62v-3.6h10.62v3.42h3.51v3.69h3.51v-3.69h3.6v-3.42h3.51z" fill="#c9cfff"/><path d="m1776.66 99.2632h49.59v3.5098h10.53v10.62h-11.07-49.05z" fill="#7e89e6"/><path d="m1836.78 106.373h-7.02v3.51h-3.51v-3.51-3.6h10.53z" fill="#c9cfff"/><path d="m1776.66 99.2632h12.42v-3.51h10.62v3.51h15.93v-3.51h10.62v3.51 3.5098h-7.11v3.6h-3.51v-3.6h-3.6v3.6h-10.62v-3.6h-10.62v3.42h-3.51v3.69h-3.51v-3.69h-3.51v-3.42h-3.6z" fill="#c9cfff"/><path d="m2332.66 99.2632h49.59v3.5098h10.53v10.62h-11.07-49.05z" fill="#7e89e6"/><path d="m2392.78 106.373h-7.02v3.51h-3.51v-3.51-3.6h10.53z" fill="#c9cfff"/><path d="m2332.66 99.2632h12.42v-3.51h10.62v3.51h15.93v-3.51h10.62v3.51 3.5098h-7.11v3.6h-3.51v-3.6h-3.6v3.6h-10.62v-3.6h-10.62v3.42h-3.51v3.69h-3.51v-3.69h-3.51v-3.42h-3.6z" fill="#c9cfff"/><path d="m822.25 100.703v3.15h-9.54v9.54h9.54.81 43.65v-12.69z" fill="#7e89e6"/><path d="m855.64 100.703v-3.1498h-9.54v3.1498h-14.31v-3.1498h-9.54v3.1498 3.15h-9.54v3.24h6.3v3.15h3.24v-3.15-3.24h6.3v3.24h3.24v-3.24h3.15v3.24h9.54v-3.24h9.54v3.24h3.15v3.15h3.24v-3.15h3.15v-3.24h3.15v-3.15z" fill="#c9cfff"/><path d="m1120.29 107.273v-3.15h-9.36v-6.2095h-43.29v6.2095h-9.27v9.27h9.27 43.29 7.74 1.62 6.12v-6.12z" fill="#7e89e6"/><path d="m1120.29 107.274v-3.15h-9.36v3.15 1.08 1.98h3.15 12.33v-3.06z" fill="#c9cfff"/><path d="m1104 94.8535h-5.4v-3.06h-9.27v3.06h-15.48v3.06h-6.21v3.1495h6.21v3.06h3.06v-3.06h3.06v3.06h9.36v-3.06h9.27v3.06h9.27v-3.06h3.06v-3.1495h-6.93z" fill="#c9cfff"/><path d="m1058.37 104.123v3.15h6.12v3.06h3.15v-3.06-.72-2.43z" fill="#c9cfff"/><path d="m1980.15 107.273v-3.15h9.27v-6.2095h43.38v6.2095h9.27v9.27h-9.27-43.38-7.74-1.53-6.21v-6.12z" fill="#7e89e6"/><path d="m1980.15 107.273v-3.15h9.27v3.15 1.08 1.98h-3.06-12.42v-3.06z" fill="#c9cfff"/><path d="m1996.44 94.8535h5.4v-3.06h9.27v3.06h15.48v3.06h6.21v3.1495h-6.21v3.06h-3.06v-3.06h-3.15v3.06h-9.27v-3.06h-9.27v3.06h-9.27v-3.06h-3.15v-3.1495h7.02z" fill="#c9cfff"/><path d="m2042.07 104.124v3.15h-6.21v3.06h-3.06v-3.06-.72-2.43z" fill="#c9cfff"/><path d="m1195.62 110.334v-6.21h-9.27-9.27v3.15h-6.21v6.12h6.21.63 8.64 8.1 1.17 6.93v-3.06z" fill="#7e89e6"/><path d="m1186.35 104.123v-3.06h-3.15-3.06v3.06h-3.06v3.15h9.27 6.12v3.06h3.15v-3.06-.63-2.52z" fill="#c9cfff"/><path d="m1173.93 107.273h-3.06v3.06h3.06 3.06v-3.06z" fill="#c9cfff"/><path d="m1725.27 110.334v-6.21h9.27 9.27v3.15h6.21v6.12h-6.21-.63-8.64-8.19-1.08-7.02v-3.06z" fill="#7e89e6"/><path d="m1734.54 104.123v-3.06h3.06 3.15v3.06h3.06v3.15h-9.27-6.21v3.06h-3.06v-3.06-.63-2.52z" fill="#c9cfff"/><path d="m1746.87 107.273h3.15v3.06h-3.15-3.06v-3.06z" fill="#c9cfff"/><path d="m2169.33 110.334v-6.21h-9.27-9.27v3.15h-6.21v6.12h6.21.63 8.64 8.19 1.08 7.02v-3.06z" fill="#7e89e6"/><path d="m2160.06 104.123v-3.06h-3.06-3.15v3.06h-3.06v3.15h9.27 6.21v3.06h3.06v-3.06-.63-2.52z" fill="#c9cfff"/><path d="m2147.73 107.273h-3.15v3.06h3.15 3.06v-3.06z" fill="#c9cfff"/><path d="m846.509 113.393h-845.55026v36.9h845.55026z" fill="#99a4f8"/><path d="m1686.48 113.393h-840.421v36.9h840.421z" fill="#99a4f8"/><path d="m1686.48 148.403v-16.11h-839.971-.45-845.10026v18l1526.04126.9 158.49-2.88z" fill="#444d9a"/><path d="m1672.08 130.943v-4.5h-26.64v4.5h-13.32v-4.5h-13.32v4.5h-4.5v-4.5h-4.41v4.5h-8.91v-4.5h-8.82v4.5h-17.82v-4.5h-8.82v4.5h-13.32v-4.5h-4.5v4.5h-8.91v-.09h-4.41v-4.41h-4.41v4.41h-8.91v-4.41h-8.82v4.41h-13.41v-4.41h-26.64v4.41h-13.32v-4.41h-13.32v4.41h-4.41v-4.41h-4.41v4.41h-8.91v-4.41h-8.91v4.41h-17.73v-4.41h-8.91v4.41h-13.32v-4.41h-4.41v4.41h-8.91-4.41v-4.41h-4.5v4.41h-8.82v-4.41h-8.91v4.41h-13.32v-4.41h-26.64v4.41h-13.32v-4.41h-13.32v4.41h-4.41v-4.41h-4.5v4.41h-8.82v-4.41h-8.91v4.41h-17.82v-4.41h-8.82v4.41h-13.32v-4.41h-4.5v4.41h-7.11-1.71-4.5v-4.41h-4.41v4.41h-8.91v-4.41h-8.82v4.41h-13.32v-4.41h-26.64v4.41h-13.32v-4.41h-13.32v4.41h-4.5v-4.41h-4.41v4.41h-8.91v-4.41h-8.82v4.41h-17.82v-4.41h-8.91v4.41h-13.32v-4.41h-4.41v4.41h-8.91-4.41v-4.41h-4.41v4.41h-8.91v-4.41h-8.911v4.41h-13.32v-4.41h-26.64v4.41h-13.32v-4.41h-13.32v4.41h-4.41v-4.41h-4.41v4.41h-8.91v-4.41h-8.91v4.41h-17.73v-4.41h-8.91v4.41h-13.32v-4.41h-4.41v4.41h-8.91v.09h-6.39v-4.5h-8.82v4.5h-13.32v-4.5h-26.73v4.5h-13.32v-4.5h-13.32v4.5h-4.41v-4.5h-4.41v4.5h-8.91v-4.5h-8.91v4.5h-17.73v-4.5h-8.91v4.5h-13.32v-4.5h-4.41v4.5h-8.91v-.09h-4.41v-4.41h-4.41v4.41h-8.91v-4.41h-8.91v4.41h-13.32v-4.41h-26.64v4.41h-13.32v-4.41h-13.32v4.41h-4.41v-4.41h-4.5v4.41h-8.82v-4.41h-8.91v4.41h-17.73v-4.41h-8.91v4.41h-13.32v-4.41h-4.41v4.41h-8.91-4.41v-4.41h-4.5v4.41h-8.91v-4.41h-8.82v4.41h-13.32v-4.41h-26.64v4.41h-13.32v-4.41h-13.32v4.41h-4.5v-4.41h-4.41v4.41h-8.91v-4.41h-8.82v4.41h-17.82v-4.41h-8.82v4.41h-13.41v-4.41h-4.41v4.41h-8.91-4.41v-4.41h-4.41v4.41h-8.91v-4.41h-8.91v4.41h-13.32v-4.41h-26.64v4.41h-13.32v-4.41h-13.32v4.41h-4.41v-4.41h-4.41v4.41h-8.91v-4.41h-8.91v4.41h-17.73v-4.41h-8.91v4.41h-13.32v-4.41h-4.41v4.41h-9.72-3.6v-4.41h-4.5v4.41h-8.82v-4.41h-8.91v4.41h-13.32v-4.41h-26.6403v4.41h-13.32v-4.41h-13.32v4.41h-4.41v-4.41h-4.5v4.41h-8.82v-4.41h-8.91v4.41h-17.82v-4.41h-8.82v4.41h-17.18996v4.41h8.28v4.32h4.40996v-4.32h8.91v4.32h4.41v4.41h4.5v-4.41h4.41v4.41h8.91v-4.41h4.41v-4.32h4.5v4.32h4.41v4.41h4.41v-4.41-4.32h4.5v4.32h13.32v-4.32h4.41v4.32h4.41v4.41h8.91v-4.41h13.3203v-4.32h13.32v4.32h8.91v-4.32h8.82v4.32h8.91v-4.32h8.91v4.32h4.41v-4.32h4.41v4.32h8.91v-4.32h4.41v4.32h4.5v-4.32h8.82v4.32h4.5v4.41h4.41v-4.41h4.5v4.41h8.82v-4.41h4.5v-4.32h4.41v4.32h4.41v4.41h4.5v-4.41-4.32h4.41v4.32h13.32v-4.32h4.41v4.32h4.5v4.41h8.82v-4.41h13.32v-4.32h13.32v4.32h8.91v-4.32h8.91v4.32h8.82v-4.32h8.91v4.32h4.41v-4.32h4.5v3.96h8.82v-3.96h4.5v3.96h4.41v-3.96h8.91v3.96h4.41v4.77h4.5v-4.77h4.41v4.77h8.91v-4.77h4.41v-3.96h4.41v3.96h4.5v4.77h4.41v-4.77-3.96h4.41v3.96h13.32v-3.96h4.5v3.96h4.41v4.77h8.91v-4.77h13.32v-3.96h13.32v4.32h8.82v-4.32h8.91v4.32h8.91v-4.32h8.82v4.32h4.5v-4.32h4.41v4.32h8.91v-4.32h4.41v4.32h4.5v-4.32h8.82v4.05h4.5v4.68h4.41v-4.68h4.41v4.68h8.91v-4.68h4.41v-4.05h4.5v4.05h4.41v4.68h4.41v-4.68-4.05h4.5v4.05h13.32v-4.05h4.41v4.05h4.41v4.68h8.91v-4.68h13.32v-4.05h13.32v4.32h8.91v-4.32h8.91v4.32h8.82v-4.32h8.91v4.32h4.41v-4.23h4.5v4.23h8.82v-4.23h4.5v4.23h4.41v-4.23h8.91v4.23h4.41v4.41h4.41v-4.41h4.5v4.41h8.82v-4.41h4.5v-4.23h4.41v4.23h4.41v4.41h4.5v-4.41-4.23h4.41v4.23h13.32v-4.23h4.41v4.23h4.5v4.41h8.82v-4.41h13.32v-4.23h13.41v4.23h8.82v-4.23h8.91v4.23h8.91v-4.23h2.79v-.09h3.51v4.32h8.91v-4.32h4.41v4.32h4.5v-4.32h8.82v4.32h4.5v4.41h4.41v-4.41h4.41v4.41h8.91v-4.41h4.41v-4.32h4.5v4.32h4.41v4.41h4.41v-4.41-4.32h4.5v4.32h13.32v-4.32h4.41v4.32h4.5v4.41h8.82v-4.41h13.32v-4.32h13.32v4.32h8.91v-4.32h8.91v4.32h8.821v-4.32h8.91v4.32h4.41v-4.32h4.5v4.32h8.82v-4.32h4.5v4.32h4.41v-4.32h8.91v4.32h4.41v4.41h4.41v-4.41h4.5v4.41h8.82v-4.41h4.5v-4.32h4.41v4.32h4.41v4.41h4.5v-4.41-4.32h4.41v4.32h13.32v-4.32h4.5v4.32h4.41v4.41h8.91v-4.41h13.32v-4.32h13.32v4.32h8.82v-4.32h8.91v4.32h8.91v-4.32h8.82v4.32h4.5v-4.32h4.41v4.05h8.91v-4.05h4.41v4.05h4.41v-4.05h8.91v4.05h4.41v4.68h4.5v-4.68h4.41v4.68h8.91v-4.68h4.41v-4.05h4.5v4.05h4.41v4.68h4.41v-4.68-4.05h4.5v4.05h13.32v-4.05h4.41v4.05h4.41v4.68h8.91v-4.68h13.32v-4.05h13.32v4.05h8.91v-4.05h8.82v4.05h8.91v-4.05h8.91v4.05h4.41v-4.05h4.5v4.05h8.82v-4.05h4.5v4.05h4.41v-4.05h8.82v4.05h4.5v4.68h4.41v-4.68h4.5v4.68h8.82v-4.68h4.5v-4.05h4.41v4.05h4.41v4.68h4.5v-4.68-4.05h4.41v4.05h13.32v-4.05h4.41v4.05h4.5v4.68h8.82v-4.68h13.32v-4.05h13.32v4.32h8.91v-4.32h8.91v4.32h8.82v-4.32h12.96-4.05v4.32h4.5v-4.23h4.41v4.23h8.91v-4.23h4.41v4.23h4.41v-4.23h8.91v4.23h4.41v4.41h4.5v-4.41h4.41v4.41h8.91v-4.41h4.41v-4.23h4.41v4.23h4.5v4.41h4.41v-4.41-4.23h4.41v4.23h13.32v-4.23h4.5v4.23h4.41v4.41h8.91v-4.41h13.32v-4.23h28.17v-4.41z" fill="#7e89e6"/><path d="m2291.84 70.6086h-4.14v4.4136h4.14z" fill="#99a4f8"/><path d="m2246.3 70.6085h-4.14v4.4136h4.14z" fill="#99a4f8"/><path d="m2287.7 66.1011h-8.28v4.4135h8.28z" fill="#99a4f8"/><path d="m2254.58 66.1011h-8.28v4.4135h8.28z" fill="#99a4f8"/><path d="m2279.41 61.6875h-24.84v4.4136h24.84z" fill="#99a4f8"/><path d="m2258.99 83.098h-8.82v4.6014h8.82z" fill="#7e89e6"/><path d="m2291.84 87.6993h-4.68v4.3197h4.68z" fill="#444d9a"/><path d="m2284.19 90.6105v-7.7942h-4.77v4.8831h-8.28v-4.4135h-4.14v-4.3197h-8.28v4.3197h4.14v4.4135h2.88l.72 4.3197h-.72-6.75v-4.3197h-12.69v-5.7282h-4.14v10.0479h4.14v4.3196h8.28v4.3193h8.28v12.959h8.28v-12.959h8.28v-4.3193h8.28v-5.7282z" fill="#444d9a"/><path d="m2291.83 78.8722h-8.73v4.6014h8.73z" fill="#444d9a"/><path d="m2250.43 78.4967h-4.59v4.7892h4.59z" fill="#444d9a"/><path d="m2259.34 74.3646h-9.54v4.977h9.54z" fill="#444d9a"/><path d="m2267.45 69.9512h-4.95v5.1648h4.95z" fill="#444d9a"/><path d="m2276.18 66.0071h-9.99v4.7892h9.99z" fill="#444d9a"/><path d="m2279.41 70.3269h-4.59v4.7892h4.59z" fill="#444d9a"/><path d="m2279.95 78.4967h-5.13v5.3526h5.13z" fill="#444d9a"/><path d="m2287.69 87.6993h-4.14v4.3197h4.14z" fill="#7e89e6"/><path d="m2267 87.6993h-8.28v4.6014h8.28z" fill="#7e89e6"/><path d="m2291.83 83.2858h-8.28v4.3196h8.28z" fill="#99a4f8"/><path d="m2262.86 83.2858h-4.14v4.3196h4.14z" fill="#99a4f8"/><path d="m2250.44 83.2858h-4.14v4.3196h4.14z" fill="#99a4f8"/><path d="m2275.36 74.4586-8.37.1878-.18 8.7333h4.32v4.5074h8.55v-4.5074h-4.32z" fill="#7e89e6"/><path d="m2258.72 78.9662h-8.28v4.3197h8.28z" fill="#99a4f8"/><path d="m2246.3 78.9662h4.14v-4.3197h8.28v4.3197h4.14v-8.6393h4.14v-4.3197h-12.42v4.3197h-8.28v4.3196h-4.14v8.6394h4.14z" fill="#7e89e6"/><path d="m2279.41 74.6464h-4.14v4.3196h4.14z" fill="#99a4f8"/><path d="m2267 74.6464h-4.15v4.3196h4.15z" fill="#99a4f8"/><path d="m2287.7 70.3269h-8.28v12.959h4.14v-4.3197h8.28v-4.3196h-4.14z" fill="#7e89e6"/><path d="m2275.28 70.3269h-8.28v4.3197h8.28z" fill="#99a4f8"/><path d="m2279.41 66.0071h-4.14v4.3196h4.14z" fill="#7e89e6"/><path d="m1383.06 70.6086h-4.14v4.4136h4.14z" fill="#99a4f8"/><path d="m1337.52 70.6085h-4.14v4.4136h4.14z" fill="#99a4f8"/><path d="m1378.92 66.1011h-8.28v4.4135h8.28z" fill="#99a4f8"/><path d="m1345.8 66.1011h-8.28v4.4135h8.28z" fill="#99a4f8"/><path d="m1370.64 61.6875h-24.84v4.4136h24.84z" fill="#99a4f8"/><path d="m1350.21 83.098h-8.82v4.6014h8.82z" fill="#7e89e6"/><path d="m1383.06 87.6993h-4.68v4.3197h4.68z" fill="#444d9a"/><path d="m1375.41 90.6105v-7.7942h-4.77v4.8831h-8.28v-4.4135h-4.14v-4.3197h-8.28v4.3197h4.14v4.4135h2.88l.72 4.3197h-.72-6.75v-4.3197h-12.69v-5.7282h-4.14v10.0479h4.14v4.3196h8.28v4.3193h8.28v12.959h8.28v-12.959h8.28v-4.3193h8.28v-5.7282z" fill="#444d9a"/><path d="m1383.06 78.8722h-8.73v4.6014h8.73z" fill="#444d9a"/><path d="m1341.66 78.4967h-4.59v4.7892h4.59z" fill="#444d9a"/><path d="m1350.57 74.3646h-9.54v4.977h9.54z" fill="#444d9a"/><path d="m1358.67 69.9512h-4.95v5.1648h4.95z" fill="#444d9a"/><path d="m1367.4 66.0071h-9.99v4.7892h9.99z" fill="#444d9a"/><path d="m1370.64 70.3269h-4.59v4.7892h4.59z" fill="#444d9a"/><path d="m1371.18 78.4967h-5.13v5.3526h5.13z" fill="#444d9a"/><path d="m1378.92 87.6993h-4.14v4.3197h4.14z" fill="#7e89e6"/><path d="m1358.22 87.6993h-8.28v4.6014h8.28z" fill="#7e89e6"/><path d="m1383.06 83.2858h-8.28v4.3196h8.28z" fill="#99a4f8"/><path d="m1354.08 83.2858h-4.14v4.3196h4.14z" fill="#99a4f8"/><path d="m1341.66 83.2858h-4.14v4.3196h4.14z" fill="#99a4f8"/><path d="m1366.59 74.4586-8.37.1878-.18 8.7333h4.32v4.5074h8.55v-4.5074h-4.32z" fill="#7e89e6"/><path d="m1349.94 78.9662h-8.28v4.3197h8.28z" fill="#99a4f8"/><path d="m1337.52 78.9662h4.14v-4.3197h8.28v4.3197h4.14v-8.6393h4.14v-4.3197h-12.42v4.3197h-8.28v4.3196h-4.14v8.6394h4.14z" fill="#7e89e6"/><path d="m1370.64 74.6464h-4.14v4.3196h4.14z" fill="#99a4f8"/><path d="m1358.22 74.6464h-4.14v4.3196h4.14z" fill="#99a4f8"/><path d="m1378.92 70.3269h-8.28v12.959h4.14v-4.3197h8.28v-4.3196h-4.14z" fill="#7e89e6"/><path d="m1366.5 70.3269h-8.28v4.3197h8.28z" fill="#99a4f8"/><path d="m1370.64 66.0071h-4.14v4.3196h4.14z" fill="#7e89e6"/><path d="m2527.26 113.393h-845.55v36.9h845.55z" fill="#99a4f8"/><path d="m3367.23 113.393h-840.42v36.9h840.42z" fill="#99a4f8"/><path d="m3367.23 148.403v-16.11h-839.97-.45-845.1v18l1526.04.9 158.49-2.88z" fill="#444d9a"/><path d="m3352.83 130.943v-4.5h-26.64v4.5h-13.32v-4.5h-13.32v4.5h-4.5v-4.5h-4.41v4.5h-8.91v-4.5h-8.82v4.5h-17.82v-4.5h-8.82v4.5h-13.32v-4.5h-4.5v4.5h-8.91v-.09h-4.41v-4.41h-4.41v4.41h-8.91v-4.41h-8.82v4.41h-13.41v-4.41h-26.64v4.41h-13.32v-4.41h-13.32v4.41h-4.41v-4.41h-4.41v4.41h-8.91v-4.41h-8.91v4.41h-17.73v-4.41h-8.91v4.41h-13.32v-4.41h-4.41v4.41h-8.91-4.41v-4.41h-4.5v4.41h-8.82v-4.41h-8.91v4.41h-13.32v-4.41h-26.64v4.41h-13.32v-4.41h-13.32v4.41h-4.41v-4.41h-4.5v4.41h-8.82v-4.41h-8.91v4.41h-17.82v-4.41h-8.82v4.41h-13.32v-4.41h-4.5v4.41h-7.11-1.71-4.5v-4.41h-4.41v4.41h-8.91v-4.41h-8.82v4.41h-13.32v-4.41h-26.64v4.41h-13.32v-4.41h-13.32v4.41h-4.5v-4.41h-4.41v4.41h-8.91v-4.41h-8.82v4.41h-17.82v-4.41h-8.91v4.41h-13.32v-4.41h-4.41v4.41h-8.91-4.41v-4.41h-4.41v4.41h-8.91v-4.41h-8.91v4.41h-13.32v-4.41h-26.64v4.41h-13.32v-4.41h-13.32v4.41h-4.41v-4.41h-4.41v4.41h-8.91v-4.41h-8.91v4.41h-17.73v-4.41h-8.91v4.41h-13.32v-4.41h-4.41v4.41h-8.91v.09h-6.39v-4.5h-8.82v4.5h-13.32v-4.5h-26.73v4.5h-13.32v-4.5h-13.32v4.5h-4.41v-4.5h-4.41v4.5h-8.91v-4.5h-8.91v4.5h-17.73v-4.5h-8.91v4.5h-13.32v-4.5h-4.41v4.5h-8.91v-.09h-4.41v-4.41h-4.41v4.41h-8.91v-4.41h-8.91v4.41h-13.32v-4.41h-26.64v4.41h-13.32v-4.41h-13.32v4.41h-4.41v-4.41h-4.5v4.41h-8.82v-4.41h-8.91v4.41h-17.73v-4.41h-8.91v4.41h-13.32v-4.41h-4.41v4.41h-8.91-4.41v-4.41h-4.5v4.41h-8.91v-4.41h-8.82v4.41h-13.32v-4.41h-26.64v4.41h-13.32v-4.41h-13.32v4.41h-4.5v-4.41h-4.41v4.41h-8.91v-4.41h-8.82v4.41h-17.82v-4.41h-8.82v4.41h-13.41v-4.41h-4.41v4.41h-8.91-4.41v-4.41h-4.41v4.41h-8.91v-4.41h-8.91v4.41h-13.32v-4.41h-26.64v4.41h-13.32v-4.41h-13.32v4.41h-4.41v-4.41h-4.41v4.41h-8.91v-4.41h-8.91v4.41h-17.73v-4.41h-8.91v4.41h-13.32v-4.41h-4.41v4.41h-9.72-3.6v-4.41h-4.5v4.41h-8.82v-4.41h-8.91v4.41h-13.32v-4.41h-26.64v4.41h-13.32v-4.41h-13.32v4.41h-4.41v-4.41h-4.5v4.41h-8.82v-4.41h-8.91v4.41h-17.82v-4.41h-8.82v4.41h-17.19v4.41h8.28v4.32h4.41v-4.32h8.91v4.32h4.41v4.41h4.5v-4.41h4.41v4.41h8.91v-4.41h4.41v-4.32h4.5v4.32h4.41v4.41h4.41v-4.41-4.32h4.5v4.32h13.32v-4.32h4.41v4.32h4.41v4.41h8.91v-4.41h13.32v-4.32h13.32v4.32h8.91v-4.32h8.82v4.32h8.91v-4.32h8.91v4.32h4.41v-4.32h4.41v4.32h8.91v-4.32h4.41v4.32h4.5v-4.32h8.82v4.32h4.5v4.41h4.41v-4.41h4.5v4.41h8.82v-4.41h4.5v-4.32h4.41v4.32h4.41v4.41h4.5v-4.41-4.32h4.41v4.32h13.32v-4.32h4.41v4.32h4.5v4.41h8.82v-4.41h13.32v-4.32h13.32v4.32h8.91v-4.32h8.91v4.32h8.82v-4.32h8.91v4.32h4.41v-4.32h4.5v3.96h8.82v-3.96h4.5v3.96h4.41v-3.96h8.91v3.96h4.41v4.77h4.5v-4.77h4.41v4.77h8.91v-4.77h4.41v-3.96h4.41v3.96h4.5v4.77h4.41v-4.77-3.96h4.41v3.96h13.32v-3.96h4.5v3.96h4.41v4.77h8.91v-4.77h13.32v-3.96h13.32v4.32h8.82v-4.32h8.91v4.32h8.91v-4.32h8.82v4.32h4.5v-4.32h4.41v4.32h8.91v-4.32h4.41v4.32h4.5v-4.32h8.82v4.05h4.5v4.68h4.41v-4.68h4.41v4.68h8.91v-4.68h4.41v-4.05h4.5v4.05h4.41v4.68h4.41v-4.68-4.05h4.5v4.05h13.32v-4.05h4.41v4.05h4.41v4.68h8.91v-4.68h13.32v-4.05h13.32v4.32h8.91v-4.32h8.91v4.32h8.82v-4.32h8.91v4.32h4.41v-4.23h4.5v4.23h8.82v-4.23h4.5v4.23h4.41v-4.23h8.91v4.23h4.41v4.41h4.41v-4.41h4.5v4.41h8.82v-4.41h4.5v-4.23h4.41v4.23h4.41v4.41h4.5v-4.41-4.23h4.41v4.23h13.32v-4.23h4.41v4.23h4.5v4.41h8.82v-4.41h13.32v-4.23h13.41v4.23h8.82v-4.23h8.91v4.23h8.91v-4.23h2.79v-.09h3.51v4.32h8.91v-4.32h4.41v4.32h4.5v-4.32h8.82v4.32h4.5v4.41h4.41v-4.41h4.41v4.41h8.91v-4.41h4.41v-4.32h4.5v4.32h4.41v4.41h4.41v-4.41-4.32h4.5v4.32h13.32v-4.32h4.41v4.32h4.5v4.41h8.82v-4.41h13.32v-4.32h13.32v4.32h8.91v-4.32h8.91v4.32h8.82v-4.32h8.91v4.32h4.41v-4.32h4.5v4.32h8.82v-4.32h4.5v4.32h4.41v-4.32h8.91v4.32h4.41v4.41h4.41v-4.41h4.5v4.41h8.82v-4.41h4.5v-4.32h4.41v4.32h4.41v4.41h4.5v-4.41-4.32h4.41v4.32h13.32v-4.32h4.5v4.32h4.41v4.41h8.91v-4.41h13.32v-4.32h13.32v4.32h8.82v-4.32h8.91v4.32h8.91v-4.32h8.82v4.32h4.5v-4.32h4.41v4.05h8.91v-4.05h4.41v4.05h4.41v-4.05h8.91v4.05h4.41v4.68h4.5v-4.68h4.41v4.68h8.91v-4.68h4.41v-4.05h4.5v4.05h4.41v4.68h4.41v-4.68-4.05h4.5v4.05h13.32v-4.05h4.41v4.05h4.41v4.68h8.91v-4.68h13.32v-4.05h13.32v4.05h8.91v-4.05h8.82v4.05h8.91v-4.05h8.91v4.05h4.41v-4.05h4.5v4.05h8.82v-4.05h4.5v4.05h4.41v-4.05h8.82v4.05h4.5v4.68h4.41v-4.68h4.5v4.68h8.82v-4.68h4.5v-4.05h4.41v4.05h4.41v4.68h4.5v-4.68-4.05h4.41v4.05h13.32v-4.05h4.41v4.05h4.5v4.68h8.82v-4.68h13.32v-4.05h13.32v4.32h8.91v-4.32h8.91v4.32h8.82v-4.32h12.96-4.05v4.32h4.5v-4.23h4.41v4.23h8.91v-4.23h4.41v4.23h4.41v-4.23h8.91v4.23h4.41v4.41h4.5v-4.41h4.41v4.41h8.91v-4.41h4.41v-4.23h4.41v4.23h4.5v4.41h4.41v-4.41-4.23h4.41v4.23h13.32v-4.23h4.5v4.23h4.41v4.41h8.91v-4.41h13.32v-4.23h28.17v-4.41z" fill="#7e89e6"/><path d="m567.756 9.92603h-130.528v-4.50098h130.528zm31.508 0h-31.507v-4.50098h31.507zm68.785 0h-60.763v-4.50098h60.763zm101.272 0h-101.271v-4.50098h101.271zm170.059 0h-162.035v-4.50098h162.035zm103.52 0h-94.518v-4.50098h94.518zm67.52 0h-67.52v-4.50098h67.52zm96.77 0h-87.77v-4.50098h87.77zm85.52 0h-85.52v-4.50098h85.52z" fill="#7e89e6"/><path d="m511.494 21.179h-42.76v-2.251h42.76zm56.262-2.251v2.251h-45.01v-2.251zm100.293 2.251h-29.256v-2.251h29.256zm13.504 0h-13.503v-2.251h13.503zm56.262 0h-45.01v-2.251h45.01zm113.795 0h-42.758v-2.251h42.758zm56.263 0h-45.01v-2.251h45.01zm114.777 0h-42.761v-2.251h42.761zm20.25 0h-9v-2.251h9zm36.01 0h-36.01v-2.251h36.01zm114.78 0h-42.76v-2.251h42.76zm13.5 0h-2.25v-2.251h2.25zm42.76 0h-42.76v-2.251h42.76z" fill="#393265"/><path d="m477.737 27.9301h4.501v4.5009h4.501v2.251h2.251v4.501h4.5v4.501h-11.252v-4.501h-4.501v4.501h-9.002v-9.002h4.501v4.501h4.501v-4.501h-4.501v-4.501h-4.501v-6.7519h9.002zm54.011 0h4.501v4.5009h4.501v2.251h2.251v4.501h4.501v4.501h-11.253v-4.501h-4.501v4.501h-6.751v-9.002h2.25v4.501h4.501v-4.501h-4.501v-4.501h-2.25v-6.7519h6.751zm116.047 0h4.501v4.5009h4.501v2.251h2.25v4.501h4.501v4.501h-11.252v-4.501h-4.501v4.501h-9.002v-9.002h4.501v4.501h4.501v-4.501h-4.501v-4.501h-4.501v-6.7519h9.002zm54.012 0h4.501v4.5009h4.501v2.251h2.251v4.501h4.501v4.501h-11.253v-4.501h-4.501v4.501h-6.752v-9.002h2.251v4.501h4.501v-4.501h-4.501v-4.501h-2.251v-6.7519h6.752zm116.047 0h4.501v4.5009h4.501v2.251h2.25v4.501h4.501v4.501h-11.252v-4.501h-4.501v4.501h-9.002v-9.002h4.501v4.501h4.501v-4.501h-4.501v-4.501h-4.501v-6.7519h9.002zm54.011 0h4.501v4.5009h4.501v2.251h2.25v4.501h4.501v4.501h-11.252v-4.501h-4.501v4.501h-6.751v-9.002h2.251v4.501h4.5v-4.501h-4.5v-4.501h-2.251v-6.7519h6.751zm117.026 0h4.501v4.5009h4.501v2.251h2.247v4.501h4.5v4.501h-11.248v-4.501h-4.501v4.501h-9.002v-9.002h4.501v4.501h4.501v-4.501h-4.501v-4.501h-4.501v-6.7519h9.002zm54.009 0h4.5v4.5009h4.5v2.251h2.26v4.501h4.5v4.501h-11.26v-4.501h-4.5v4.501h-6.75v-9.002h2.25v4.501h4.5v-4.501h-4.5v-4.501h-2.25v-6.7519h6.75zm117.03 0h4.5v4.5009h4.5v2.251h2.25v4.501h4.5v4.501h-11.25v-4.501h-4.5v4.501h-9v-9.002h4.5v4.501h4.5v-4.501h-4.5v-4.501h-4.5v-6.7519h9zm54.01 0h4.5v4.5009h4.5v2.251h2.25v4.501h4.5v4.501h-11.25v-4.501h-4.5v4.501h-6.75v-9.002h2.25v4.501h4.5v-4.501h-4.5v-4.501h-2.25v-6.7519h6.75zm74.27 4.5009h2.25v2.251h2.25v2.25h2.25v2.251h-9v-9.002h2.25zm9-18.0039h4.5v4.501h4.5v4.501h4.5v4.501h4.5v6.7519h-4.5v-4.501h-4.5v4.501h4.5v4.501h-9v-4.501h-2.25v-2.251h-2.25v-2.25h-2.25v-2.2509h-2.25v-2.25h-2.25v-2.251h-2.25v-2.25h-2.25v-6.752h4.5v4.501h4.5v-4.501h-4.5v-4.50095h6.75zm22.5 24.7559h-4.5v-4.501h4.5zm-808.216-4.501h-4.501v-4.501h-4.501v-4.5009h-2.251v-2.251h11.253zm54.012 0h-4.501v-4.501h-4.501v-4.5009h-2.251v-2.251h11.253zm116.046 0h-4.501v-4.501h-4.501v-4.5009h-2.25v-2.251h11.252zm54.013 0h-4.501v-4.501h-4.501v-4.5009h-2.251v-2.251h11.253zm116.046 0h-4.501v-4.501h-4.501v-4.5009h-2.25v-2.251h11.252zm54.011 0h-4.501v-4.501h-4.501v-4.5009h-2.25v-2.251h11.252zm117.028 0h-4.5v-4.501h-4.5v-4.5009h-2.25v-2.251h11.25zm51.76 0h-2.25v-4.501h-4.5v-4.5009h-2.25v-2.251h9zm2.25 0h-2.25v-11.2529h2.25zm117.03 0h-4.51v-4.501h-4.5v-4.5009h-2.25v-2.251h11.26zm54.01 0h-4.5v-4.501h-4.5v-6.7519h9zm54.01-4.501h4.5v-4.5009h-4.5zm-63.01-4.5009h-2.25v-2.251h2.25zm56.26-2.251h2.25v2.251h4.5v-4.501h-2.25v-2.251h-4.5z" fill="#99a4f8"/><path d="m495.74 43.684h-2.25v-4.501h2.25zm54.012 0h-2.25v-4.501h2.25zm116.047 0h-2.251v-4.501h2.251zm54.012 0h-2.25v-4.501h2.25zm116.047 0h-2.251v-4.501h2.251zm54.011 0h-2.251v-4.501h2.251zm117.021 0h-2.25v-4.501h2.25zm54.02 0h-2.25v-4.501h2.25zm117.02 0h-2.25v-4.501h2.25zm54.01 0h-2.25v-4.501h2.25zm-740.7-6.752h2.25v2.251h-4.5v-4.501h2.25zm20.254 2.251h-2.251v-2.251h-2.25v-2.25h4.501zm33.757-2.251h2.251v2.251h-4.501v-4.501h2.25zm20.255 2.251h-2.251v-2.251h-2.25v-2.25h4.501zm95.792-2.251h2.25v2.251h-4.501v-4.501h2.251zm20.254 2.251h-2.25v-2.251h-2.251v-2.25h4.501zm33.758-2.251h2.251v2.251h-4.501v-4.501h2.25zm20.255 2.251h-2.251v-2.251h-2.25v-2.25h4.501zm95.792-2.251h2.25v2.251h-4.501v-4.501h2.251zm20.254 2.251h-2.25v-2.251h-2.251v-2.25h4.501zm33.757-2.251h2.25v2.251h-4.501v-4.501h2.251zm20.254 2.251h-2.25v-2.251h-2.251v-2.25h4.501zm96.768-2.251h2.25v2.251h-4.5v-4.501h2.25zm20.26 2.251h-2.25v-2.251h-2.25v-2.25h4.5zm33.76-2.251h2.25v2.251h-4.5v-4.501h2.25zm20.25 2.251h-2.25v-4.501h2.25zm96.77-2.251h2.25v2.251h-4.5v-4.501h2.25zm20.26 2.251h-2.25v-2.251h-2.26v-2.25h4.51zm33.75-2.251h2.25v2.251h-4.5v-4.501h2.25zm20.26 2.251h-2.25v-2.251h-2.25v-2.25h4.5zm49.51 0h-2.25v-2.251h2.25zm4.5 0h-2.25v-4.501h2.25zm13.5 0h-4.5v-4.501h4.5zm-240.8-2.251h-2.25v-2.25h2.25zm220.55 0h-2.25v-2.25h2.25zm-805.97-2.25h-2.251v-2.251h2.251zm18.003 0h-2.251v-2.251h-2.25v-2.25h4.501zm36.008 0h-2.251v-2.251h2.251zm18.004 0h-2.251v-2.251h-2.25v-2.25h4.501zm98.042 0h-2.25v-2.251h2.25zm18.004 0h-2.25v-2.251h-2.251v-2.25h4.501zm36.009 0h-2.251v-2.251h2.251zm18.004 0h-2.251v-2.251h-2.25v-2.25h4.501zm98.042 0h-2.25v-2.251h2.25zm18.004 0h-2.25v-2.251h-2.251v-2.25h4.501zm36.007 0h-2.25v-2.251h2.25zm18.004 0h-2.25v-2.251h-2.251v-2.25h4.501zm99.019 0h-2.247v-2.251h2.247zm18.01 0h-2.25v-2.251h-2.25v-2.25h4.5zm36.01 0h-2.26v-2.251h2.26zm18 0h-2.25v-2.251h-2.25v-2.25h4.5zm99.02 0h-2.25v-2.251h2.25zm18 0h-2.25v-2.251h-2.25v-2.25h4.5zm36.01 0h-2.25v-2.251h2.25zm18.01 0h-2.25v-2.251h-2.25v-2.25h4.5zm49.51 0h-2.25v-2.251h2.25zm6.75 0h-2.25v-2.251h2.25zm11.25 0h-4.5v-4.501h4.5zm-826.221-4.501h2.25v2.25h-4.501v-4.5009h2.251zm54.011 0h2.25v2.25h-4.501v-4.5009h2.251zm116.046 0h2.251v2.25h-4.501v-4.5009h2.25zm54.013 0h2.25v2.25h-4.501v-4.5009h2.251zm116.046 0h2.251v2.25h-4.501v-4.5009h2.25zm54.011 0h2.251v2.25h-4.501v-4.5009h2.25zm117.027 0h2.25v2.25h-4.501v-4.5009h2.251zm54.007 0h2.25v2.25h-4.5v-4.5009h2.25zm117.03 0h2.25v2.25h-4.5v-4.5009h2.25zm54.01 0h2.25v2.25h-4.5v-4.5009h2.25zm69.77 2.25h-2.25v-2.25h2.25zm6.75 0h-2.25v-2.25h2.25zm-794.718-2.25h-2.251v-4.5009h2.251zm54.012 0h-2.251v-4.5009h2.251zm116.046 0h-2.25v-4.5009h2.25zm54.013 0h-2.251v-4.5009h2.251zm116.046 0h-2.25v-4.5009h2.25zm54.011 0h-2.25v-4.5009h2.25zm117.03 0h-2.25v-4.5009h2.25zm54.01 0h-2.25v-4.5009h2.25zm117.02 0h-2.25v-4.5009h2.25zm54.02 0h-2.25v-4.5009h2.25zm49.51 0h-2.25v-2.2509h2.25zm6.75 0h-2.25v-2.2509h2.25zm11.25 0h-4.5v-4.5009h4.5zm-826.222-4.5009h2.25v2.25h-4.501v-4.501h2.251zm54.011 0h2.25v2.25h-4.501v-4.501h2.251zm116.046 0h2.251v2.25h-4.501v-4.501h2.25zm54.013 0h2.25v2.25h-4.501v-4.501h2.251zm116.046 0h2.251v2.25h-4.501v-4.501h2.25zm54.011 0h2.251v2.25h-4.501v-4.501h2.25zm117.027 0h2.25v2.25h-4.501v-4.501h2.251zm54.008 0h2.25v2.25h-4.5v-4.501h2.25zm117.03 0h2.25v2.25h-4.5v-4.501h2.25zm54.01 0h2.25v2.25h-4.5v-4.501h2.25zm76.52 2.25h-2.25v-2.25h2.25zm-792.469-2.25h-2.25v-2.251h2.25zm54.012 0h-2.25v-2.251h2.25zm116.047 0h-2.251v-2.251h2.251zm54.012 0h-2.25v-2.251h2.25zm116.047 0h-2.251v-2.251h2.251zm54.011 0h-2.251v-2.251h2.251zm117.03 0h-2.25v-2.251h2.25zm54.01 0h-2.25v-2.251h2.25zm117.02 0h-2.25v-2.251h2.25zm54.02 0h-2.26v-2.251h2.26zm54.01 0h-2.25v-2.251h2.25zm9-4.501h2.25v4.501h-4.5v-2.251h-2.25v-4.501h4.5zm-11.25 2.25h-2.25v-2.25h2.25zm6.75-4.501h-4.5v-4.501h4.5zm-4.5-4.501h-4.5v-4.50095h4.5z" fill="#dbdfff"/><path d="m482.238 43.684h-4.501v-4.501h4.501zm15.753-18.0039h2.25v4.5009h2.251v2.25h2.25v2.251h2.251v2.25h2.25v2.251h2.251v4.501h-15.754v-4.501h-2.25v-2.251h-2.25v-2.25h-2.25v-2.251h-2.251v-2.25h-2.25v-2.2509h-2.251v-2.25h-2.25v-2.251h18.003zm38.258 18.0039h-4.501v-4.501h4.501zm15.754-18.0039h2.25v4.5009h2.251v2.25h2.25v2.251h2.251v2.25h2.25v2.251h2.251v4.501h-15.754v-4.501h-2.25v-2.251h-2.251v-2.25h-2.25v-2.251h-2.251v-2.25h-2.25v-2.2509h-2.251v-2.25h-2.25v-2.251h18.004zm100.293 18.0039h-4.501v-4.501h4.501zm15.753-18.0039h2.251v4.5009h2.25v2.25h2.251v2.251h2.25v2.25h2.251v2.251h2.25v4.501h-15.753v-4.501h-2.251v-2.251h-2.25v-2.25h-2.251v-2.251h-2.25v-2.25h-2.251v-2.2509h-2.25v-2.25h-2.251v-2.251h18.004zm38.259 18.0039h-4.501v-4.501h4.501zm15.754-18.0039h2.25v4.5009h2.251v2.25h2.25v2.251h2.251v2.25h2.25v2.251h2.251v4.501h-15.754v-4.501h-2.25v-2.251h-2.251v-2.25h-2.25v-2.251h-2.251v-2.25h-2.25v-2.2509h-2.251v-2.25h-2.25v-2.251h18.004zm100.293 18.0039h-4.501v-4.501h4.501zm15.753-18.0039h2.251v4.5009h2.25v2.25h2.251v2.251h2.25v2.25h2.251v2.251h2.25v4.501h-15.753v-4.501h-2.251v-2.251h-2.25v-2.25h-2.251v-2.251h-2.25v-2.25h-2.251v-2.2509h-2.25v-2.25h-2.251v-2.251h18.004zm38.258 18.0039h-4.501v-4.501h4.501zm15.753-18.0039h2.251v4.5009h2.25v2.25h2.251v2.251h2.25v2.25h2.251v2.251h2.25v4.501h-15.753v-4.501h-2.251v-2.251h-2.25v-2.25h-2.251v-2.251h-2.25v-2.25h-2.251v-2.2509h-2.25v-2.25h-2.251v-2.251h18.004zm101.273 18.0039h-4.501v-4.501h4.501zm15.758-18.0039h2.25v4.5009h2.25v2.25h2.25v2.251h2.25v2.25h2.25v2.251h2.25v4.501h-15.76v-4.501h-2.25v-2.251h-2.25v-2.25h-2.25v-2.251h-2.247v-2.25h-2.25v-2.2509h-2.251v-2.25h-2.25v-2.251h18.008zm38.25 18.0039h-4.5v-4.501h4.5zm15.76-18.0039h2.25v4.5009h2.25v2.25h2.25v2.251h2.25v2.25h2.25v6.752h-13.5v-4.501h-2.25v-2.251h-2.25v-2.25h-2.25v-2.251h-2.26v-2.25h-2.25v-2.2509h-2.25v-2.25h-2.25v-2.251h18.01zm13.5 18.0039h-2.25v-4.501h2.25zm87.77 0h-4.5v-4.501h4.5zm15.75-18.0039h2.25v4.5009h2.25v2.25h2.25v2.251h2.25v2.25h2.26v2.251h2.25v4.501h-15.76v-4.501h-2.25v-2.251h-2.25v-2.25h-2.25v-2.251h-2.25v-2.25h-2.25v-2.2509h-2.25v-2.25h-2.25v-2.251h18zm38.26 18.0039h-4.5v-4.501h4.5zm15.75-18.0039h2.26v4.5009h2.25v2.25h2.25v2.251h2.25v2.25h2.25v2.251h2.25v4.501h-15.76v-4.501h-2.25v-2.251h-2.25v-2.25h-2.25v-2.251h-2.25v-2.25h-2.25v-2.2509h-2.25v-2.25h-2.25v-2.251h18zm-756.453 13.5029h-4.501v-4.501h4.501zm54.011 0h-4.501v-4.501h4.501zm116.047 0h-4.501v-4.501h4.501zm54.012 0h-4.501v-4.501h4.501zm116.047 0h-4.501v-4.501h4.501zm54.011 0h-4.5v-4.501h4.5zm117.026 0h-4.501v-4.501h4.501zm54.009 0h-4.5v-4.501h4.5zm117.03 0h-4.5v-4.501h4.5zm54.01 0h-4.5v-4.501h4.5zm74.27-13.5029h2.25v2.25h2.25v2.2509h2.25v2.25h2.25v2.251h2.25v4.501h-2.25v-2.251h-2.25v-2.25h-2.25v-2.251h-2.25v-2.25h-2.25v-2.2509h-2.25v-4.501h2.25zm-814.974 9.0019h-4.501v-4.501h4.501zm54.011 0h-2.25v-4.501h2.25zm116.047 0h-4.501v-4.501h4.501zm54.012 0h-2.251v-4.501h2.251zm116.047 0h-4.501v-4.501h4.501zm54.012 0h-2.251v-4.501h2.251zm117.025 0h-4.501v-4.501h4.501zm54.01 0h-2.25v-4.501h2.25zm117.03 0h-4.5v-4.501h4.5zm54.01 0h-2.25v-4.501h2.25z" fill="#c9cfff"/><path d="m524.997 43.6838h-2.251v-20.2548h2.251zm170.059 0h-2.251v-20.2548h2.251zm170.057 0h-2.25v-20.2548h2.25zm171.037 0h-2.25v-20.2548h2.25zm171.04-18.0039v18.0039h-2.25v-20.2548h2.25z" fill="#516ba2"/><path d="m524.997 48.1848h-2.251v-4.501h2.251zm170.059 0h-2.251v-4.501h2.251zm170.057 0h-2.25v-4.501h2.25zm171.037 0h-2.25v-4.501h2.25zm-569.666-4.501h-2.25v-20.2548h2.25zm170.058 0h-2.25v-20.2548h2.25zm170.059 0h-2.25v-20.2548h2.25zm171.038 0h-2.251v-20.2548h2.251zm171.041 0h-2.25v-20.2548h2.25zm-632.685-20.2548h-49.511v-2.25h49.511zm51.761 0h-47.26v-2.25h47.26zm2.251 0h-2.25v-2.25h2.25zm98.042 0h-31.507v-2.25h31.507zm18.005 0h-18.004v-2.25h18.004zm54.012 0h-49.511v-2.25h49.511zm116.045 0h-49.51v-2.25h49.51zm54.013 0h-49.512v-2.25h49.512zm117.026 0h-49.511v-2.25h49.511zm15.75 0h-11.25v-2.25h11.25zm38.26 0h-38.26v-2.25h38.26zm117.03 0h-49.51v-2.25h49.51zm9 0h-4.5v-2.25h4.5zm45.01 0h-45.01v-2.25h45.01z" fill="#3b447a"/><path d="m567.756 18.928h-45.01v2.251h-2.25v22.5048h2.25v4.501h42.76v-4.501h2.25v13.503h-130.528v-47.26077h130.528zm31.508 38.2588h-31.507v-13.503h2.25v-22.5048h-2.25v-11.25297h31.507zm68.785-38.2588h-29.256v2.251h-2.251v2.25h-2.25v20.2548h4.501v4.501h29.256v9.002h-60.763v-47.26077h60.763zm101.272 38.2588h-101.271v-9.002h13.503v-4.501h4.501v-22.5048h-4.501v-2.251h-13.503v-9.00197h101.271zm170.059 0h-162.035v-47.26077h162.035zm103.52-38.2588h-9v2.251h-2.25v22.5048h2.25v4.501h9v9.002h-94.518v-47.26077h94.518zm67.52 38.2588h-67.52v-9.002h33.76v-4.501h4.5v-22.5048h-2.25v-2.251h-36.01v-9.00197h67.52zm96.77-38.2588h-2.25v2.251h-2.25v22.5048h2.25v4.501h2.25v9.002h-87.77v-47.26077h87.77zm74.27 20.2549h4.5v4.5009h33.75v11.252h-4.5v2.251h-108.02v-9.002h40.51v-4.501h4.5v-22.5048h-2.25v-2.251h-42.76v-9.00197h74.27zm-837.48 9.0019h4.501v2.25h13.503v-27.0058h-18.004zm130.528 2.25h15.754v-27.0058h-15.754zm39.529-2.25h4.501v2.25h13.503v-27.0058h-18.004zm130.53 2.25h15.752v-27.0058h-15.752zm39.529-2.25h4.501v2.25h13.503v-27.0058h-18.004zm130.529 2.25h15.753v-27.0058h-15.753zm40.509-2.25h2.25v2.25h15.754v-27.0058h-18.004zm130.526 2.25h15.76v-27.0058h-15.76zm40.51-2.25h2.25v2.25h15.75v-27.0058h-18zm130.53 2.25h15.75v-27.0058h-15.75zm-799.217-2.25h-9.002v-13.5029h9.002zm11.251-27.0058h-2.25v2.25h-2.25v20.2548h4.5v4.501h42.76v-4.501h4.501v-22.5048h-4.501v-2.251h-42.76zm117.027 27.0058h-6.752v-22.5049h6.752zm41.779 0h-9.002v-13.5029h9.002zm65.265-27.0058h-2.25v22.5048h2.25v4.501h42.76v-4.501h4.501v-22.5048h-2.251v-2.251h-45.01zm63.013 27.0058h-6.75v-22.5049h6.75zm41.781 0h-9.002v-13.5029h9.002zm11.253-27.0058h-2.251v2.25h-2.25v20.2548h4.501v4.501h42.758v-4.501h4.501v-22.5048h-4.501v-2.251h-42.758zm54.011 0h-2.251v22.5048h2.251v4.501h42.759v-4.501h4.502v-22.5048h-2.251v-2.251h-45.01zm63.014 27.0058h-6.751v-22.5049h6.751zm42.76 0h-9.002v-13.5029h9.002zm11.252-27.0058h-2.25v2.25h-2.251v20.2548h4.501v4.501h42.761v-4.501h4.5v-22.5048h-4.5v-2.251h-42.761zm117.031 27.0058h-6.76v-22.5049h6.76zm42.75 0h-9v-13.5029h9zm11.26-27.0058h-2.25v2.25h-2.25v20.2548h4.5v4.501h42.76v-4.501h4.5v-22.5048h-4.5v-2.251h-42.76zm117.02 27.0058h-6.75v-22.5049h6.75zm-810.467-18.0039h-9.002v-4.501h9.002zm170.057 0h-9.002v-4.501h9.002zm170.059 0h-9.002v-4.501h9.002zm171.038 0h-9.002v-4.501h9.002zm171.033 0h-9v-4.501h9zm-571.914-24.75585h-126.027v-4.500978h126.027zm31.508 0h-31.507v-4.500978h31.507zm68.785 0h-56.262v-4.500978h56.262zm101.272 0h-101.271v-4.500978h101.271zm170.059 0h-157.534v-4.500978h157.534zm103.52 0h-90.017v-4.500978h90.017zm67.52 0h-67.52v-4.500978h67.52zm96.77 0h-83.27v-4.500978h83.27zm76.52 0h-76.52v-4.500978h76.52z" fill="#606ccf"/><path d="m567.756 63.9377h-130.528v-4.5009h130.528zm31.508 0h-31.507v-4.5009h31.507zm68.785 0h-60.763v-4.5009h60.763zm101.272 0h-101.271v-4.5009h101.271zm170.059 0h-162.035v-4.5009h162.035zm103.52 0h-94.518v-4.5009h94.518zm67.52 0h-67.52v-4.5009h67.52zm96.77 0h-87.77v-4.5009h87.77zm103.52 0h-103.52v-4.5009h103.52zm-705.675-9.0019h-6.751v-36.0078h6.751zm170.059 0h-6.752v-36.0078h6.752zm171.038 0h-6.752v-36.0078h6.752zm171.038 0h-6.75v-36.0078h6.75zm-655.186-4.501h-13.503v-2.25h9.002v-13.5029h-9.002v-4.501h9.002v-6.7519h4.501zm128.278 0h-11.253v-2.25h6.752v-24.7558h4.501zm41.779 0h-13.503v-2.25h9.002v-13.5029h-9.002v-4.501h9.002v-6.7519h4.501zm128.278 0h-11.251v-2.25h6.75v-24.7558h4.501zm41.781 0h-13.503v-2.25h9.002v-13.5029h-9.002v-4.501h9.002v-6.7519h4.501zm128.278 0h-11.252v-2.25h6.751v-24.7558h4.501zm42.76 0h-13.503v-2.25h9.002v-13.5029h-9.002v-4.501h9.002v-6.7519h4.501zm128.282 0h-11.26v-2.25h6.76v-24.7558h4.5zm42.75 0h-13.5v-2.25h9v-13.5029h-9v-4.501h9v-6.7519h4.5zm128.28 0h-11.25v-2.25h6.75v-24.7558h4.5zm-760.956-2.25h-42.76v-4.501h42.76zm54.012 0h-40.509v-4.501h40.509zm102.543 0h-29.256v-4.501h29.256zm13.504 0h-13.503v-4.501h13.503zm54.012 0h-40.509v-4.501h40.509zm116.045 0h-42.758v-4.501h42.758zm54.012 0h-40.509v-4.501h40.509zm117.028 0h-42.761v-4.501h42.761zm20.25 0h-6.75v-4.501h6.75zm33.76 0h-33.76v-4.501h33.76zm117.03 0h-42.76v-4.501h42.76zm54.01 0h-40.51v-4.501h40.51zm-731.705-4.501h-4.501v-20.2548h4.501zm51.761 0h-2.25v-20.2548h2.25zm2.251 0h-2.25v-20.2548h2.25zm116.047 0h-4.501v-20.2548h4.501zm54.012 0h-4.501v-20.2548h4.501zm116.045 0h-4.501v-20.2548h4.501zm54.013 0h-4.502v-20.2548h4.502zm117.026 0h-4.5v-20.2548h4.5zm54.01 0h-4.5v-20.2548h4.5zm117.03 0h-4.5v-20.2548h4.5zm54.01 0h-4.5v-20.2548h4.5zm67.51 0h-33.75v-4.5009h33.75z" fill="#242a5f"/><path d="m567.756 68.4387h-126.027v-4.501h126.027zm31.508 0h-31.507v-4.501h31.507zm68.785 0h-56.262v-4.501h56.262zm101.272 0h-101.271v-4.501h101.271zm170.059 0h-157.534v-4.501h157.534zm103.52 0h-90.017v-4.501h90.017zm67.52 0h-67.52v-4.501h67.52zm96.77 0h-83.27v-4.501h83.27zm99.02 0h-99.02v-4.501h99.02zm-738.454-9.0019h-130.528v-2.25h130.528zm31.508 0h-31.507v-2.25h31.507zm68.785 0h-60.763v-2.25h60.763zm101.272 0h-101.271v-2.25h101.271zm170.059 0h-162.035v-2.25h162.035zm103.52 0h-94.518v-2.25h94.518zm67.52 0h-67.52v-2.25h67.52zm96.77 0h-87.77v-2.25h87.77zm108.02 0h-108.02v-2.25h108.02zm-707.924-4.501h-2.251v-36.0078h2.251zm170.059 0h-2.251v-36.0078h2.251zm171.037 0h-2.25v-36.0078h2.25zm171.038 0h-2.25v-36.0078h2.25zm-533.659-29.2559h-6.752v24.7549h-4.501v-27.0058h11.253zm170.057 0h-6.75v24.7549h-4.501v-27.0058h11.251zm170.059 0h-6.751v24.7549h-4.501v-27.0058h11.252zm42.76 0h-9.002v24.7549h-2.251v-2.25h-2.25v-24.7558h13.503zm128.283 0h-6.76v24.7549h-4.5v-27.0058h11.26zm42.75 0h-9v24.7549h-2.25v-2.25h-2.25v-24.7558h13.5zm128.28 0h-6.75v24.7549h-4.5v-27.0058h11.25zm-810.467 0h-9.002v22.5049h-4.501v-24.7558h13.503zm170.057 0h-9.002v22.5049h-4.501v-24.7558h13.503zm170.059 0h-9.002v22.5049h-4.501v-24.7558h13.503zm409.591 22.5049h-2.25v-4.501h2.25zm-738.456-4.501h-2.25v-20.2548h2.25zm54.012 0h-2.25v-20.2548h2.25zm116.047 0h-2.251v-20.2548h2.251zm54.012 0h-2.25v-20.2548h2.25zm116.047 0h-2.251v-20.2548h2.251zm54.011 0h-2.251v-20.2548h2.251zm117.026 0h-2.25v-20.2548h2.25zm54.011 0h-2.25v-20.2548h2.25zm117.03 0h-2.25v-20.2548h2.25zm54.01 0h-2.25v-20.2548h2.25zm81.02-4.5009h-4.5v-29.25687h4.5z" fill="#3d4691"/><path d="m1839.46 74.042h1528.22v8.78552h-1528.22z" fill="#606ccf"/><path d="m1893.44 82.0936h7.63904v39.2998h-7.63904z" fill="#606ccf"/><path d="m1969.61 82.0936h7.63904v39.2998h-7.63904z" fill="#606ccf"/><path d="m2045.77 82.0936h7.63904v39.2998h-7.63904z" fill="#606ccf"/><path d="m2121.94 82.0936h7.63904v39.2998h-7.63904z" fill="#606ccf"/><path d="m2198.1 82.0936h7.63904v39.2998h-7.63904z" fill="#606ccf"/><path d="m2274.26 82.0936h7.63904v39.2998h-7.63904z" fill="#606ccf"/><path d="m2350.43 82.0936h7.63904v39.2998h-7.63904z" fill="#606ccf"/><path d="m2426.59 82.0936h7.63904v39.2998h-7.63904z" fill="#606ccf"/><path d="m2502.76 82.0936h7.63904v39.2998h-7.63904z" fill="#606ccf"/><path d="m2578.92 82.0936h7.63904v39.2998h-7.63904z" fill="#606ccf"/><path d="m2655.08 82.0936h7.63904v39.2998h-7.63904z" fill="#606ccf"/><path d="m2731.25 82.0936h7.63904v39.2998h-7.63904z" fill="#606ccf"/><path d="m2807.41 82.0936h7.63904v39.2998h-7.63904z" fill="#606ccf"/><path d="m2883.58 82.0936h7.63904v39.2998h-7.63904z" fill="#606ccf"/><path d="m2959.74 82.0936h7.63904v39.2998h-7.63904z" fill="#606ccf"/><path d="m3035.9 82.0936h7.63904v39.2998h-7.63904z" fill="#606ccf"/><path d="m3112.07 82.0936h7.63904v39.2998h-7.63904z" fill="#606ccf"/><path d="m3188.23 82.0936h7.63904v39.2998h-7.63904z" fill="#606ccf"/><path d="m3264.4 82.0936h7.63904v39.2998h-7.63904z" fill="#606ccf"/><path d="m3340.56 82.0936h7.63904v39.2998h-7.63904z" fill="#606ccf"/><path d="m1904.92 82.0936h7.63904v39.2998h-7.63904z" fill="#606ccf"/><path d="m1981.09 82.0936h7.63904v39.2998h-7.63904z" fill="#606ccf"/><path d="m2057.25 82.0936h7.63904v39.2998h-7.63904z" fill="#606ccf"/><path d="m2133.42 82.0936h7.63904v39.2998h-7.63904z" fill="#606ccf"/><path d="m2209.58 82.0936h7.63904v39.2998h-7.63904z" fill="#606ccf"/><path d="m2285.74 82.0936h7.63904v39.2998h-7.63904z" fill="#606ccf"/><path d="m2361.91 82.0936h7.63904v39.2998h-7.63904z" fill="#606ccf"/><path d="m2438.07 82.0936h7.63904v39.2998h-7.63904z" fill="#606ccf"/><path d="m2514.23 82.0936h7.63904v39.2998h-7.63904z" fill="#606ccf"/><path d="m2590.4 82.0936h7.63904v39.2998h-7.63904z" fill="#606ccf"/><path d="m2666.56 82.0936h7.63904v39.2998h-7.63904z" fill="#606ccf"/><path d="m2742.73 82.0936h7.63904v39.2998h-7.63904z" fill="#606ccf"/><path d="m2818.89 82.0936h7.63904v39.2998h-7.63904z" fill="#606ccf"/><path d="m2895.05 82.0936h7.63904v39.2998h-7.63904z" fill="#606ccf"/><path d="m2971.22 82.0936h7.63904v39.2998h-7.63904z" fill="#606ccf"/><path d="m3047.38 82.0936h7.63904v39.2998h-7.63904z" fill="#606ccf"/><path d="m3123.55 82.0936h7.63904v39.2998h-7.63904z" fill="#606ccf"/><path d="m3199.71 82.0936h7.63904v39.2998h-7.63904z" fill="#606ccf"/><path d="m3275.88 82.0936h7.63904v39.2998h-7.63904z" fill="#606ccf"/><path d="m3352.04 82.0936h7.63904v39.2998h-7.63904z" fill="#606ccf"/><path d="m1876.33 68.439h19.5408v5.60303h-19.5408z" fill="#99a4f8"/><path d="m1903.94 68.439h19.5408v5.60303h-19.5408z" fill="#99a4f8"/><path d="m1929.93 68.439h19.5408v5.60303h-19.5408z" fill="#99a4f8"/><path d="m1957.54 68.439h19.5408v5.60303h-19.5408z" fill="#99a4f8"/><path d="m1984.77 68.439h19.5408v5.60303h-19.5408z" fill="#99a4f8"/><path d="m2012.37 68.439h19.5408v5.60303h-19.5408z" fill="#99a4f8"/><path d="m2038.37 68.439h19.5408v5.60303h-19.5408z" fill="#99a4f8"/><path d="m2065.97 68.439h19.5408v5.60303h-19.5408z" fill="#99a4f8"/><path d="m2093.2 68.439h19.5408v5.60303h-19.5408z" fill="#99a4f8"/><path d="m2120.81 68.439h19.5408v5.60303h-19.5408z" fill="#99a4f8"/><path d="m2146.8 68.439h19.5408v5.60303h-19.5408z" fill="#99a4f8"/><path d="m2174.41 68.439h19.5408v5.60303h-19.5408z" fill="#99a4f8"/><path d="m2201.64 68.439h19.5408v5.60303h-19.5408z" fill="#99a4f8"/><path d="m2229.24 68.439h19.5408v5.60303h-19.5408z" fill="#99a4f8"/><path d="m2255.24 68.439h19.5408v5.60303h-19.5408z" fill="#99a4f8"/><path d="m2282.84 68.439h19.5408v5.60303h-19.5408z" fill="#99a4f8"/><path d="m2310.07 68.439h19.5408v5.60303h-19.5408z" fill="#99a4f8"/><path d="m2337.68 68.439h19.5408v5.60303h-19.5408z" fill="#99a4f8"/><path d="m2363.67 68.439h19.5408v5.60303h-19.5408z" fill="#99a4f8"/><path d="m2391.28 68.439h19.5408v5.60303h-19.5408z" fill="#99a4f8"/><path d="m2418.51 68.439h19.5408v5.60303h-19.5408z" fill="#99a4f8"/><path d="m2446.11 68.439h19.5408v5.60303h-19.5408z" fill="#99a4f8"/><path d="m2472.11 68.439h19.5408v5.60303h-19.5408z" fill="#99a4f8"/><path d="m2499.71 68.439h19.5408v5.60303h-19.5408z" fill="#99a4f8"/><path d="m2526.94 68.439h19.5408v5.60303h-19.5408z" fill="#99a4f8"/><path d="m2554.55 68.439h19.5408v5.60303h-19.5408z" fill="#99a4f8"/><path d="m2580.54 68.439h19.5408v5.60303h-19.5408z" fill="#99a4f8"/><path d="m2608.15 68.439h19.5408v5.60303h-19.5408z" fill="#99a4f8"/><path d="m2635.38 68.439h19.5408v5.60303h-19.5408z" fill="#99a4f8"/><path d="m2662.98 68.439h19.5408v5.60303h-19.5408z" fill="#99a4f8"/><path d="m2688.98 68.439h19.5408v5.60303h-19.5408z" fill="#99a4f8"/><path d="m2716.58 68.439h19.5408v5.60303h-19.5408z" fill="#99a4f8"/><path d="m2743.81 68.439h19.5408v5.60303h-19.5408z" fill="#99a4f8"/><path d="m2771.42 68.439h19.5408v5.60303h-19.5408z" fill="#99a4f8"/><path d="m2797.41 68.439h19.5408v5.60303h-19.5408z" fill="#99a4f8"/><path d="m2825.02 68.439h19.5408v5.60303h-19.5408z" fill="#99a4f8"/><path d="m2852.25 68.439h19.5408v5.60303h-19.5408z" fill="#99a4f8"/><path d="m2879.85 68.439h19.5408v5.60303h-19.5408z" fill="#99a4f8"/><path d="m2905.85 68.439h19.5408v5.60303h-19.5408z" fill="#99a4f8"/><path d="m2933.45 68.439h19.5408v5.60303h-19.5408z" fill="#99a4f8"/><path d="m2960.68 68.439h19.5408v5.60303h-19.5408z" fill="#99a4f8"/><path d="m2988.29 68.439h19.5408v5.60303h-19.5408z" fill="#99a4f8"/><path d="m3014.28 68.439h19.5408v5.60303h-19.5408z" fill="#99a4f8"/><path d="m3041.89 68.439h19.5408v5.60303h-19.5408z" fill="#99a4f8"/><path d="m3069.12 68.439h19.5408v5.60303h-19.5408z" fill="#99a4f8"/><path d="m3096.72 68.439h19.5408v5.60303h-19.5408z" fill="#99a4f8"/><path d="m3122.72 68.439h19.5408v5.60303h-19.5408z" fill="#99a4f8"/><path d="m3150.32 68.439h19.5408v5.60303h-19.5408z" fill="#99a4f8"/><path d="m3177.55 68.439h19.5408v5.60303h-19.5408z" fill="#99a4f8"/><path d="m3205.16 68.439h19.5408v5.60303h-19.5408z" fill="#99a4f8"/><path d="m3231.15 68.439h19.5408v5.60303h-19.5408z" fill="#99a4f8"/><path d="m3258.76 68.439h19.5408v5.60303h-19.5408z" fill="#99a4f8"/><path d="m3285.99 68.439h19.5408v5.60303h-19.5408z" fill="#99a4f8"/><path d="m3313.59 68.439h19.5408v5.60303h-19.5408z" fill="#99a4f8"/><path d="m3339.59 68.439h19.5408v5.60303h-19.5408z" fill="#99a4f8"/></svg>