<svg width="599" height="128" viewBox="0 0 599 128" fill="none" xmlns="http://www.w3.org/2000/svg">
<path d="M30.2714 0.463192C46.4798 0.463192 59.5743 13.398 59.5743 29.6064C59.5743 45.8147 46.4798 58.6697 30.2714 58.6697C14.063 58.6697 0.96858 45.8147 0.96858 29.6064C0.96858 13.398 14.063 0.463192 30.2714 0.463192ZM30.2714 32.4009C31.7885 32.4009 33.066 31.2032 33.066 29.6064C33.066 28.0893 31.7885 26.8118 30.2714 26.8118C28.7544 26.8118 27.4769 28.0893 27.4769 29.6064C27.4769 31.2032 28.7544 32.4009 30.2714 32.4009ZM92.3229 29.3668V57.9511C92.3229 58.3503 91.9237 58.6697 91.5245 58.6697H65.5751C65.1759 58.6697 64.8565 58.3503 64.8565 57.9511V1.26163C64.8565 0.78257 65.1759 0.463192 65.5751 0.463192H91.6842C92.1632 0.463192 92.4826 0.702727 92.5625 1.18179L96.1555 29.1273C96.1555 29.287 96.3151 29.287 96.3151 29.1273V1.26163C96.3151 0.78257 96.6345 0.463192 97.0337 0.463192H122.983C123.382 0.463192 123.782 0.78257 123.782 1.26163V57.9511C123.782 58.3503 123.382 58.6697 122.983 58.6697H96.7942C96.4748 58.5898 96.2353 58.2705 96.1555 57.9511L92.4826 29.3668C92.4826 29.2071 92.3229 29.2071 92.3229 29.3668ZM130.996 0.463192H166.447C177.146 0.463192 185.929 9.24606 185.929 19.9452C185.929 23.3785 185.051 26.6521 183.374 29.5265C185.051 32.4808 185.929 35.7544 185.929 39.1877C185.929 49.8868 177.146 58.6697 166.447 58.6697H130.996C130.517 58.6697 130.198 58.3503 130.198 57.9511V1.26163C130.198 0.862413 130.517 0.463192 130.996 0.463192ZM156.227 14.6755V19.546H157.584C158.942 19.546 160.06 18.508 160.06 17.1506C160.06 15.7933 158.942 14.6755 157.584 14.6755H156.227ZM156.227 39.7466V44.6969H157.584C158.942 44.6969 160.06 43.5791 160.06 42.2218C160.06 40.8644 158.942 39.7466 157.584 39.7466H156.227ZM218.654 0.463192C234.862 0.463192 247.957 13.398 247.957 29.6064C247.957 45.8147 234.862 58.6697 218.654 58.6697C202.446 58.6697 189.351 45.8147 189.351 29.6064C189.351 13.398 202.446 0.463192 218.654 0.463192ZM218.654 32.4009C220.171 32.4009 221.449 31.2032 221.449 29.6064C221.449 28.0893 220.171 26.8118 218.654 26.8118C217.137 26.8118 215.859 28.0893 215.859 29.6064C215.859 31.2032 217.137 32.4009 218.654 32.4009ZM292.897 0.942256L312.299 57.6317C312.538 58.2705 312.219 58.6697 311.58 58.6697H285.471C284.912 58.6697 284.673 58.3503 284.513 57.8712L282.996 53.3201H275.81L274.293 57.8712C274.133 58.3503 273.894 58.6697 273.335 58.6697H247.146C246.507 58.6697 246.188 58.2705 246.427 57.6317L265.989 0.942256C266.149 0.622879 266.388 0.463192 266.788 0.463192H292.178C292.498 0.463192 292.817 0.622879 292.897 0.942256ZM276.928 49.9667H281.878L279.403 42.3016L276.928 49.9667ZM361.641 37.9102L375.214 57.472C375.374 57.7115 375.374 58.0309 375.214 58.2705C375.055 58.51 374.815 58.6697 374.496 58.6697H348.067C347.828 58.6697 347.588 58.5898 347.429 58.3503L342.718 51.7232V57.8712C342.718 58.3503 342.398 58.6697 341.919 58.6697H318.365C317.886 58.6697 317.567 58.3503 317.567 57.8712V1.26163C317.567 0.78257 317.886 0.463192 318.365 0.463192H353.417C364.994 0.463192 373.378 8.36777 373.378 19.9452C373.378 27.6901 368.667 34.8761 361.641 37.9102ZM342.957 17.47V22.4204H344.315C345.752 22.4204 346.949 21.3026 346.949 19.9452C346.949 18.5878 345.752 17.47 344.315 17.47H342.957ZM381.289 0.463192H407.878C423.846 0.463192 436.861 13.5577 436.861 29.6064C436.861 45.5752 423.846 58.6697 407.798 58.6697H381.289C380.81 58.6697 380.491 58.3503 380.491 57.9511V1.26163C380.491 0.862413 380.81 0.463192 381.289 0.463192ZM406.201 26.6521V32.3211H407.798C409.395 32.3211 410.672 31.1234 410.672 29.5265C410.672 27.9296 409.395 26.6521 407.798 26.6521H406.201ZM455.663 28.7281C447.758 28.7281 441.291 22.3405 441.291 14.4359C441.291 6.53136 447.758 0.463192 455.663 0.463192C463.647 0.463192 470.035 6.53136 470.035 14.4359C470.035 22.3405 463.647 28.7281 455.663 28.7281ZM442.489 30.4048H468.837C469.237 30.4048 469.636 30.804 469.636 31.2032V57.8712C469.636 58.3503 469.237 58.6697 468.837 58.6697H442.489C442.09 58.6697 441.69 58.3503 441.69 57.8712V31.2032C441.69 30.804 442.09 30.4048 442.489 30.4048ZM503.084 29.3668V57.9511C503.084 58.3503 502.685 58.6697 502.286 58.6697H476.337C475.937 58.6697 475.618 58.3503 475.618 57.9511V1.26163C475.618 0.78257 475.937 0.463192 476.337 0.463192H502.446C502.925 0.463192 503.244 0.702727 503.324 1.18179L506.917 29.1273C506.917 29.287 507.077 29.287 507.077 29.1273V1.26163C507.077 0.78257 507.396 0.463192 507.795 0.463192H533.745C534.144 0.463192 534.543 0.78257 534.543 1.26163V57.9511C534.543 58.3503 534.144 58.6697 533.745 58.6697H507.556C507.236 58.5898 506.997 58.2705 506.917 57.9511L503.244 29.3668C503.244 29.2071 503.084 29.2071 503.084 29.3668ZM572.578 30.8839H597.888C598.287 30.8839 598.527 31.2831 598.527 31.6823V47.8907C598.527 48.2899 598.208 48.6891 597.808 48.6891H591.421C586.071 54.9968 578.007 58.6697 569.224 58.6697C553.016 58.6697 539.762 45.7349 539.762 29.5265C539.762 13.398 553.016 0.463192 569.224 0.463192C584.395 0.463192 597.249 11.9608 598.447 27.2909C598.527 28.0095 598.367 28.249 597.649 28.249H572.578C572.338 28.249 572.098 28.0893 571.939 27.8498C571.22 26.8118 570.342 26.3327 569.224 26.3327C567.388 26.3327 565.95 27.7699 565.95 29.5265C565.95 31.3629 567.388 32.8001 569.224 32.8001C570.342 32.8001 571.3 32.2412 571.939 31.2032C572.098 30.9637 572.338 30.8839 572.578 30.8839ZM84.7193 69.4632H120.17C130.869 69.4632 139.652 78.2461 139.652 88.9452C139.652 92.3785 138.774 95.6521 137.097 98.5265C138.774 101.481 139.652 104.754 139.652 108.188C139.652 118.887 130.869 127.67 120.17 127.67H84.7193C84.2402 127.67 83.9209 127.35 83.9209 126.951V70.2616C83.9209 69.8624 84.2402 69.4632 84.7193 69.4632ZM109.95 83.6755V88.546H111.307C112.665 88.546 113.783 87.508 113.783 86.1506C113.783 84.7933 112.665 83.6755 111.307 83.6755H109.95ZM109.95 108.747V113.697H111.307C112.665 113.697 113.783 112.579 113.783 111.222C113.783 109.864 112.665 108.747 111.307 108.747H109.95ZM187.126 69.9423L206.529 126.632C206.768 127.27 206.449 127.67 205.81 127.67H179.701C179.142 127.67 178.903 127.35 178.743 126.871L177.226 122.32H170.04L168.523 126.871C168.363 127.35 168.124 127.67 167.565 127.67H141.376C140.737 127.67 140.418 127.27 140.657 126.632L160.219 69.9423C160.379 69.6229 160.618 69.4632 161.017 69.4632H186.408C186.727 69.4632 187.047 69.6229 187.126 69.9423ZM171.158 118.967H176.108L173.633 111.302L171.158 118.967ZM205.703 69.4632H262.233C262.632 69.4632 262.952 69.7826 262.952 70.1818V98.2071C262.952 98.6064 262.632 98.9257 262.233 98.9257H247.701V126.951C247.701 127.35 247.302 127.67 246.903 127.67H220.954C220.554 127.67 220.235 127.35 220.235 126.951V98.9257H205.703C205.304 98.9257 204.985 98.6064 204.985 98.2071V70.1818C204.985 69.7826 205.304 69.4632 205.703 69.4632ZM325.1 96.5304C325.1 96.9296 324.78 97.3288 324.301 97.3288H299.47C299.23 97.3288 298.991 97.1692 298.831 96.9296C298.192 95.9715 297.234 95.4126 296.116 95.4126C294.36 95.4126 292.923 96.8498 292.923 98.6064C292.923 100.363 294.36 101.8 296.116 101.8C297.234 101.8 298.192 101.161 298.831 100.203C298.991 99.9637 299.23 99.8839 299.47 99.8839H324.301C324.78 99.8839 325.1 100.283 325.1 100.682C325.1 115.773 311.287 127.67 296.116 127.67C280.068 127.67 266.973 114.655 266.973 98.6064C266.973 82.5577 280.068 69.4632 296.116 69.4632C311.207 69.4632 325.1 81.4398 325.1 96.5304ZM389.64 70.2616V126.871C389.64 127.35 389.32 127.67 388.921 127.67H362.493C362.093 127.67 361.694 127.35 361.694 126.871V108.188H358.261V126.871C358.261 127.35 357.941 127.67 357.462 127.67H331.034C330.635 127.67 330.315 127.35 330.315 126.871V70.2616C330.315 69.8624 330.635 69.4632 331.034 69.4632H357.462C357.941 69.4632 358.261 69.8624 358.261 70.2616V90.3026H361.694V70.2616C361.694 69.8624 362.093 69.4632 362.493 69.4632H388.921C389.32 69.4632 389.64 69.8624 389.64 70.2616ZM396.065 69.4632H451.477C451.956 69.4632 452.276 69.7027 452.276 70.2616V86.1506C452.276 86.7096 451.956 86.9491 451.477 86.9491H422.094V89.8235H441.018C441.497 89.8235 441.736 90.063 441.736 90.6219V106.591C441.736 107.15 441.497 107.389 441.018 107.389H422.094V110.264H451.477C451.956 110.264 452.276 110.503 452.276 110.982V126.871C452.276 127.43 451.956 127.67 451.477 127.67H396.065C395.586 127.67 395.267 127.35 395.267 126.951V70.2616C395.267 69.8624 395.586 69.4632 396.065 69.4632ZM485.035 108.906C485.035 110.343 485.914 111.062 487.351 111.062C488.549 111.062 489.507 110.184 489.507 109.146C489.507 107.709 488.309 106.83 486.473 106.83C468.667 106.75 456.292 101.002 456.292 88.7057C456.292 77.4476 470.983 69.4632 486.712 69.4632C502.362 69.4632 516.255 75.8507 516.255 87.8274C516.255 88.3064 515.855 88.7057 515.296 88.7057H489.666C489.028 88.7057 488.549 88.3064 488.549 87.5878C488.549 86.47 487.511 85.7514 486.313 85.7514C485.035 85.7514 483.997 86.6297 483.997 87.6677C483.997 88.2266 484.157 89.6638 486.233 89.6638C506.274 89.6638 516.813 96.9296 516.813 109.146C516.813 120.564 506.274 127.67 486.313 127.67C470.504 127.67 456.691 121.122 456.691 108.906C456.691 108.427 457.09 108.028 457.649 108.028H484.077C484.636 108.028 485.035 108.427 485.035 108.906Z" fill="#606CCF"/>
</svg>
