<svg width="1235" height="125" viewBox="0 0 1235 125" fill="none" xmlns="http://www.w3.org/2000/svg">
<path d="M433.812 114.569V109.653V104.738H424.39V96.3105H410.929V100.825H406.89V91.3948H402.852V85.0745H389.391V93.5015H385.353V100.825V102.932V109.553H366.604V114.469H358.527V109.553H344.393V115.171H347.085V119.385H438.331V114.469L433.812 114.569Z" fill="#C9CFFF"/>
<path d="M415.063 119.184V114.569H419.774V109.754V104.838H410.352V109.754H405.64V113.867V114.569V119.184H382.18V114.569H386.891V109.754H391.602V104.838H386.891V100.424V95.3072H393.622V90.2911V85.1747H388.91V90.2911H384.199V95.3072H378.815V100.424H375.449V104.838H368.046V109.754H377.468V113.867H372.757V119.184H354.008V113.867H349.297V109.754H344.585V113.867H339.874V119.184H335.163V124.401H438.523V119.184H415.063Z" fill="#606CCF"/>
<path d="M1144.85 19.7345V14.4175H1129.75V10.2039H1125.71V6.09075H1120.71V0.773682H1110.62V6.09075H1104.56V16.5242H1107.64V19.7345V24.9513H1148.89V19.7345H1144.85Z" fill="#C9CFFF"/>
<path d="M1106.58 24.9513H1148.89V19.7345H1116.67V14.4175H1107.64V10.2039H1111.58V0.773682H1106.58V6.09075H1102.54V14.4175V16.5242V19.7345H1106.58V24.9513Z" fill="#606CCF"/>
<path d="M242.302 35.5853V31.3718H238.263V27.1583H233.264V21.9415H223.168V27.1583H217.111V37.6921H220.187V40.8021H257.397V35.5853H242.302Z" fill="#C9CFFF"/>
<path d="M229.225 40.3005V35.5853H220.187V31.3718H224.226V21.9415H219.13V27.1583H215.091V35.5853V37.6921V40.8021H219.13V46.1191H261.435V40.3005H229.225Z" fill="#606CCF"/>
<path d="M168.037 105.542V100.224H158.037V105.542V106.545V111.762H172.075V105.542H168.037Z" fill="#C9CFFF"/>
<path d="M158.037 105.542H152.941V110.758V111.762V115.975H172.075V110.758H158.037V105.542Z" fill="#606CCF"/>
<path d="M1219.46 27.359V32.5758H1215.52V38.896H1229.55V32.5758V27.359H1219.46Z" fill="#C9CFFF"/>
<path d="M1229.55 32.5758V37.8929H1215.52V43.1096H1234.65V38.8961V37.8929V32.5758H1229.55Z" fill="#606CCF"/>
<path d="M117.36 72.7347V68.4209H112.649V64.2073H108.033V59.2916H99.2838V45.2465H90.5342V40.3307H85.8229V35.5153H79.0924V40.3307H78.4194V45.2465H68.4198V64.2073H54.2859V53.6735H41.5941V64.2073H32.1715V55.078H27.4602V50.1623H22.7488V45.2465H13.3262V50.1623V55.078H6.69187V64.2073H4.67273V69.1231H5.34578V72.7347V73.2363V78.1521H126.109V72.7347H117.36Z" fill="#C9CFFF"/>
<path d="M108.707 77.9517V72.7349H103.995V77.9517H94.5725V72.7349H90.5343V69.8256H85.8229V64.6088H90.5343V59.2918H85.8229V64.6088H81.1116V69.8256V72.7349V74.4404V77.9517H49.5746V73.2365H45.5363V68.4211H41.5942V64.0069H45.5363V58.7902H49.5746V53.6737H40.9211V58.7902H36.8829V63.5053V64.0069V68.4211V73.2365H40.9211V77.9517H18.7106V73.2365H13.9993V68.4211H9.28797V63.8063V58.7902V55.6802H13.3262V50.1625H5.34584V55.1786H0.634521V58.7902V63.8063V68.4211V68.9227V73.2365H5.34584V78.1523V83.0681H130.821V77.9517H108.707Z" fill="#606CCF"/>
<path d="M76.4002 35.5153V40.3307H68.4198V45.2465H63.7085V50.3629V55.078H58.9972V59.9938V64.9096H63.7085V69.8254H68.4198V64.9096V59.9938V55.4793H73.1312V50.3629H76.4002V45.8484H81.1116V41.1333V40.3307V35.5153H76.4002Z" fill="#606CCF"/>
<path d="M1009.84 109.352V105.139H1014.45V101.126H1018.97V96.3105H1027.43V82.767H1035.9V78.0519H1040.41V73.2365H1046.95V78.0519H1047.63V82.767H1057.34V101.126H1070.99V90.8931H1083.39V101.126H1092.43V92.2976H1097.05V87.4822H1101.57V82.767H1110.7V87.4822V92.2976H1117.14V101.126H1119.16V105.841H1118.49V109.352V109.954V114.669H1001.38V109.352H1009.84Z" fill="#C9CFFF"/>
<path d="M1018.3 114.368V109.352H1022.91V114.368H1031.95V109.352H1035.9V106.644H1040.41V101.427H1035.9V96.3105H1040.41V101.427H1045.03V106.644V109.352V110.958V114.368H1075.6V109.954H1079.45V105.139H1083.39V100.925H1079.45V95.9092H1075.6V90.8931H1083.97V95.9092H1087.91V100.424V100.925V105.139V109.954H1083.97V114.368H1105.51V109.954H1110.03V105.139H1114.55V100.725V95.9092V92.7992H1110.7V87.4822H1118.49V92.3979H1123.01V95.9092V100.725V105.139V105.64V109.954H1118.49V114.669V119.385H996.858V114.368H1018.3Z" fill="#606CCF"/>
<path d="M1049.55 73.2365V78.0519H1057.34V82.767H1061.86V87.6828V92.2976H1066.47V97.0128V101.728H1061.86V106.543H1057.34V101.728V97.0128V92.6989H1052.82V87.6828H1049.55V83.369H1045.03V78.7542V78.0519V73.2365H1049.55Z" fill="#606CCF"/>
</svg>
